<?xml version="1.0" standalone="no"?>
<!DOCTYPE svg PUBLIC "-//W3C//DTD SVG 1.1//EN" "http://www.w3.org/Graphics/SVG/1.1/DTD/svg11.dtd" >
<svg xmlns="http://www.w3.org/2000/svg" xmlns:xlink="http://www.w3.org/1999/xlink" version="1.1">
<metadata>
Created by FontForge 20170731 at Wed Jul 20 08:39:51 2022
 By Aleksey,,,
Copyright by Pangram Pangram Foundry. All rights reserved.
</metadata>
<defs>
<font id="PPNeueMontreal-Bold" horiz-adv-x="0" vert-adv-y="2048" >
  <font-face 
    font-family="PP Neue Montreal"
    font-weight="700"
    font-stretch="normal"
    units-per-em="2048"
    panose-1="0 0 0 0 0 0 0 0 0 0"
    ascent="1638"
    descent="-410"
    x-height="1049"
    cap-height="1464"
    bbox="-367 -584 4571 1962"
    underline-thickness="49"
    underline-position="-134"
    unicode-range="U+000D-1F150"
  />
<missing-glyph horiz-adv-x="1331" vert-adv-y="2457" 
 />
    <glyph glyph-name="f_f" unicode="ff" horiz-adv-x="1337" vert-adv-y="2457" 
d="M182 0v803h-141v246h141v73q0 191 77 276t247 85q81 0 186 -21v-231q-59 6 -82 6q-51 0 -75.5 -23t-24.5 -100v-65h297v73q0 191 76.5 276t246.5 85q82 0 187 -21v-231q-58 6 -82 6q-51 0 -75.5 -23t-24.5 -100v-65h182v-246h-182v-803h-328v803h-297v-803h-328z" />
    <glyph glyph-name="f_f_i" unicode="ffi" horiz-adv-x="1843" vert-adv-y="2457" 
d="M182 0v803h-141v246h141v73q0 191 77 276t247 85q81 0 186 -21v-231q-59 6 -82 6q-51 0 -75.5 -23t-24.5 -100v-65h297v73q0 191 76.5 276t246.5 85q82 0 187 -21v-231q-58 6 -82 6q-51 0 -75.5 -23t-24.5 -100v-65h182v-246h-182v-803h-328v803h-297v-803h-328zM1425 0
v1049h328v-1049h-328zM1425 1174v290h328v-290h-328z" />
    <glyph glyph-name="f_i" unicode="fi" horiz-adv-x="1218" vert-adv-y="2457" 
d="M182 1122q0 191 77 276t247 85q81 0 186 -21v-231q-59 6 -82 6q-51 0 -75.5 -23t-24.5 -100v-65h182v-246h-182v-803h-328v803h-141v246h141v73zM801 0v1049h327v-1049h-327zM801 1174v290h327v-290h-327z" />
    <glyph glyph-name="f_l" unicode="fl" horiz-adv-x="1218" vert-adv-y="2457" 
d="M182 1122q0 191 77 276t247 85q81 0 186 -21v-231q-59 6 -82 6q-51 0 -75.5 -23t-24.5 -100v-65h182v-246h-182v-803h-328v803h-141v246h141v73zM801 0v1464h327v-1464h-327z" />
    <glyph glyph-name=".notdef" horiz-adv-x="1331" vert-adv-y="2457" 
 />
    <glyph glyph-name=".null" vert-adv-y="2457" 
 />
    <glyph glyph-name="nonmarkingreturn" horiz-adv-x="682" 
 />
    <glyph glyph-name="CR" unicode="&#xd;" horiz-adv-x="389" vert-adv-y="2457" 
 />
    <glyph glyph-name="space" unicode=" " horiz-adv-x="389" vert-adv-y="2457" 
 />
    <glyph glyph-name="exclam" unicode="!" horiz-adv-x="516" vert-adv-y="2457" 
d="M104 0v311h312v-311h-312zM84 1145v319h348v-319l-92 -666h-164z" />
    <glyph glyph-name="quotedbl" unicode="&#x22;" horiz-adv-x="819" vert-adv-y="2457" 
d="M102 913l-41 551h287l-41 -551h-205zM471 1464h287l-41 -551h-205z" />
    <glyph glyph-name="numbersign" unicode="#" horiz-adv-x="1206" vert-adv-y="2457" 
d="M549 0l65 305h-184l-65 -305h-246l65 305h-153l51 246h156l53 252h-156l53 246h156l78 366h246l-78 -366h184l78 366h246l-78 -366h149l-53 -246h-149l-54 -252h150l-51 -246h-152l-65 -305h-246zM483 551h185l53 252h-184z" />
    <glyph glyph-name="dollar" unicode="$" horiz-adv-x="1294" vert-adv-y="2457" 
d="M580 -205v180q-244 21 -387.5 148t-143.5 340h328q5 -186 203 -219v331l-41 13q-84 25 -145.5 49.5t-121.5 60.5t-97.5 78.5t-60 101.5t-22.5 132q0 185 131 297.5t357 126.5v143h137v-143q229 -20 358.5 -142t138.5 -315h-327q-21 150 -170 184v-305q54 -16 90.5 -27.5
t85 -28.5t81.5 -33t71.5 -38t64 -45t51.5 -53.5t41 -64t24 -75.5t9 -90q0 -190 -135.5 -305t-382.5 -125v-176h-137zM422 1036q0 -52 35.5 -80.5t122.5 -56.5v268q-158 -17 -158 -131zM717 238q188 9 188 133q0 61 -48 98.5t-140 67.5v-299z" />
    <glyph glyph-name="percent" unicode="%" horiz-adv-x="1855" vert-adv-y="2457" 
d="M426 0l784 1415h220l-785 -1415h-219zM37 1036q0 189 111.5 300.5t300.5 111.5t299 -111.5t110 -300.5t-110 -299t-299 -110t-300.5 110t-111.5 299zM344 1036q0 -108 25 -156.5t80 -48.5q54 0 78 48.5t24 156.5q0 109 -24 158t-78 49q-55 0 -80 -49t-25 -158zM997 379
q0 189 110.5 299t299.5 110t300.5 -110t111.5 -299t-111.5 -300.5t-300.5 -111.5t-299.5 111.5t-110.5 300.5zM1305 379q0 -109 24 -158t78 -49q55 0 79.5 49t24.5 158q0 108 -24.5 156.5t-79.5 48.5q-54 0 -78 -48.5t-24 -156.5z" />
    <glyph glyph-name="ampersand" unicode="&#x26;" horiz-adv-x="1398" vert-adv-y="2457" 
d="M541 -33q-234 0 -364 111t-130 287q0 64 18.5 118.5t47 94t75 77t88.5 62.5t101 55q-91 112 -132.5 187t-41.5 163q0 71 29.5 137.5t83.5 119.5t139 85t188 33q197 1 318.5 -104t121.5 -265q0 -121 -79 -207.5t-248 -175.5l213 -235q54 102 78 223h286
q-33 -247 -168 -442l260 -291h-409l-68 82q-177 -115 -407 -115zM395 428q0 -79 51.5 -129.5t153.5 -50.5q95 0 174 45l-266 321q-113 -82 -113 -186zM510 1106q0 -78 106 -203q160 102 160 207q0 51 -33.5 85t-99.5 34q-65 0 -99 -34.5t-34 -88.5z" />
    <glyph glyph-name="quotesingle" unicode="'" horiz-adv-x="409" vert-adv-y="2457" 
d="M102 913l-41 551h287l-41 -551h-205z" />
    <glyph glyph-name="parenleft" unicode="(" horiz-adv-x="632" vert-adv-y="2457" 
d="M317 -281q-108 174 -184 422.5t-76 507.5q0 266 75 509t185 419h287q-198 -450 -198 -928q0 -480 198 -930h-287z" />
    <glyph glyph-name="parenright" unicode=")" horiz-adv-x="632" vert-adv-y="2457" 
d="M29 -281q198 450 198 928q0 480 -198 930h286q108 -174 184 -422.5t76 -507.5q0 -266 -75 -509t-185 -419h-286z" />
    <glyph glyph-name="asterisk" unicode="*" horiz-adv-x="901" vert-adv-y="2457" 
d="M315 733l-165 121l145 197l-227 59l63 195l219 -91v250h205v-250l217 91l64 -195l-230 -59l146 -197l-166 -121l-135 207z" />
    <glyph glyph-name="plus" unicode="+" horiz-adv-x="1175" vert-adv-y="2457" 
d="M446 162v370h-356v283h356v371h283v-371h356v-283h-356v-370h-283z" />
    <glyph glyph-name="comma" unicode="," horiz-adv-x="475" vert-adv-y="2457" 
d="M82 -199q147 24 147 199h-147v311h311v-311q0 -139 -81 -229.5t-230 -112.5v143z" />
    <glyph glyph-name="hyphen" unicode="-" horiz-adv-x="720" vert-adv-y="2457" 
d="M82 377v280h557v-280h-557z" />
    <glyph glyph-name="period" unicode="." horiz-adv-x="466" vert-adv-y="2457" 
d="M78 0v311h311v-311h-311z" />
    <glyph glyph-name="slash" unicode="/" horiz-adv-x="880" vert-adv-y="2457" 
d="M23 0l567 1464h266l-567 -1464h-266z" />
    <glyph glyph-name="zero" unicode="0" horiz-adv-x="1390" vert-adv-y="2457" 
d="M696 -33q-155 0 -275.5 56t-195.5 156.5t-113 233.5t-38 294q0 128 23.5 239t73.5 204t122.5 159t175 102.5t227.5 36.5q155 0 275 -56t195 -156.5t113 -234t38 -294.5t-38 -294t-113 -233.5t-195 -156.5t-275 -56zM436 707q0 -102 12.5 -180t41 -141.5t80.5 -97.5
t126 -34t125.5 34t80 97.5t40.5 141.5t12 180t-12 180t-40.5 142t-80 98t-125.5 34t-126 -34t-80.5 -98t-41 -142t-12.5 -180z" />
    <glyph glyph-name="one" unicode="1" horiz-adv-x="806" vert-adv-y="2457" 
d="M328 950q-75 -59 -299 -59v272q103 0 182 26t128.5 84t49.5 142h287v-1415h-348v950z" />
    <glyph glyph-name="two" unicode="2" horiz-adv-x="1230" vert-adv-y="2457" 
d="M53 0q0 64 11 119.5t27 100t50.5 92.5t64.5 82.5t88 83.5t102 83.5t124 93.5q137 102 201.5 176t64.5 162q0 84 -40.5 129t-122.5 45q-104 0 -158.5 -63.5t-54.5 -204.5h-336q0 257 140 403t419 146q232 0 371 -115t139 -315q0 -57 -14 -112.5t-35 -100t-57.5 -91.5
t-68 -81t-81 -75.5t-83 -66.5t-85.5 -63q-118 -85 -176 -143v-4h600v-281h-1090z" />
    <glyph glyph-name="three" unicode="3" horiz-adv-x="1269" vert-adv-y="2457" 
d="M643 -33q-284 0 -440 139t-156 394h336q0 -127 58 -189.5t190 -62.5q111 0 161 43.5t50 128.5q0 98 -63 142t-189 44h-72v240h64q99 0 159 43.5t60 130.5q0 71 -44 109t-130 38q-90 0 -146.5 -45t-56.5 -141h-336q0 206 148 336.5t399 130.5q108 0 202.5 -26t166 -74.5
t112.5 -123t41 -165.5q0 -204 -205 -309v-5q246 -78 246 -339q0 -212 -148.5 -325.5t-406.5 -113.5z" />
    <glyph glyph-name="four" unicode="4" horiz-adv-x="1316" vert-adv-y="2457" 
d="M705 0v299h-642v342l642 774h348v-835h209v-281h-209v-299h-348zM319 580h386v456z" />
    <glyph glyph-name="five" unicode="5" horiz-adv-x="1265" vert-adv-y="2457" 
d="M645 -33q-280 0 -431 127.5t-159 343.5h336q8 -82 68.5 -136t165.5 -54q100 0 157.5 60t57.5 175t-55.5 176.5t-166.5 61.5q-133 0 -215 -103h-327l164 797h895v-280h-658l-53 -271v-4q129 101 303 101q213 0 341 -128.5t128 -353.5q0 -125 -42 -223t-116.5 -161
t-174 -95.5t-218.5 -32.5z" />
    <glyph glyph-name="six" unicode="6" horiz-adv-x="1316" vert-adv-y="2457" 
d="M694 -33q-136 0 -243 40t-176.5 107t-115 161t-64.5 196t-19 217q0 374 163 567t443 193q203 0 347.5 -109.5t178.5 -281.5h-352q-4 21 -14.5 41.5t-30 42t-54.5 34.5t-81 13q-127 0 -189.5 -86.5t-62.5 -231.5v-22l8 -6q130 123 330 123q216 0 351.5 -137t135.5 -343
q0 -236 -150.5 -377t-404.5 -141zM432 467q0 -106 64.5 -173t177.5 -67q111 0 175 67t64 173q0 104 -64 171t-175 67q-113 0 -177.5 -67t-64.5 -171z" />
    <glyph glyph-name="seven" unicode="7" horiz-adv-x="1107" vert-adv-y="2457" 
d="M250 0q0 335 126 650.5t318 479.5v5h-669v280h1038v-260q-117 -95 -204.5 -227.5t-139 -285.5t-76.5 -313t-25 -329h-368z" />
    <glyph glyph-name="eight" unicode="8" horiz-adv-x="1302" vert-adv-y="2457" 
d="M651 -33q-165 0 -295.5 48t-210 149t-79.5 242q0 240 266 356v4q-205 109 -205 299q0 119 71 207t188.5 132t264.5 44t265 -44t189 -132t71 -207q0 -188 -205 -299v-4q266 -118 266 -356q0 -141 -80 -242t-210.5 -149t-295.5 -48zM422 438q0 -91 60.5 -151t168.5 -60
t169 60.5t61 150.5q0 88 -61 147.5t-169 59.5t-168.5 -59.5t-60.5 -147.5zM442 1034q0 -77 53.5 -126.5t155.5 -49.5t155.5 49.5t53.5 126.5q0 74 -53.5 124t-155.5 50t-155.5 -50t-53.5 -124z" />
    <glyph glyph-name="nine" unicode="9" horiz-adv-x="1316" vert-adv-y="2457" 
d="M635 -33q-203 0 -347.5 109.5t-178.5 281.5h352q4 -21 14.5 -41.5t30 -42t54.5 -34.5t81 -13q127 0 189.5 86.5t62.5 231.5v22l-8 6q-129 -122 -330 -122q-143 0 -255 63.5t-172 172t-60 243.5q0 236 150.5 377t404.5 141q136 0 243 -40t176.5 -107t115 -161t64.5 -196
t19 -217q0 -374 -163 -567t-443 -193zM403 948q0 -104 64.5 -170.5t175.5 -66.5q113 0 177.5 66.5t64.5 170.5q0 106 -64.5 173t-177.5 67q-111 0 -175.5 -67.5t-64.5 -172.5z" />
    <glyph glyph-name="colon" unicode=":" horiz-adv-x="491" vert-adv-y="2457" 
d="M90 635v311h311v-311h-311zM90 0v311h311v-311h-311z" />
    <glyph glyph-name="semicolon" unicode=";" horiz-adv-x="491" vert-adv-y="2457" 
d="M90 635v311h311v-311h-311zM90 -342v143q148 24 148 199h-148v311h311v-311q0 -139 -81 -229.5t-230 -112.5z" />
    <glyph glyph-name="less" unicode="&#x3c;" horiz-adv-x="1021" vert-adv-y="2457" 
d="M926 127l-844 352v307l844 353v-281l-568 -223v-4l568 -223v-281z" />
    <glyph glyph-name="equal" unicode="=" horiz-adv-x="1144" vert-adv-y="2457" 
d="M90 315v283h965v-283h-965zM90 750v282h965v-282h-965z" />
    <glyph glyph-name="greater" unicode="&#x3e;" horiz-adv-x="1021" vert-adv-y="2457" 
d="M96 127v281l568 223v4l-568 223v281l844 -353v-307z" />
    <glyph glyph-name="question" unicode="?" horiz-adv-x="1101" vert-adv-y="2457" 
d="M358 0v311h312v-311h-312zM27 979q0 109 35 202t101.5 164t173 111.5t241.5 40.5q215 0 352 -110t137 -287q0 -119 -55.5 -200t-167.5 -144q-115 -64 -156 -117t-41 -160h-270q0 69 1.5 110t10 81t18.5 62t35 50.5t51.5 49.5t75.5 57q62 45 90.5 71.5t44 57.5t15.5 74
q0 54 -36 89.5t-116 35.5q-192 0 -192 -238h-348z" />
    <glyph glyph-name="at" unicode="@" horiz-adv-x="1822" vert-adv-y="2457" 
d="M934 -221q-174 0 -319 42t-248.5 116.5t-176 177.5t-107 224.5t-34.5 258.5q0 187 66 347.5t183.5 274.5t286.5 179t367 65q157 0 291.5 -40.5t231.5 -112.5t166 -169.5t103 -212t34 -239.5q0 -251 -123.5 -385.5t-313.5 -134.5q-103 0 -174.5 48t-97.5 138h-4
q-23 -81 -91.5 -133.5t-164.5 -52.5q-147 0 -241.5 109t-94.5 309q0 217 107.5 344t269.5 127q156 0 223 -137h4l15 122h266l-66 -514q-12 -96 12.5 -136t84.5 -40q84 0 134 89.5t50 248.5q0 272 -163 430t-445 158q-314 0 -504.5 -189t-190.5 -493q0 -288 174.5 -461.5
t485.5 -173.5q182 0 350 66l66 -162q-163 -88 -412 -88zM750 582q0 -88 29 -137.5t100 -49.5q54 0 90.5 35.5t51.5 89t15 121.5q0 97 -29 145t-92 48q-76 0 -120.5 -67t-44.5 -185z" />
    <glyph glyph-name="A" unicode="A" horiz-adv-x="1466" vert-adv-y="2457" 
d="M-10 0l557 1464h371l561 -1464h-404l-94 305h-502l-94 -305h-395zM563 586h336l-166 540h-4z" />
    <glyph glyph-name="B" unicode="B" horiz-adv-x="1413" vert-adv-y="2457" 
d="M123 0v1464h711q464 0 464 -368q0 -126 -63 -202t-164 -110v-4q126 -22 205.5 -108t79.5 -240q0 -432 -502 -432h-731zM492 301h256q121 0 176 37.5t55 136.5t-54.5 135.5t-176.5 36.5h-256v-346zM492 872h245q87 0 136 31t49 115q0 44 -14 73.5t-41 44.5t-57.5 21
t-72.5 6h-245v-291z" />
    <glyph glyph-name="C" unicode="C" horiz-adv-x="1464" vert-adv-y="2457" 
d="M762 -33q-137 0 -251 37t-197 105t-140 162.5t-85 209t-28 246.5q0 169 46.5 310t135 243.5t224 159.5t305.5 57q147 0 264 -42t196.5 -119t126.5 -182t60 -234h-377q-11 64 -29 111t-50.5 86t-84 59t-122.5 20q-89 0 -152 -33t-98.5 -96.5t-51.5 -145t-16 -188.5
q0 -108 15.5 -190t51.5 -145.5t99 -96.5t152 -33q72 0 124 20t84 59.5t50 87.5t28 114h377q-26 -262 -195.5 -422t-461.5 -160z" />
    <glyph glyph-name="D" unicode="D" horiz-adv-x="1490" vert-adv-y="2457" 
d="M123 0v1464h649q308 0 480.5 -191t172.5 -542q0 -353 -163 -542t-469 -189h-670zM492 301h235q322 0 322 430q0 432 -322 432h-235v-862z" />
    <glyph glyph-name="E" unicode="E" horiz-adv-x="1314" vert-adv-y="2457" 
d="M123 0v1464h1110v-301h-741v-260h638v-301h-638v-301h753v-301h-1122z" />
    <glyph glyph-name="F" unicode="F" horiz-adv-x="1255" vert-adv-y="2457" 
d="M123 0v1464h1089v-301h-720v-321h587v-301h-587v-541h-369z" />
    <glyph glyph-name="G" unicode="G" horiz-adv-x="1538" vert-adv-y="2457" 
d="M725 -33q-153 0 -278.5 57.5t-210 159.5t-130 243t-45.5 306q0 222 80 393t242 271t387 100q146 0 266.5 -41t201.5 -113t130 -164.5t62 -199.5h-377q-12 44 -29 77.5t-48.5 67.5t-85.5 53t-126 19q-326 0 -326 -463q0 -108 17.5 -190t56 -145.5t105.5 -96.5t161 -33
q127 0 208.5 69t84.5 175h-278v266h659v-778h-264l-37 186h-4q-55 -104 -160.5 -161.5t-261.5 -57.5z" />
    <glyph glyph-name="H" unicode="H" horiz-adv-x="1484" vert-adv-y="0" 
d="M123 0v1464h369v-573h501v573h369v-1464h-369v590h-501v-590h-369z" />
    <glyph glyph-name="I" unicode="I" horiz-adv-x="614" vert-adv-y="2457" 
d="M123 0v1464h369v-1464h-369z" />
    <glyph glyph-name="J" unicode="J" horiz-adv-x="1148" vert-adv-y="2457" 
d="M535 -33q-117 0 -206 27.5t-144.5 73.5t-90 114t-48 141.5t-13.5 163.5v123h327v-123q0 -111 34 -165t120 -54t120 54t34 165v977h368v-977q0 -90 -13.5 -163.5t-48 -141.5t-89.5 -114t-144 -73.5t-206 -27.5z" />
    <glyph glyph-name="K" unicode="K" horiz-adv-x="1413" vert-adv-y="2457" 
d="M123 0v1464h369v-624l524 624h395l-551 -641l592 -823h-430l-379 571l-151 -176v-395h-369z" />
    <glyph glyph-name="L" unicode="L" horiz-adv-x="1173" vert-adv-y="2457" 
d="M123 0v1464h369v-1163h651v-301h-1020z" />
    <glyph glyph-name="M" unicode="M" horiz-adv-x="1753" vert-adv-y="2457" 
d="M123 0v1464h450l301 -934h5l301 934h450v-1464h-348v911h-4l-272 -911h-258l-273 911h-4v-911h-348z" />
    <glyph glyph-name="N" unicode="N" horiz-adv-x="1499" vert-adv-y="2457" 
d="M123 0v1464h369l512 -870h4v870h368v-1464h-368l-512 870h-4v-870h-369z" />
    <glyph glyph-name="O" unicode="O" horiz-adv-x="1572" vert-adv-y="2457" 
d="M786 -33q-171 0 -309 57.5t-228.5 160t-139 242.5t-48.5 306q0 222 83 393t249 271t393 100q225 0 391 -99.5t250 -271.5t84 -393q0 -166 -49 -306.5t-140 -242.5t-228.5 -159.5t-307.5 -57.5zM438 733q0 -465 348 -465q97 0 166.5 36t108.5 101.5t56.5 146t17.5 181.5
q0 100 -17.5 180t-56.5 145.5t-108.5 101.5t-166.5 36q-348 0 -348 -463z" />
    <glyph glyph-name="P" unicode="P" horiz-adv-x="1361" vert-adv-y="2457" 
d="M123 0v1464h711q233 0 364 -120t131 -347t-131 -347t-364 -120h-342v-530h-369zM492 831h256q100 0 152 38.5t52 127.5t-52 127.5t-152 38.5h-256v-332z" />
    <glyph glyph-name="Q" unicode="Q" horiz-adv-x="1572" vert-adv-y="2457" 
d="M786 -33q-171 0 -309 57.5t-228.5 160t-139 242.5t-48.5 306q0 222 83 393t249 271t393 100q225 0 391 -99.5t250 -271.5t84 -393q0 -341 -188 -547l154 -155l-179 -185l-184 187q-144 -66 -328 -66zM438 733q0 -465 348 -465q50 0 86 8l-174 177l179 184l200 -203
q58 116 58 299q0 100 -17.5 180t-56.5 145.5t-108.5 101.5t-166.5 36q-348 0 -348 -463z" />
    <glyph glyph-name="R" unicode="R" horiz-adv-x="1409" vert-adv-y="2457" 
d="M123 0v1464h690q246 0 384 -109.5t138 -307.5q0 -150 -78.5 -242.5t-218.5 -124.5v-4q75 -13 128.5 -54.5t80.5 -98.5t43 -123.5t21.5 -131t9 -118.5t11.5 -89.5t24 -40.5v-20h-383q-16 14 -22 59t-5.5 100.5t-8.5 118t-27.5 114t-66.5 85t-122 33.5h-229v-510h-369z
M492 811h249q226 0 226 176t-226 176h-249v-352z" />
    <glyph glyph-name="S" unicode="S" horiz-adv-x="1345" vert-adv-y="2457" 
d="M713 -33q-193 0 -344 62t-239.5 183.5t-88.5 285.5h373q0 -121 80.5 -177.5t214.5 -56.5q100 0 153 36t53 95q0 28 -9 51.5t-30.5 42t-44.5 32.5t-62.5 28.5t-72 25t-85.5 26.5q-29 8 -44 13q-87 27 -149 51t-129 62t-108 81t-68 106t-27 139q0 93 28.5 168t79.5 126
t122.5 85t154.5 49.5t180 15.5q172 0 310 -56.5t222 -166t89 -254.5h-373q-12 85 -77 132.5t-171 47.5q-87 0 -137.5 -30t-50.5 -91q0 -69 57.5 -105t210.5 -81q213 -63 297 -102q189 -86 241 -226q23 -61 23 -135q0 -213 -153.5 -338t-425.5 -125z" />
    <glyph glyph-name="T" unicode="T" horiz-adv-x="1280" vert-adv-y="2457" 
d="M457 0v1163h-426v301h1218v-301h-424v-1163h-368z" />
    <glyph glyph-name="U" unicode="U" horiz-adv-x="1445" vert-adv-y="2457" 
d="M723 -33q-323 0 -467.5 139.5t-144.5 421.5v936h368v-936q0 -139 59.5 -199.5t184.5 -60.5t184.5 60.5t59.5 199.5v936h368v-936q0 -282 -144.5 -421.5t-467.5 -139.5z" />
    <glyph glyph-name="V" unicode="V" horiz-adv-x="1370" vert-adv-y="2457" 
d="M494 0l-488 1464h404l276 -1026h4l279 1026h389l-475 -1464h-389z" />
    <glyph glyph-name="W" unicode="W" horiz-adv-x="1957" vert-adv-y="2457" 
d="M389 0l-373 1464h369l188 -993h5l227 993h348l227 -993h4l189 993h369l-373 -1464h-369l-219 913h-4l-219 -913h-369z" />
    <glyph glyph-name="X" unicode="X" horiz-adv-x="1366" vert-adv-y="0" 
d="M-18 0l485 748l-444 716h389l268 -446h4l270 446h389l-444 -712l485 -752h-409l-291 475h-4l-289 -475h-409z" />
    <glyph glyph-name="Y" unicode="Y" horiz-adv-x="1366" vert-adv-y="2457" 
d="M500 0v541l-500 923h397l285 -622h4l287 622h389l-494 -923v-541h-368z" />
    <glyph glyph-name="Z" unicode="Z" horiz-adv-x="1255" vert-adv-y="2457" 
d="M53 0v301l670 858v4h-629v301h1080v-301l-670 -858v-4h690v-301h-1141z" />
    <glyph glyph-name="bracketleft" unicode="[" horiz-adv-x="778" vert-adv-y="2457" 
d="M113 -281v1858h628v-281h-280v-1296h280v-281h-628z" />
    <glyph glyph-name="backslash" unicode="\" horiz-adv-x="880" vert-adv-y="2457" 
d="M592 0l-567 1464h266l567 -1464h-266z" />
    <glyph glyph-name="bracketright" unicode="]" horiz-adv-x="778" vert-adv-y="2457" 
d="M37 -281v281h280v1296h-280v281h629v-1858h-629z" />
    <glyph glyph-name="asciicircum" unicode="^" horiz-adv-x="983" vert-adv-y="2457" 
d="M27 901l342 563h245l342 -563h-307l-157 277h-3l-155 -277h-307z" />
    <glyph glyph-name="underscore" unicode="_" horiz-adv-x="1175" vert-adv-y="2457" 
d="M55 -352v280h1065v-280h-1065z" />
    <glyph glyph-name="grave" unicode="`" horiz-adv-x="620" vert-adv-y="2457" 
d="M293 1174l-191 311h328l109 -311h-246z" />
    <glyph glyph-name="a" unicode="a" horiz-adv-x="1155" vert-adv-y="2457" 
d="M381 -33q-153 0 -243.5 83.5t-90.5 223.5q0 79 30.5 139t88 100t125 65.5t158.5 44.5q15 3 50.5 10t55 11.5t50.5 13t48.5 18t36 22.5t27 30.5t8.5 39.5q0 44 -35 69t-104 25q-90 0 -134.5 -37t-52.5 -114h-311q4 78 35 143.5t91 117.5t158.5 81.5t227.5 29.5
q222 0 332 -101t110 -335v-405q0 -44 7.5 -62t31.5 -18q15 0 27 2v-156q-99 -18 -180 -18q-94 0 -139 34t-58 103h-4q-59 -73 -148 -116.5t-198 -43.5zM383 309q0 -116 135 -116q94 0 150.5 68t56.5 163v88q-55 -20 -178 -49q-88 -21 -126 -58.5t-38 -95.5z" />
    <glyph glyph-name="b" unicode="b" horiz-adv-x="1230" vert-adv-y="2457" 
d="M725 -33q-103 0 -184 43t-119 94h-4v-104h-328v1464h328v-520h4q38 51 119 94t184 43q210 0 333.5 -150t123.5 -407t-123.5 -407t-333.5 -150zM424 524q0 -152 55 -231.5t156 -79.5t156 79.5t55 231.5t-55 232t-156 80t-156 -80t-55 -232z" />
    <glyph glyph-name="c" unicode="c" horiz-adv-x="1124" vert-adv-y="2457" 
d="M586 -35q-246 0 -393.5 155t-147.5 404q0 247 146 403t387 156q221 0 357 -118t157 -308h-330q-21 181 -178 181q-100 0 -151.5 -82t-51.5 -232t51 -231.5t152 -81.5q159 0 178 184h330q-12 -191 -148 -310.5t-358 -119.5z" />
    <glyph glyph-name="d" unicode="d" horiz-adv-x="1228" vert-adv-y="2457" 
d="M504 -33q-210 0 -333.5 150t-123.5 407t123.5 407t333.5 150q103 0 184 -43t119 -94h4v520h328v-1464h-328v104h-4q-38 -51 -119 -94t-184 -43zM383 524q0 -152 55 -231.5t156 -79.5t156 79.5t55 231.5t-55 232t-156 80t-156 -80t-55 -232z" />
    <glyph glyph-name="e" unicode="e" horiz-adv-x="1173" vert-adv-y="2457" 
d="M590 -35q-251 0 -398 154.5t-147 404.5q0 116 36 217t103.5 177.5t172 120.5t233.5 44q265 0 400.5 -153t135.5 -445v-49h-753q0 -105 64.5 -165t160.5 -60q146 0 186 106h334q-46 -165 -179.5 -258.5t-348.5 -93.5zM375 639h422q0 100 -55 153.5t-152 53.5
q-95 0 -152 -53.5t-63 -153.5z" />
    <glyph glyph-name="f" unicode="f" horiz-adv-x="712" vert-adv-y="2457" 
d="M182 1122q0 191 77 276t247 85q81 0 186 -21v-231q-59 6 -82 6q-51 0 -75.5 -23t-24.5 -100v-65h182v-246h-182v-803h-328v803h-141v246h141v73z" />
    <glyph glyph-name="g" unicode="g" horiz-adv-x="1196" vert-adv-y="2457" 
d="M584 -375q-117 0 -211.5 29t-155 78.5t-96.5 108t-51 124.5h331q36 -104 183 -104q109 0 152.5 61t43.5 203v61h-4q-40 -54 -112 -95.5t-175 -41.5q-199 0 -319.5 143.5t-120.5 372.5t120.5 372.5t319.5 143.5q103 0 175 -41.5t112 -95.5h4v105h328v-924q0 -138 -36 -236
t-106 -155t-163.5 -83t-218.5 -26zM385 565q0 -130 48.5 -200t146.5 -70q194 0 194 270q0 131 -48 201t-146 70t-146.5 -70.5t-48.5 -200.5z" />
    <glyph glyph-name="h" unicode="h" horiz-adv-x="1189" vert-adv-y="2457" 
d="M778 604q0 115 -39.5 163t-124.5 48q-196 0 -196 -209v-606h-328v1464h328v-567h4q105 184 344 184q155 0 247.5 -97.5t92.5 -274.5v-709h-328v604z" />
    <glyph glyph-name="i" unicode="i" horiz-adv-x="507" vert-adv-y="2457" 
d="M90 0v1049h328v-1049h-328zM90 1174v290h328v-290h-328z" />
    <glyph glyph-name="j" unicode="j" horiz-adv-x="507" vert-adv-y="2457" 
d="M90 -375q-83 0 -182 21v250q58 -7 76 -7q55 0 80.5 23.5t25.5 101.5v1035h328v-1018q0 -200 -77 -303t-251 -103zM90 1174v290h328v-290h-328z" />
    <glyph glyph-name="k" unicode="k" horiz-adv-x="1118" vert-adv-y="2457" 
d="M90 0v1464h328v-805l350 390h348l-371 -394l414 -655h-379l-248 432l-114 -121v-311h-328z" />
    <glyph glyph-name="l" unicode="l" horiz-adv-x="507" vert-adv-y="2457" 
d="M90 0v1464h328v-1464h-328z" />
    <glyph glyph-name="m" unicode="m" horiz-adv-x="1800" vert-adv-y="2457" 
d="M737 604q0 120 -31 165.5t-118 45.5q-80 0 -125 -52t-45 -157v-606h-328v1049h328v-152h4q45 79 131 131.5t197 52.5q100 0 171 -50t103 -134h4q52 60 94.5 96t109.5 62t148 26q159 0 247.5 -96.5t88.5 -275.5v-709h-332v604q0 120 -31 165.5t-118 45.5
q-81 0 -125.5 -51.5t-44.5 -157.5v-606h-328v604z" />
    <glyph glyph-name="n" unicode="n" horiz-adv-x="1189" vert-adv-y="2457" 
d="M778 604q0 115 -39.5 163t-124.5 48q-196 0 -196 -209v-606h-328v1049h328v-152h4q105 184 344 184q155 0 247.5 -97.5t92.5 -274.5v-709h-328v604z" />
    <glyph glyph-name="o" unicode="o" horiz-adv-x="1210" vert-adv-y="2457" 
d="M602 -35q-257 0 -407 152.5t-150 404.5q0 251 151.5 406t411.5 155q257 0 407 -152.5t150 -402.5q0 -253 -151.5 -408t-411.5 -155zM377 524q0 -152 59 -232.5t170 -80.5q109 0 168.5 80.5t59.5 232.5t-59.5 233t-168.5 81q-110 0 -169.5 -81t-59.5 -233z" />
    <glyph glyph-name="p" unicode="p" horiz-adv-x="1230" vert-adv-y="2457" 
d="M725 -33q-103 0 -184 43t-119 94h-4v-466h-328v1411h328v-105h4q38 51 119 94t184 43q210 0 333.5 -150t123.5 -407t-123.5 -407t-333.5 -150zM424 524q0 -152 55 -231.5t156 -79.5t156 79.5t55 231.5t-55 232t-156 80t-156 -80t-55 -232z" />
    <glyph glyph-name="q" unicode="q" horiz-adv-x="1226" vert-adv-y="2457" 
d="M504 -33q-210 0 -333.5 150t-123.5 407t123.5 407t333.5 150q103 0 184 -43t119 -94h4v105h328v-1411h-328v466h-4q-38 -51 -119 -94t-184 -43zM383 524q0 -152 55 -231.5t156 -79.5t156 79.5t55 231.5t-55 232t-156 80t-156 -80t-55 -232z" />
    <glyph glyph-name="r" unicode="r" horiz-adv-x="788" vert-adv-y="2457" 
d="M418 487v-487h-328v1049h328v-172h4q39 85 105 132.5t151 47.5q53 0 90 -8v-287q-40 6 -68 6q-118 0 -200 -73.5t-82 -207.5z" />
    <glyph glyph-name="s" unicode="s" horiz-adv-x="1064" vert-adv-y="2457" 
d="M555 -33q-133 0 -234 30t-160.5 84t-90 120.5t-33.5 146.5h307q15 -155 205 -155q139 0 139 90q0 15 -3.5 28t-12 23.5t-16.5 18.5t-25 15.5t-29.5 12t-36.5 11t-39 10t-45.5 10t-48.5 10.5q-62 15 -110.5 30.5t-100.5 43t-86 61t-56 83.5t-22 112q0 150 120.5 239.5
t338.5 89.5q121 0 214 -29t147.5 -79.5t83 -112t32.5 -133.5h-307q-8 65 -46.5 97t-117.5 32q-129 0 -129 -84q0 -42 32 -58.5t129 -38.5q37 -8 58 -13q52 -12 88.5 -22t83 -27t78 -34.5t65 -44.5t53 -58.5t32 -74.5t12.5 -94q0 -164 -121 -252t-348 -88z" />
    <glyph glyph-name="t" unicode="t" horiz-adv-x="747" vert-adv-y="2457" 
d="M502 -20q-173 0 -250.5 84.5t-77.5 275.5v463h-145v246h145v292h328v-292h182v-246h-182v-455q0 -78 25.5 -100.5t80.5 -22.5q36 0 88 8v-231q-96 -22 -194 -22z" />
    <glyph glyph-name="u" unicode="u" horiz-adv-x="1189" vert-adv-y="2457" 
d="M424 -33q-155 0 -247.5 98t-92.5 275v709h328v-605q0 -115 39.5 -163t123.5 -48q197 0 197 209v607h328v-1049h-328v152h-4q-106 -185 -344 -185z" />
    <glyph glyph-name="v" unicode="v" horiz-adv-x="1093" vert-adv-y="2457" 
d="M367 0l-363 1049h332l213 -693h4l213 693h324l-363 -1049h-360z" />
    <glyph glyph-name="w" unicode="w" horiz-adv-x="1617" vert-adv-y="2457" 
d="M297 0l-293 1049h328l157 -639h5l176 639h286l177 -639h6l157 639h318l-293 -1049h-307l-203 664h-4l-203 -664h-307z" />
    <glyph glyph-name="x" unicode="x" horiz-adv-x="1064" vert-adv-y="0" 
d="M-27 0l361 535l-320 514h348l168 -304h5l167 304h349l-320 -514l361 -535h-369l-188 324h-5l-188 -324h-369z" />
    <glyph glyph-name="y" unicode="y" horiz-adv-x="1124" vert-adv-y="2457" 
d="M315 -362q-96 0 -196 20v250q52 -6 98 -6q21 0 34 0.5t34.5 3.5t36.5 10.5t31.5 19t28.5 31.5t19 47l-417 1035h338l245 -691h4l226 691h323l-383 -1051q-46 -126 -97.5 -201.5t-131.5 -117t-193 -41.5z" />
    <glyph glyph-name="z" unicode="z" horiz-adv-x="1026" vert-adv-y="2457" 
d="M39 0v236l510 563v4h-469v246h878v-236l-509 -563v-4h530v-246h-940z" />
    <glyph glyph-name="braceleft" unicode="{" horiz-adv-x="788" vert-adv-y="2457" 
d="M686 -281q-86 0 -150 6.5t-123.5 22.5t-99.5 45t-70.5 73.5t-44.5 109t-14 149.5v250q0 76 -28 103.5t-111 27.5v282q83 -1 111 27t28 107v258q0 85 14 148.5t44.5 107t70 71.5t100 43.5t123.5 21t150 5.5h55v-281h-55q-154 0 -154 -190v-238q0 -87 -33.5 -137.5
t-109.5 -81.5v-4q76 -31 109.5 -82t33.5 -139v-225q0 -199 154 -199h55v-281h-55z" />
    <glyph glyph-name="bar" unicode="|" horiz-adv-x="471" vert-adv-y="2457" 
d="M123 -283v1827h225v-1827h-225z" />
    <glyph glyph-name="braceright" unicode="}" horiz-adv-x="788" vert-adv-y="2457" 
d="M47 -281v281h55q154 0 154 190v238q0 87 33.5 137.5t109.5 81.5v4q-76 31 -109.5 82t-33.5 139v226q0 198 -154 198h-55v281h55q86 0 150 -6.5t123.5 -22.5t99.5 -45t70.5 -73.5t44.5 -109t14 -149.5v-249q0 -76 28 -103.5t111 -27.5v-283q-83 1 -111 -26.5t-28 -106.5
v-258q0 -102 -22 -173.5t-60.5 -115t-104 -68t-138 -33t-177.5 -8.5h-55z" />
    <glyph glyph-name="asciitilde" unicode="~" horiz-adv-x="1001" vert-adv-y="2457" 
d="M92 489q0 182 60 270.5t184 88.5q59 0 112 -23t97 -46t82 -23q84 0 84 92h204q0 -182 -59.5 -270.5t-183.5 -88.5q-59 0 -112 23.5t-97 46.5t-82 23q-84 0 -84 -93h-205z" />
    <glyph glyph-name="nbspace" unicode="&#xa0;" horiz-adv-x="389" vert-adv-y="2457" 
 />
    <glyph glyph-name="exclamdown" unicode="&#xa1;" horiz-adv-x="520" vert-adv-y="2457" 
d="M86 -266v319l92 666h164l92 -666v-319h-348zM102 887v311h312v-311h-312z" />
    <glyph glyph-name="cent" unicode="&#xa2;" horiz-adv-x="1200" vert-adv-y="2457" 
d="M555 10v180q-218 22 -345.5 173t-127.5 382q0 230 129 384t344 174v143h143v-146q186 -23 298.5 -137t131.5 -284h-329q-16 130 -101 165v-598q87 37 101 170h329q-11 -172 -125.5 -288.5t-304.5 -137.5v-180h-143zM418 745q0 -254 137 -303v607q-137 -49 -137 -304z" />
    <glyph glyph-name="sterling" unicode="&#xa3;" horiz-adv-x="1288" vert-adv-y="2457" 
d="M926 -33q-63 0 -116.5 12.5t-91 30t-72 34.5t-76.5 29.5t-87 12.5q-116 0 -256 -86l-155 254q158 98 168 285h-148v217h105q-6 14 -22 46t-24 50t-18.5 47.5t-15 60t-4.5 64.5q0 59 14.5 113.5t52 110t95.5 96.5t153 66.5t215 25.5q145 0 252.5 -37t172.5 -106.5
t96.5 -162.5t31.5 -212h-348q0 237 -199 237q-97 0 -142.5 -47t-45.5 -123q0 -26 4.5 -50t15 -49.5t18.5 -41.5t24.5 -46t23.5 -42h293v-217h-254q-19 -119 -131 -234l2 -4q84 41 159 41q68 0 153 -34t151 -34q65 0 110.5 19.5t89.5 56.5l129 -256q-79 -66 -151 -96.5
t-172 -30.5z" />
    <glyph glyph-name="currency" unicode="&#xa4;" horiz-adv-x="1126" vert-adv-y="2457" 
d="M565 297q-112 0 -200 45l-123 -123l-174 174l122 123q-43 94 -43 199q0 104 43 198l-122 123l174 174l123 -123q90 46 200 46q114 0 199 -43l121 120l174 -174l-121 -121q43 -87 43 -200q0 -111 -45 -199l123 -123l-174 -174l-121 121q-94 -43 -199 -43zM393 715
q0 -106 41.5 -170t130.5 -64q87 0 128.5 64t41.5 170t-41.5 169.5t-128.5 63.5q-89 0 -130.5 -63.5t-41.5 -169.5z" />
    <glyph glyph-name="yen" unicode="&#xa5;" horiz-adv-x="1376" vert-adv-y="2457" 
d="M514 0v233h-338v138h338v118h-338v138h291l-434 778h389l264 -555h4l264 555h389l-434 -778h291v-138h-338v-118h338v-138h-338v-233h-348z" />
    <glyph glyph-name="brokenbar" unicode="&#xa6;" horiz-adv-x="471" vert-adv-y="2457" 
d="M123 -283v785h225v-785h-225zM123 786v758h225v-758h-225z" />
    <glyph glyph-name="section" unicode="&#xa7;" horiz-adv-x="1341" vert-adv-y="2457" 
d="M678 -362q-229 0 -351 112.5t-130 298.5h327q7 -92 42 -139t116 -47q65 0 99 28t34 76q0 19 -6 36t-14 30.5t-25 27.5t-30 23.5t-38.5 23.5t-41 21.5t-46.5 22t-47 22.5l-133 66q-162 80 -220 122q-120 87 -135 210q-3 21 -3 44q0 97 55 170t158 111q-90 100 -90 233
q0 164 120.5 261.5t344.5 97.5q229 0 351 -113t130 -299h-328q-7 92 -42 139.5t-116 47.5q-65 0 -99 -28.5t-34 -76.5q0 -19 6 -36t14 -30.5t25 -27.5t30 -23.5t38.5 -23.5t41 -21.5t46.5 -22t47 -22.5l133 -65q162 -80 221 -123q121 -88 136 -213q2 -20 2 -41
q0 -97 -55 -170t-158 -111q90 -100 90 -233q0 -164 -120.5 -261t-344.5 -97zM401 651q0 -48 42.5 -80t166.5 -92l138 -65q27 -12 79 -39q54 4 83.5 30.5t29.5 69.5q0 48 -42.5 80t-166.5 92l-137 66q-34 15 -80 39q-54 -4 -83.5 -31t-29.5 -70z" />
    <glyph glyph-name="dieresis" unicode="&#xa8;" horiz-adv-x="946" vert-adv-y="2457" 
d="M96 1174v290h328v-290h-328zM522 1174v290h328v-290h-328z" />
    <glyph glyph-name="copyright" unicode="&#xa9;" horiz-adv-x="1703" vert-adv-y="2457" 
d="M852 -33q-353 0 -559.5 206t-206.5 558q0 353 206.5 559.5t559.5 206.5t559.5 -206.5t206.5 -559.5q0 -352 -206.5 -558t-559.5 -206zM266 731q0 -288 155 -452t431 -164t431 164t155 452t-155 453.5t-431 165.5t-431 -165.5t-155 -453.5zM418 731q0 204 116.5 332.5
t313.5 128.5q183 0 291.5 -97t124.5 -253h-265q-17 147 -145 147q-166 0 -166 -258q0 -256 166 -256q75 0 106.5 40.5t38.5 109.5h265q-9 -157 -114 -255t-286 -98q-203 0 -324.5 127t-121.5 332z" />
    <glyph glyph-name="ordfeminine" unicode="&#xaa;" horiz-adv-x="1001" vert-adv-y="2457" 
d="M328 573q-129 0 -206 68t-77 182q0 64 26 113.5t75 81.5t105.5 52.5t131.5 35.5q14 3 39.5 8t39 8t35.5 7.5t33.5 9t27.5 10.5t24.5 13t17.5 16t12.5 19.5t3.5 23.5q0 69 -110 69q-143 0 -156 -119h-270q8 134 116 221t320 87q189 0 282 -85t93 -282v-315q0 -23 1.5 -33
t10.5 -18.5t29 -8.5l16 2v-143q-83 -18 -147 -18q-85 0 -126 30t-54 90h-3q-46 -55 -122 -90t-168 -35zM338 852q0 -41 29 -61.5t77 -20.5q82 0 127 51.5t45 124.5v64q-64 -30 -147 -47q-131 -27 -131 -111z" />
    <glyph glyph-name="guillemetleft" unicode="&#xab;" horiz-adv-x="985" vert-adv-y="2457" 
d="M893 55l-385 316v321l385 318v-316l-229 -162v-4l229 -166v-307zM78 371v321l385 318v-316l-230 -162v-4l230 -166v-307z" />
    <glyph glyph-name="logicalnot" unicode="&#xac;" horiz-adv-x="1048" vert-adv-y="2457" 
d="M616 274v326h-550v281h878v-607h-328z" />
    <glyph glyph-name="softhyphen" unicode="&#xad;" horiz-adv-x="720" vert-adv-y="2457" 
d="M82 377v280h557v-280h-557z" />
    <glyph glyph-name="registered" unicode="&#xae;" horiz-adv-x="1153" vert-adv-y="2457" 
d="M578 506q-207 0 -349.5 141.5t-142.5 353.5t142.5 354t349.5 142q135 0 247 -64t177 -178t65 -254q0 -212 -141 -353.5t-348 -141.5zM203 1004q0 -184 101 -293t274 -109q172 0 272 109t100 293q0 183 -100 291t-272 108q-173 0 -274 -108.5t-101 -290.5zM362 737v543
h256q90 0 141.5 -41t51.5 -117q0 -53 -29 -87.5t-80 -45.5v-2q46 -8 70.5 -46.5t27.5 -80t6.5 -77.5t12.5 -38v-8h-162q-9 7 -11 39.5t-3 65t-20.5 59.5t-59.5 27h-45v-191h-156zM518 1042h53q84 0 84 64q0 63 -84 63h-53v-127z" />
    <glyph glyph-name="macron" unicode="&#xaf;" horiz-adv-x="749" vert-adv-y="2457" 
d="M82 1174v204h586v-204h-586z" />
    <glyph glyph-name="degree" unicode="&#xb0;" horiz-adv-x="798" vert-adv-y="2457" 
d="M399 868q-144 0 -231.5 92.5t-87.5 223.5t87 222t232 91q143 0 231.5 -91.5t88.5 -221.5q0 -131 -88.5 -223.5t-231.5 -92.5zM264 1184q0 -76 40.5 -114t94.5 -38t95 38.5t41 113.5t-41 112t-95 37t-94.5 -37t-40.5 -112z" />
    <glyph glyph-name="plusminus" unicode="&#xb1;" horiz-adv-x="1175" vert-adv-y="2457" 
d="M90 4v283h356v303h-356v282h356v371h283v-371h356v-282h-356v-303h356v-283h-995z" />
    <glyph glyph-name="twosuperior" unicode="&#xb2;" horiz-adv-x="768" vert-adv-y="2457" 
d="M41 745q0 45 2.5 75t14 60t23.5 49t42.5 48t58 51t82.5 64q9 6 36.5 26.5t39 29.5t34.5 28.5t34 33.5t24.5 33t19 39t5.5 41q0 39 -19.5 58.5t-54.5 19.5q-46 0 -71 -29t-25 -108h-238q0 162 84.5 248.5t257.5 86.5q146 0 231 -68.5t85 -189.5q0 -47 -14.5 -91.5
t-31.5 -73.5t-51.5 -65t-52 -51t-55.5 -46q-63 -51 -76 -68v-2h285v-199h-670z" />
    <glyph glyph-name="threesuperior" unicode="&#xb3;" horiz-adv-x="786" vert-adv-y="2457" 
d="M399 737q-175 0 -269.5 83.5t-94.5 238.5h237q0 -66 26 -95.5t91 -29.5q96 0 96 82q0 44 -31.5 64t-103.5 20h-28v164h24q117 0 117 82q0 33 -21.5 50t-54.5 17q-41 0 -66.5 -20t-25.5 -62h-236q0 124 92 202.5t246 78.5q137 0 228.5 -62.5t91.5 -169.5q0 -112 -117 -182
v-2q139 -47 139 -197q0 -127 -91 -194.5t-249 -67.5z" />
    <glyph glyph-name="acute" unicode="&#xb4;" horiz-adv-x="620" vert-adv-y="2457" 
d="M82 1174l108 311h369l-231 -311h-246z" />
    <glyph glyph-name="micro" unicode="&#xb5;" horiz-adv-x="1241" vert-adv-y="2457" 
d="M113 -362v1411h327v-605q0 -115 39.5 -163t124.5 -48q197 0 197 209v607h327v-1049h-327v152h-4q-41 -84 -112.5 -128t-149.5 -44q-54 0 -95 20v-362h-327z" />
    <glyph glyph-name="paragraph" unicode="&#xb6;" horiz-adv-x="1234" vert-adv-y="2457" 
d="M547 0v686h-86q-207 0 -317.5 99t-110.5 284q0 186 111.5 290.5t316.5 104.5h641v-1464h-205v1280h-145v-1280h-205z" />
    <glyph glyph-name="periodcentered" unicode="&#xb7;" horiz-adv-x="495" vert-adv-y="2457" 
d="M92 356v312h311v-312h-311z" />
    <glyph glyph-name="cedilla" unicode="&#xb8;" horiz-adv-x="661" vert-adv-y="2457" 
d="M334 -406q-131 0 -230 68l62 72q67 -31 129 -31q41 0 67.5 14.5t26.5 44.5q0 56 -70 56q-32 0 -75 -15l-49 70l120 127h148l-80 -98v-4q89 10 154 -26.5t65 -111.5q0 -77 -77 -121.5t-191 -44.5z" />
    <glyph glyph-name="onesuperior" unicode="&#xb9;" horiz-adv-x="546" vert-adv-y="2457" 
d="M203 1264q-43 -19 -176 -19v189q93 0 157.5 39t63.5 104h217v-832h-262v519z" />
    <glyph glyph-name="ordmasculine" unicode="&#xba;" horiz-adv-x="1028" vert-adv-y="2457" 
d="M512 573q-217 0 -345 125t-128 328q0 202 128.5 327.5t348.5 125.5q217 0 345 -124t128 -325q0 -204 -128.5 -330.5t-348.5 -126.5zM334 1028q0 -119 46.5 -180.5t133.5 -61.5t133.5 61.5t46.5 180.5q0 116 -47 177t-133 61q-87 0 -133.5 -61.5t-46.5 -176.5z" />
    <glyph glyph-name="guillemetright" unicode="&#xbb;" horiz-adv-x="985" vert-adv-y="2457" 
d="M522 55v316l230 161v5l-230 165v308l385 -316v-321zM92 55v316l230 161v5l-230 165v308l385 -316v-321z" />
    <glyph glyph-name="onequarter" unicode="&#xbc;" horiz-adv-x="1685" vert-adv-y="2457" 
d="M203 1151q-41 -18 -176 -18v188q93 0 157.5 39t63.5 104h217v-831h-262v518zM186 0l928 1464h287l-928 -1464h-287zM920 166v246l366 419h248v-469h123v-196h-123v-166h-248v166h-366zM1094 362h192v211z" />
    <glyph glyph-name="onehalf" unicode="&#xbd;" horiz-adv-x="1789" vert-adv-y="2457" 
d="M201 1151q-41 -18 -176 -18v188q93 0 157.5 39t63.5 104h217v-831h-262v518zM201 0l927 1464h287l-928 -1464h-286zM1067 0q0 45 2.5 75t14.5 60t23.5 48.5t42 48t57.5 51t83 63.5q7 5 36 26.5t40 30t34.5 28.5t34 33.5t24 33t19 39.5t5.5 41q0 77 -74 77q-46 0 -71 -29
t-25 -108h-238q0 162 84.5 249t257.5 87q146 0 231 -68.5t85 -189.5q0 -47 -14.5 -91.5t-31.5 -74t-51 -65t-52 -51t-56 -46.5q-65 -53 -76 -67v-2h285v-199h-670z" />
    <glyph glyph-name="threequarters" unicode="&#xbe;" horiz-adv-x="1884" vert-adv-y="2457" 
d="M420 612q-175 0 -270 83.5t-95 238.5h238q0 -66 26 -95.5t91 -29.5q96 0 96 82q0 44 -31.5 64t-103.5 20h-29v164h25q116 0 116 82q0 33 -21 50t-54 17q-41 0 -67 -20t-26 -62h-235q0 124 92 202.5t246 78.5q137 0 228 -62.5t91 -169.5q0 -112 -116 -182v-2
q139 -47 139 -197q0 -127 -91 -194.5t-249 -67.5zM379 0l928 1464h286l-927 -1464h-287zM1108 166v246l367 419h247v-469h123v-196h-123v-166h-247v166h-367zM1282 362h193v211z" />
    <glyph glyph-name="questiondown" unicode="&#xbf;" horiz-adv-x="1105" vert-adv-y="2457" 
d="M524 -295q-215 0 -352 110t-137 287q0 119 55.5 200t167.5 144q115 64 156 117t41 160h270q0 -69 -1.5 -110t-10.5 -81t-19 -62t-35 -50.5t-51.5 -49.5t-75.5 -57q-90 -65 -119.5 -102.5t-29.5 -99.5q0 -54 36 -89.5t116 -35.5q192 0 192 237h348q0 -109 -35 -202
t-101.5 -164t-173 -111.5t-241.5 -40.5zM432 891v311h311v-311h-311z" />
    <glyph glyph-name="Agrave" unicode="&#xc0;" horiz-adv-x="1466" vert-adv-y="2457" 
d="M-10 0l557 1464h371l561 -1464h-404l-94 305h-502l-94 -305h-395zM414 1905h327l109 -312h-246zM563 586h336l-166 540h-4z" />
    <glyph glyph-name="Aacute" unicode="&#xc1;" horiz-adv-x="1466" vert-adv-y="2457" 
d="M-10 0l557 1464h371l561 -1464h-404l-94 305h-502l-94 -305h-395zM563 586h336l-166 540h-4zM608 1589l109 312h368l-231 -312h-246z" />
    <glyph glyph-name="Acircumflex" unicode="&#xc2;" horiz-adv-x="1466" vert-adv-y="2457" 
d="M-10 0l557 1464h371l561 -1464h-404l-94 305h-502l-94 -305h-395zM352 1589l219 312h320l219 -312h-285l-92 166h-4l-92 -166h-285zM563 586h336l-166 540h-4z" />
    <glyph glyph-name="Atilde" unicode="&#xc3;" horiz-adv-x="1466" vert-adv-y="2457" 
d="M-10 0l557 1464h371l561 -1464h-404l-94 305h-502l-94 -305h-395zM365 1559q0 301 182 301q59 0 150 -41t128 -41q72 0 72 82h176q0 -301 -182 -301q-59 0 -151 39.5t-128 39.5q-69 0 -69 -79h-178zM563 586h336l-166 540h-4z" />
    <glyph glyph-name="Adieresis" unicode="&#xc4;" horiz-adv-x="1466" vert-adv-y="2457" 
d="M-10 0l557 1464h371l561 -1464h-404l-94 305h-502l-94 -305h-395zM354 1589v291h328v-291h-328zM563 586h336l-166 540h-4zM780 1589v291h328v-291h-328z" />
    <glyph glyph-name="Aring" unicode="&#xc5;" horiz-adv-x="1466" vert-adv-y="2457" 
d="M-10 0l557 1464h371l561 -1464h-404l-94 305h-502l-94 -305h-395zM506 1741q0 98 65.5 159.5t159.5 61.5q95 0 160 -61t65 -160q0 -100 -65 -160.5t-160 -60.5q-94 0 -159.5 60.5t-65.5 160.5zM563 586h336l-166 540h-4zM645 1741q0 -44 24 -69t62 -25q42 0 65 24.5
t23 69.5t-23 69.5t-65 24.5q-38 0 -62 -25t-24 -69z" />
    <glyph glyph-name="AE" unicode="&#xc6;" horiz-adv-x="2066" vert-adv-y="2457" 
d="M-12 -4l553 1468h1444v-301h-742v-260h639v-301h-639v-301h754v-301h-1123v301h-423l-95 -305h-368zM535 582h337v581h-149z" />
    <glyph glyph-name="Ccedilla" unicode="&#xc7;" horiz-adv-x="1464" vert-adv-y="2457" 
d="M741 -406q-130 0 -229 68l61 72q67 -31 129 -31q41 0 68 14.5t27 44.5q0 56 -70 56q-33 0 -76 -15l-49 70l92 96q-205 15 -349.5 118t-214 266.5t-69.5 373.5q0 169 46.5 310t135 243.5t224 159.5t305.5 57q147 0 264 -42t196.5 -119t126.5 -182t60 -234h-377
q-11 64 -29 111t-50.5 86t-84 59t-122.5 20q-89 0 -152 -33t-98.5 -96.5t-51.5 -145t-16 -188.5q0 -108 15.5 -190t51.5 -145.5t99 -96.5t152 -33q72 0 124 20t84 59.5t50 87.5t28 114h377q-24 -242 -171 -398t-400 -180l-57 -69v-4q89 10 154 -26.5t65 -111.5
q0 -77 -77.5 -121.5t-191.5 -44.5z" />
    <glyph glyph-name="Egrave" unicode="&#xc8;" horiz-adv-x="1314" vert-adv-y="2457" 
d="M123 0v1464h1110v-301h-741v-260h638v-301h-638v-301h753v-301h-1122zM367 1905h327l109 -312h-246z" />
    <glyph glyph-name="Eacute" unicode="&#xc9;" horiz-adv-x="1314" vert-adv-y="2457" 
d="M123 0v1464h1110v-301h-741v-260h638v-301h-638v-301h753v-301h-1122zM561 1589l109 312h368l-231 -312h-246z" />
    <glyph glyph-name="Ecircumflex" unicode="&#xca;" horiz-adv-x="1314" vert-adv-y="2457" 
d="M123 0v1464h1110v-301h-741v-260h638v-301h-638v-301h753v-301h-1122zM305 1589l219 312h320l219 -312h-285l-92 166h-4l-92 -166h-285z" />
    <glyph glyph-name="Edieresis" unicode="&#xcb;" horiz-adv-x="1314" vert-adv-y="2457" 
d="M123 0v1464h1110v-301h-741v-260h638v-301h-638v-301h753v-301h-1122zM307 1589v291h328v-291h-328zM733 1589v291h328v-291h-328z" />
    <glyph glyph-name="Igrave" unicode="&#xcc;" horiz-adv-x="614" vert-adv-y="2457" 
d="M123 0v1464h369v-1464h-369zM-10 1905h327l109 -312h-246z" />
    <glyph glyph-name="Iacute" unicode="&#xcd;" horiz-adv-x="614" vert-adv-y="2457" 
d="M123 0v1464h369v-1464h-369zM184 1589l109 312h369l-232 -312h-246z" />
    <glyph glyph-name="Icircumflex" unicode="&#xce;" horiz-adv-x="614" vert-adv-y="2457" 
d="M123 0v1464h369v-1464h-369zM-72 1589l219 312h320l219 -312h-285l-92 166h-4l-92 -166h-285z" />
    <glyph glyph-name="Idieresis" unicode="&#xcf;" horiz-adv-x="614" vert-adv-y="2457" 
d="M123 0v1464h369v-1464h-369zM-70 1589v291h328v-291h-328zM356 1589v291h328v-291h-328z" />
    <glyph glyph-name="Eth" unicode="&#xd0;" horiz-adv-x="1513" vert-adv-y="2457" 
d="M145 0v666h-118v184h118v614h650q308 0 480.5 -191t172.5 -542q0 -353 -163.5 -542t-469.5 -189h-670zM514 301h236q321 0 321 430q0 432 -321 432h-236v-313h287v-184h-287v-365z" />
    <glyph glyph-name="Ntilde" unicode="&#xd1;" horiz-adv-x="1499" vert-adv-y="2457" 
d="M123 0v1464h369l512 -870h4v870h368v-1464h-368l-512 870h-4v-870h-369zM383 1559q0 301 182 301q59 0 150.5 -41t128.5 -41q71 0 71 82h177q0 -301 -183 -301q-59 0 -150.5 39.5t-127.5 39.5q-70 0 -70 -79h-178z" />
    <glyph glyph-name="Ograve" unicode="&#xd2;" horiz-adv-x="1572" vert-adv-y="2457" 
d="M786 -33q-171 0 -309 57.5t-228.5 160t-139 242.5t-48.5 306q0 222 83 393t249 271t393 100q225 0 391 -99.5t250 -271.5t84 -393q0 -166 -49 -306.5t-140 -242.5t-228.5 -159.5t-307.5 -57.5zM438 733q0 -465 348 -465q97 0 166.5 36t108.5 101.5t56.5 146t17.5 181.5
q0 100 -17.5 180t-56.5 145.5t-108.5 101.5t-166.5 36q-348 0 -348 -463zM469 1905h328l108 -312h-246z" />
    <glyph glyph-name="Oacute" unicode="&#xd3;" horiz-adv-x="1572" vert-adv-y="2457" 
d="M786 -33q-171 0 -309 57.5t-228.5 160t-139 242.5t-48.5 306q0 222 83 393t249 271t393 100q225 0 391 -99.5t250 -271.5t84 -393q0 -166 -49 -306.5t-140 -242.5t-228.5 -159.5t-307.5 -57.5zM438 733q0 -465 348 -465q97 0 166.5 36t108.5 101.5t56.5 146t17.5 181.5
q0 100 -17.5 180t-56.5 145.5t-108.5 101.5t-166.5 36q-348 0 -348 -463zM664 1589l108 312h369l-232 -312h-245z" />
    <glyph glyph-name="Ocircumflex" unicode="&#xd4;" horiz-adv-x="1572" vert-adv-y="2457" 
d="M786 -33q-171 0 -309 57.5t-228.5 160t-139 242.5t-48.5 306q0 222 83 393t249 271t393 100q225 0 391 -99.5t250 -271.5t84 -393q0 -166 -49 -306.5t-140 -242.5t-228.5 -159.5t-307.5 -57.5zM408 1589l219 312h319l219 -312h-284l-93 166h-4l-92 -166h-284zM438 733
q0 -465 348 -465q97 0 166.5 36t108.5 101.5t56.5 146t17.5 181.5q0 100 -17.5 180t-56.5 145.5t-108.5 101.5t-166.5 36q-348 0 -348 -463z" />
    <glyph glyph-name="Otilde" unicode="&#xd5;" horiz-adv-x="1572" vert-adv-y="2457" 
d="M786 -33q-171 0 -309 57.5t-228.5 160t-139 242.5t-48.5 306q0 222 83 393t249 271t393 100q225 0 391 -99.5t250 -271.5t84 -393q0 -166 -49 -306.5t-140 -242.5t-228.5 -159.5t-307.5 -57.5zM420 1559q0 301 182 301q59 0 150.5 -41t128.5 -41q71 0 71 82h176
q0 -301 -182 -301q-59 0 -150.5 39.5t-127.5 39.5q-70 0 -70 -79h-178zM438 733q0 -465 348 -465q97 0 166.5 36t108.5 101.5t56.5 146t17.5 181.5q0 100 -17.5 180t-56.5 145.5t-108.5 101.5t-166.5 36q-348 0 -348 -463z" />
    <glyph glyph-name="Odieresis" unicode="&#xd6;" horiz-adv-x="1572" vert-adv-y="2457" 
d="M786 -33q-171 0 -309 57.5t-228.5 160t-139 242.5t-48.5 306q0 222 83 393t249 271t393 100q225 0 391 -99.5t250 -271.5t84 -393q0 -166 -49 -306.5t-140 -242.5t-228.5 -159.5t-307.5 -57.5zM410 1589v291h327v-291h-327zM438 733q0 -465 348 -465q97 0 166.5 36
t108.5 101.5t56.5 146t17.5 181.5q0 100 -17.5 180t-56.5 145.5t-108.5 101.5t-166.5 36q-348 0 -348 -463zM836 1589v291h327v-291h-327z" />
    <glyph glyph-name="multiply" unicode="&#xd7;" horiz-adv-x="1175" vert-adv-y="2457" 
d="M293 180l-199 199l295 295l-295 293l199 198l295 -295l295 295l198 -198l-295 -293l295 -295l-198 -199l-295 295z" />
    <glyph glyph-name="Oslash" unicode="&#xd8;" horiz-adv-x="1579" vert-adv-y="2457" 
d="M147 2l-86 88l148 150q-143 196 -143 493q0 222 83 393t249 271t393 100q304 0 495 -178l146 145l88 -86l-152 -151q148 -202 148 -494q0 -166 -49 -306.5t-140 -242.5t-228.5 -159.5t-307.5 -57.5q-309 0 -500 178zM442 733q0 -132 29 -231l578 579q-85 115 -258 115
q-349 0 -349 -463zM528 385q89 -117 263 -117q348 0 348 465q0 140 -31 232z" />
    <glyph glyph-name="Ugrave" unicode="&#xd9;" horiz-adv-x="1445" vert-adv-y="2457" 
d="M723 -33q-323 0 -467.5 139.5t-144.5 421.5v936h368v-936q0 -139 59.5 -199.5t184.5 -60.5t184.5 60.5t59.5 199.5v936h368v-936q0 -282 -144.5 -421.5t-467.5 -139.5zM406 1905h327l109 -312h-246z" />
    <glyph glyph-name="Uacute" unicode="&#xda;" horiz-adv-x="1445" vert-adv-y="2457" 
d="M723 -33q-323 0 -467.5 139.5t-144.5 421.5v936h368v-936q0 -139 59.5 -199.5t184.5 -60.5t184.5 60.5t59.5 199.5v936h368v-936q0 -282 -144.5 -421.5t-467.5 -139.5zM600 1589l109 312h368l-231 -312h-246z" />
    <glyph glyph-name="Ucircumflex" unicode="&#xdb;" horiz-adv-x="1445" vert-adv-y="2457" 
d="M723 -33q-323 0 -467.5 139.5t-144.5 421.5v936h368v-936q0 -139 59.5 -199.5t184.5 -60.5t184.5 60.5t59.5 199.5v936h368v-936q0 -282 -144.5 -421.5t-467.5 -139.5zM344 1589l219 312h320l219 -312h-285l-92 166h-4l-92 -166h-285z" />
    <glyph glyph-name="Udieresis" unicode="&#xdc;" horiz-adv-x="1445" vert-adv-y="2457" 
d="M723 -33q-323 0 -467.5 139.5t-144.5 421.5v936h368v-936q0 -139 59.5 -199.5t184.5 -60.5t184.5 60.5t59.5 199.5v936h368v-936q0 -282 -144.5 -421.5t-467.5 -139.5zM346 1589v291h328v-291h-328zM772 1589v291h328v-291h-328z" />
    <glyph glyph-name="Yacute" unicode="&#xdd;" horiz-adv-x="1366" vert-adv-y="2457" 
d="M500 0v541l-500 923h397l285 -622h4l287 622h389l-494 -923v-541h-368zM563 1589l109 312h368l-231 -312h-246z" />
    <glyph glyph-name="Thorn" unicode="&#xde;" horiz-adv-x="1361" vert-adv-y="2457" 
d="M123 0v1464h369v-204h342q233 0 364 -120t131 -347t-131 -347t-364 -120h-342v-326h-369zM492 627h264q100 0 152.5 38.5t52.5 127.5q0 88 -52.5 126.5t-152.5 38.5h-264v-331z" />
    <glyph glyph-name="germandbls" unicode="&#xdf;" horiz-adv-x="1200" vert-adv-y="2457" 
d="M709 -33q-99 0 -189 33v246q62 -10 103 -10q198 0 198 215q0 251 -250 251h-51v205h43q83 0 129.5 47.5t46.5 132.5q0 77 -39.5 120.5t-115.5 43.5q-80 0 -123 -58t-43 -200v-993h-328v977q0 257 127.5 388.5t376.5 131.5q99 0 180 -21.5t136.5 -58t93 -86.5t54.5 -106.5
t17 -118.5q0 -110 -51.5 -185t-132.5 -110v-4q128 -40 197 -150t69 -258q0 -136 -61 -235.5t-161 -148t-226 -48.5z" />
    <glyph glyph-name="agrave" unicode="&#xe0;" horiz-adv-x="1155" vert-adv-y="2457" 
d="M381 -33q-153 0 -243.5 83.5t-90.5 223.5q0 79 30.5 139t88 100t125 65.5t158.5 44.5q15 3 50.5 10t55 11.5t50.5 13t48.5 18t36 22.5t27 30.5t8.5 39.5q0 44 -35 69t-104 25q-90 0 -134.5 -37t-52.5 -114h-311q4 78 35 143.5t91 117.5t158.5 81.5t227.5 29.5
q222 0 332 -101t110 -335v-405q0 -44 7.5 -62t31.5 -18q15 0 27 2v-156q-99 -18 -180 -18q-94 0 -139 34t-58 103h-4q-59 -73 -148 -116.5t-198 -43.5zM266 1489h328l108 -311h-245zM383 309q0 -116 135 -116q94 0 150.5 68t56.5 163v88q-55 -20 -178 -49
q-88 -21 -126 -58.5t-38 -95.5z" />
    <glyph glyph-name="aacute" unicode="&#xe1;" horiz-adv-x="1155" vert-adv-y="2457" 
d="M381 -33q-153 0 -243.5 83.5t-90.5 223.5q0 79 30.5 139t88 100t125 65.5t158.5 44.5q15 3 50.5 10t55 11.5t50.5 13t48.5 18t36 22.5t27 30.5t8.5 39.5q0 44 -35 69t-104 25q-90 0 -134.5 -37t-52.5 -114h-311q4 78 35 143.5t91 117.5t158.5 81.5t227.5 29.5
q222 0 332 -101t110 -335v-405q0 -44 7.5 -62t31.5 -18q15 0 27 2v-156q-99 -18 -180 -18q-94 0 -139 34t-58 103h-4q-59 -73 -148 -116.5t-198 -43.5zM383 309q0 -116 135 -116q94 0 150.5 68t56.5 163v88q-55 -20 -178 -49q-88 -21 -126 -58.5t-38 -95.5zM461 1174
l108 311h369l-231 -311h-246z" />
    <glyph glyph-name="acircumflex" unicode="&#xe2;" horiz-adv-x="1155" vert-adv-y="2457" 
d="M381 -33q-153 0 -243.5 83.5t-90.5 223.5q0 79 30.5 139t88 100t125 65.5t158.5 44.5q15 3 50.5 10t55 11.5t50.5 13t48.5 18t36 22.5t27 30.5t8.5 39.5q0 44 -35 69t-104 25q-90 0 -134.5 -37t-52.5 -114h-311q4 78 35 143.5t91 117.5t158.5 81.5t227.5 29.5
q222 0 332 -101t110 -335v-405q0 -44 7.5 -62t31.5 -18q15 0 27 2v-156q-99 -18 -180 -18q-94 0 -139 34t-58 103h-4q-59 -73 -148 -116.5t-198 -43.5zM205 1174l219 311h319l220 -311h-285l-92 165h-4l-93 -165h-284zM383 309q0 -116 135 -116q94 0 150.5 68t56.5 163v88
q-55 -20 -178 -49q-88 -21 -126 -58.5t-38 -95.5z" />
    <glyph glyph-name="atilde" unicode="&#xe3;" horiz-adv-x="1155" vert-adv-y="2457" 
d="M381 -33q-153 0 -243.5 83.5t-90.5 223.5q0 79 30.5 139t88 100t125 65.5t158.5 44.5q15 3 50.5 10t55 11.5t50.5 13t48.5 18t36 22.5t27 30.5t8.5 39.5q0 44 -35 69t-104 25q-90 0 -134.5 -37t-52.5 -114h-311q4 78 35 143.5t91 117.5t158.5 81.5t227.5 29.5
q222 0 332 -101t110 -335v-405q0 -44 7.5 -62t31.5 -18q15 0 27 2v-156q-99 -18 -180 -18q-94 0 -139 34t-58 103h-4q-59 -73 -148 -116.5t-198 -43.5zM217 1143q0 301 182 301q59 0 150.5 -41t128.5 -41q72 0 72 82h176q0 -301 -183 -301q-59 0 -150.5 40t-127.5 40
q-70 0 -70 -80h-178zM383 309q0 -116 135 -116q94 0 150.5 68t56.5 163v88q-55 -20 -178 -49q-88 -21 -126 -58.5t-38 -95.5z" />
    <glyph glyph-name="adieresis" unicode="&#xe4;" horiz-adv-x="1155" vert-adv-y="2457" 
d="M381 -33q-153 0 -243.5 83.5t-90.5 223.5q0 79 30.5 139t88 100t125 65.5t158.5 44.5q15 3 50.5 10t55 11.5t50.5 13t48.5 18t36 22.5t27 30.5t8.5 39.5q0 44 -35 69t-104 25q-90 0 -134.5 -37t-52.5 -114h-311q4 78 35 143.5t91 117.5t158.5 81.5t227.5 29.5
q222 0 332 -101t110 -335v-405q0 -44 7.5 -62t31.5 -18q15 0 27 2v-156q-99 -18 -180 -18q-94 0 -139 34t-58 103h-4q-59 -73 -148 -116.5t-198 -43.5zM207 1174v290h328v-290h-328zM383 309q0 -116 135 -116q94 0 150.5 68t56.5 163v88q-55 -20 -178 -49
q-88 -21 -126 -58.5t-38 -95.5zM633 1174v290h328v-290h-328z" />
    <glyph glyph-name="aring" unicode="&#xe5;" horiz-adv-x="1155" vert-adv-y="2457" 
d="M381 -33q-153 0 -243.5 83.5t-90.5 223.5q0 79 30.5 139t88 100t125 65.5t158.5 44.5q15 3 50.5 10t55 11.5t50.5 13t48.5 18t36 22.5t27 30.5t8.5 39.5q0 44 -35 69t-104 25q-90 0 -134.5 -37t-52.5 -114h-311q4 78 35 143.5t91 117.5t158.5 81.5t227.5 29.5
q222 0 332 -101t110 -335v-405q0 -44 7.5 -62t31.5 -18q15 0 27 2v-156q-99 -18 -180 -18q-94 0 -139 34t-58 103h-4q-59 -73 -148 -116.5t-198 -43.5zM358 1325q0 98 66 159.5t160 61.5q95 0 160 -61t65 -160q0 -100 -65 -160.5t-160 -60.5q-94 0 -160 60.5t-66 160.5z
M383 309q0 -116 135 -116q94 0 150.5 68t56.5 163v88q-55 -20 -178 -49q-88 -21 -126 -58.5t-38 -95.5zM498 1325q0 -44 24 -69t62 -25q42 0 65 24.5t23 69.5t-23 69.5t-65 24.5q-38 0 -62 -25t-24 -69z" />
    <glyph glyph-name="ae" unicode="&#xe6;" horiz-adv-x="1841" vert-adv-y="2457" 
d="M432 -33q-190 0 -287.5 83.5t-97.5 223.5q0 79 30.5 139t88 100t125 65.5t158.5 44.5q15 3 50.5 10t55 11.5t50.5 13t48.5 18t36 22.5t27 30.5t8.5 39.5q0 44 -35 69t-104 25q-90 0 -134.5 -37t-52.5 -114h-311q4 78 35.5 144t90.5 117.5t153.5 81t216.5 29.5
q229 0 344 -98q138 98 329 98q265 0 401 -153t136 -445v-49h-754q0 -105 65 -165t161 -60q146 0 186 106h334q-46 -165 -180 -258.5t-349 -93.5q-268 0 -417 176q-83 -94 -182 -134t-226 -40zM383 315q0 -122 131 -122q95 0 148 62.5t53 154.5v59q0 6 -1 20t-1 21
q-64 -25 -166 -47q-164 -37 -164 -148zM1042 639h422q0 100 -55 153.5t-152 53.5q-95 0 -152 -53.5t-63 -153.5z" />
    <glyph glyph-name="ccedilla" unicode="&#xe7;" horiz-adv-x="1124" vert-adv-y="2457" 
d="M547 -406q-131 0 -230 68l62 72q67 -31 129 -31q41 0 67.5 14.5t26.5 44.5q0 56 -70 56q-32 0 -75 -15l-49 70l92 98q-210 26 -332.5 176.5t-122.5 376.5q0 247 146 403t387 156q221 0 357 -118t157 -308h-330q-21 181 -178 181q-100 0 -151.5 -82t-51.5 -232t51 -231.5
t152 -81.5q159 0 178 184h330q-11 -176 -129.5 -292.5t-313.5 -135.5l-53 -65v-4q89 10 154 -26.5t65 -111.5q0 -77 -77 -121.5t-191 -44.5z" />
    <glyph glyph-name="egrave" unicode="&#xe8;" horiz-adv-x="1173" vert-adv-y="2457" 
d="M590 -35q-251 0 -398 154.5t-147 404.5q0 116 36 217t103.5 177.5t172 120.5t233.5 44q265 0 400.5 -153t135.5 -445v-49h-753q0 -105 64.5 -165t160.5 -60q146 0 186 106h334q-46 -165 -179.5 -258.5t-348.5 -93.5zM268 1489h328l109 -311h-246zM375 639h422
q0 100 -55 153.5t-152 53.5q-95 0 -152 -53.5t-63 -153.5z" />
    <glyph glyph-name="eacute" unicode="&#xe9;" horiz-adv-x="1173" vert-adv-y="2457" 
d="M590 -35q-251 0 -398 154.5t-147 404.5q0 116 36 217t103.5 177.5t172 120.5t233.5 44q265 0 400.5 -153t135.5 -445v-49h-753q0 -105 64.5 -165t160.5 -60q146 0 186 106h334q-46 -165 -179.5 -258.5t-348.5 -93.5zM375 639h422q0 100 -55 153.5t-152 53.5
q-95 0 -152 -53.5t-63 -153.5zM463 1174l108 311h369l-231 -311h-246z" />
    <glyph glyph-name="ecircumflex" unicode="&#xea;" horiz-adv-x="1173" vert-adv-y="2457" 
d="M590 -35q-251 0 -398 154.5t-147 404.5q0 116 36 217t103.5 177.5t172 120.5t233.5 44q265 0 400.5 -153t135.5 -445v-49h-753q0 -105 64.5 -165t160.5 -60q146 0 186 106h334q-46 -165 -179.5 -258.5t-348.5 -93.5zM207 1174l219 311h319l220 -311h-285l-92 165h-4
l-92 -165h-285zM375 639h422q0 100 -55 153.5t-152 53.5q-95 0 -152 -53.5t-63 -153.5z" />
    <glyph glyph-name="edieresis" unicode="&#xeb;" horiz-adv-x="1173" vert-adv-y="2457" 
d="M590 -35q-251 0 -398 154.5t-147 404.5q0 116 36 217t103.5 177.5t172 120.5t233.5 44q265 0 400.5 -153t135.5 -445v-49h-753q0 -105 64.5 -165t160.5 -60q146 0 186 106h334q-46 -165 -179.5 -258.5t-348.5 -93.5zM209 1174v290h328v-290h-328zM375 639h422
q0 100 -55 153.5t-152 53.5q-95 0 -152 -53.5t-63 -153.5zM635 1174v290h328v-290h-328z" />
    <glyph glyph-name="igrave" unicode="&#xec;" horiz-adv-x="507" vert-adv-y="2457" 
d="M90 0v1049h328v-1049h-328zM-63 1489h327l109 -311h-246z" />
    <glyph glyph-name="iacute" unicode="&#xed;" horiz-adv-x="507" vert-adv-y="2457" 
d="M90 0v1049h328v-1049h-328zM131 1174l109 311h368l-231 -311h-246z" />
    <glyph glyph-name="icircumflex" unicode="&#xee;" horiz-adv-x="507" vert-adv-y="2457" 
d="M90 0v1049h328v-1049h-328zM-125 1174l219 311h320l219 -311h-285l-92 165h-4l-92 -165h-285z" />
    <glyph glyph-name="idieresis" unicode="&#xef;" horiz-adv-x="507" vert-adv-y="2457" 
d="M90 0v1049h328v-1049h-328zM-123 1174v290h328v-290h-328zM303 1174v290h328v-290h-328z" />
    <glyph glyph-name="eth" unicode="&#xf0;" horiz-adv-x="1214" vert-adv-y="2457" 
d="M592 -33q-259 0 -403 151.5t-144 407.5q0 128 38 234t102.5 175.5t149 107.5t179.5 38q161 0 256 -88q-37 120 -133 224l-266 -72l-33 119l190 51q-119 88 -233 149h410q51 -25 108 -73l215 57l33 -119l-143 -39q107 -118 174 -281t67 -362q0 -108 -18.5 -204.5
t-61.5 -185t-107 -152t-161.5 -101t-218.5 -37.5zM373 526q0 -145 58.5 -221t160.5 -76t160.5 76t58.5 221t-58.5 220t-160.5 75t-160.5 -75t-58.5 -220z" />
    <glyph glyph-name="ntilde" unicode="&#xf1;" horiz-adv-x="1189" vert-adv-y="2457" 
d="M778 604q0 115 -39.5 163t-124.5 48q-196 0 -196 -209v-606h-328v1049h328v-152h4q105 184 344 184q155 0 247.5 -97.5t92.5 -274.5v-709h-328v604zM293 1143q0 301 182 301q59 0 150.5 -41t128.5 -41q71 0 71 82h176q0 -301 -182 -301q-59 0 -150.5 40t-127.5 40
q-70 0 -70 -80h-178z" />
    <glyph glyph-name="ograve" unicode="&#xf2;" horiz-adv-x="1210" vert-adv-y="2457" 
d="M602 -35q-257 0 -407 152.5t-150 404.5q0 251 151.5 406t411.5 155q257 0 407 -152.5t150 -402.5q0 -253 -151.5 -408t-411.5 -155zM289 1489h327l109 -311h-246zM377 524q0 -152 59 -232.5t170 -80.5q109 0 168.5 80.5t59.5 232.5t-59.5 233t-168.5 81
q-110 0 -169.5 -81t-59.5 -233z" />
    <glyph glyph-name="oacute" unicode="&#xf3;" horiz-adv-x="1210" vert-adv-y="2457" 
d="M602 -35q-257 0 -407 152.5t-150 404.5q0 251 151.5 406t411.5 155q257 0 407 -152.5t150 -402.5q0 -253 -151.5 -408t-411.5 -155zM377 524q0 -152 59 -232.5t170 -80.5q109 0 168.5 80.5t59.5 232.5t-59.5 233t-168.5 81q-110 0 -169.5 -81t-59.5 -233zM483 1174
l109 311h369l-232 -311h-246z" />
    <glyph glyph-name="ocircumflex" unicode="&#xf4;" horiz-adv-x="1210" vert-adv-y="2457" 
d="M602 -35q-257 0 -407 152.5t-150 404.5q0 251 151.5 406t411.5 155q257 0 407 -152.5t150 -402.5q0 -253 -151.5 -408t-411.5 -155zM227 1174l219 311h320l219 -311h-285l-92 165h-4l-92 -165h-285zM377 524q0 -152 59 -232.5t170 -80.5q109 0 168.5 80.5t59.5 232.5
t-59.5 233t-168.5 81q-110 0 -169.5 -81t-59.5 -233z" />
    <glyph glyph-name="otilde" unicode="&#xf5;" horiz-adv-x="1210" vert-adv-y="2457" 
d="M602 -35q-257 0 -407 152.5t-150 404.5q0 251 151.5 406t411.5 155q257 0 407 -152.5t150 -402.5q0 -253 -151.5 -408t-411.5 -155zM240 1143q0 301 182 301q59 0 150 -41t128 -41q72 0 72 82h176q0 -301 -182 -301q-59 0 -151 40t-128 40q-69 0 -69 -80h-178zM377 524
q0 -152 59 -232.5t170 -80.5q109 0 168.5 80.5t59.5 232.5t-59.5 233t-168.5 81q-110 0 -169.5 -81t-59.5 -233z" />
    <glyph glyph-name="odieresis" unicode="&#xf6;" horiz-adv-x="1210" vert-adv-y="2457" 
d="M602 -35q-257 0 -407 152.5t-150 404.5q0 251 151.5 406t411.5 155q257 0 407 -152.5t150 -402.5q0 -253 -151.5 -408t-411.5 -155zM229 1174v290h328v-290h-328zM377 524q0 -152 59 -232.5t170 -80.5q109 0 168.5 80.5t59.5 232.5t-59.5 233t-168.5 81
q-110 0 -169.5 -81t-59.5 -233zM655 1174v290h328v-290h-328z" />
    <glyph glyph-name="divide" unicode="&#xf7;" horiz-adv-x="1175" vert-adv-y="2457" 
d="M432 926v311h311v-311h-311zM90 532v283h995v-283h-995zM432 109v311h311v-311h-311z" />
    <glyph glyph-name="oslash" unicode="&#xf8;" horiz-adv-x="1210" vert-adv-y="2457" 
d="M143 -27l-86 88l101 101q-113 144 -113 360q0 251 151.5 406t411.5 155q218 0 359 -110l100 100l88 -86l-100 -100q110 -144 110 -359q0 -253 -151.5 -408t-411.5 -155q-215 0 -358 109zM377 524q0 -77 14 -129l373 375q-56 68 -158 68q-110 0 -169.5 -81t-59.5 -233z
M446 279q59 -68 160 -68q109 0 168.5 80.5t59.5 232.5q0 67 -13 127z" />
    <glyph glyph-name="ugrave" unicode="&#xf9;" horiz-adv-x="1189" vert-adv-y="2457" 
d="M424 -33q-155 0 -247.5 98t-92.5 275v709h328v-605q0 -115 39.5 -163t123.5 -48q197 0 197 209v607h328v-1049h-328v152h-4q-106 -185 -344 -185zM268 1489h328l109 -311h-246z" />
    <glyph glyph-name="uacute" unicode="&#xfa;" horiz-adv-x="1189" vert-adv-y="2457" 
d="M424 -33q-155 0 -247.5 98t-92.5 275v709h328v-605q0 -115 39.5 -163t123.5 -48q197 0 197 209v607h328v-1049h-328v152h-4q-106 -185 -344 -185zM463 1174l108 311h369l-231 -311h-246z" />
    <glyph glyph-name="ucircumflex" unicode="&#xfb;" horiz-adv-x="1189" vert-adv-y="2457" 
d="M424 -33q-155 0 -247.5 98t-92.5 275v709h328v-605q0 -115 39.5 -163t123.5 -48q197 0 197 209v607h328v-1049h-328v152h-4q-106 -185 -344 -185zM207 1174l219 311h319l220 -311h-285l-92 165h-4l-92 -165h-285z" />
    <glyph glyph-name="udieresis" unicode="&#xfc;" horiz-adv-x="1189" vert-adv-y="2457" 
d="M424 -33q-155 0 -247.5 98t-92.5 275v709h328v-605q0 -115 39.5 -163t123.5 -48q197 0 197 209v607h328v-1049h-328v152h-4q-106 -185 -344 -185zM209 1174v290h328v-290h-328zM635 1174v290h328v-290h-328z" />
    <glyph glyph-name="yacute" unicode="&#xfd;" horiz-adv-x="1124" vert-adv-y="2457" 
d="M315 -362q-96 0 -196 20v250q52 -6 98 -6q21 0 34 0.5t34.5 3.5t36.5 10.5t31.5 19t28.5 31.5t19 47l-417 1035h338l245 -691h4l226 691h323l-383 -1051q-46 -126 -97.5 -201.5t-131.5 -117t-193 -41.5zM430 1174l109 311h368l-231 -311h-246z" />
    <glyph glyph-name="thorn" unicode="&#xfe;" horiz-adv-x="1230" vert-adv-y="2457" 
d="M725 -33q-103 0 -184 43t-119 94h-4v-466h-328v1826h328v-520h4q38 51 119 94t184 43q210 0 333.5 -150t123.5 -407t-123.5 -407t-333.5 -150zM424 524q0 -152 55 -231.5t156 -79.5t156 79.5t55 231.5t-55 232t-156 80t-156 -80t-55 -232z" />
    <glyph glyph-name="ydieresis" unicode="&#xff;" horiz-adv-x="1124" vert-adv-y="2457" 
d="M315 -362q-96 0 -196 20v250q52 -6 98 -6q21 0 34 0.5t34.5 3.5t36.5 10.5t31.5 19t28.5 31.5t19 47l-417 1035h338l245 -691h4l226 691h323l-383 -1051q-46 -126 -97.5 -201.5t-131.5 -117t-193 -41.5zM176 1174v290h328v-290h-328zM602 1174v290h328v-290h-328z" />
    <glyph glyph-name="Amacron" unicode="&#x100;" horiz-adv-x="1466" vert-adv-y="2457" 
d="M-10 0l557 1464h371l561 -1464h-404l-94 305h-502l-94 -305h-395zM438 1589v205h586v-205h-586zM563 586h336l-166 540h-4z" />
    <glyph glyph-name="amacron" unicode="&#x101;" horiz-adv-x="1155" vert-adv-y="2457" 
d="M381 -33q-153 0 -243.5 83.5t-90.5 223.5q0 79 30.5 139t88 100t125 65.5t158.5 44.5q15 3 50.5 10t55 11.5t50.5 13t48.5 18t36 22.5t27 30.5t8.5 39.5q0 44 -35 69t-104 25q-90 0 -134.5 -37t-52.5 -114h-311q4 78 35 143.5t91 117.5t158.5 81.5t227.5 29.5
q222 0 332 -101t110 -335v-405q0 -44 7.5 -62t31.5 -18q15 0 27 2v-156q-99 -18 -180 -18q-94 0 -139 34t-58 103h-4q-59 -73 -148 -116.5t-198 -43.5zM291 1174v204h586v-204h-586zM383 309q0 -116 135 -116q94 0 150.5 68t56.5 163v88q-55 -20 -178 -49
q-88 -21 -126 -58.5t-38 -95.5z" />
    <glyph glyph-name="Abreve" unicode="&#x102;" horiz-adv-x="1466" vert-adv-y="2457" 
d="M-10 0l557 1464h371l561 -1464h-404l-94 305h-502l-94 -305h-395zM403 1884h189q10 -110 139 -110t139 110h189q-6 -139 -96 -225t-232 -86q-141 0 -232.5 85t-95.5 226zM563 586h336l-166 540h-4z" />
    <glyph glyph-name="abreve" unicode="&#x103;" horiz-adv-x="1155" vert-adv-y="2457" 
d="M381 -33q-153 0 -243.5 83.5t-90.5 223.5q0 79 30.5 139t88 100t125 65.5t158.5 44.5q15 3 50.5 10t55 11.5t50.5 13t48.5 18t36 22.5t27 30.5t8.5 39.5q0 44 -35 69t-104 25q-90 0 -134.5 -37t-52.5 -114h-311q4 78 35 143.5t91 117.5t158.5 81.5t227.5 29.5
q222 0 332 -101t110 -335v-405q0 -44 7.5 -62t31.5 -18q15 0 27 2v-156q-99 -18 -180 -18q-94 0 -139 34t-58 103h-4q-59 -73 -148 -116.5t-198 -43.5zM256 1468h188q5 -52 40 -81t100 -29q129 0 139 110h188q-6 -139 -95.5 -225t-231.5 -86q-141 0 -232.5 85t-95.5 226z
M383 309q0 -116 135 -116q94 0 150.5 68t56.5 163v88q-55 -20 -178 -49q-88 -21 -126 -58.5t-38 -95.5z" />
    <glyph glyph-name="Aogonek" unicode="&#x104;" horiz-adv-x="1466" vert-adv-y="2457" 
d="M-10 0l557 1464h371l561 -1464h-125q-37 -32 -51 -44.5t-30 -35.5t-16 -43q0 -45 64 -45q33 0 84 14v-184q-86 -22 -166 -22q-115 0 -174 44t-59 128q0 65 40.5 113t98.5 75h-70l-94 305h-502l-94 -305h-395zM563 586h336l-166 540h-4z" />
    <glyph glyph-name="aogonek" unicode="&#x105;" horiz-adv-x="1155" vert-adv-y="2457" 
d="M381 -33q-153 0 -243.5 83.5t-90.5 223.5q0 79 30.5 139t88 100t125 65.5t158.5 44.5q15 3 50.5 10t55 11.5t50.5 13t48.5 18t36 22.5t27 30.5t8.5 39.5q0 44 -35 69t-104 25q-90 0 -134.5 -37t-52.5 -114h-311q4 78 35 143.5t91 117.5t158.5 81.5t227.5 29.5
q222 0 332 -101t110 -335v-405q0 -44 7.5 -62t31.5 -18q15 0 27 2v-154h2l-2 -2q-28 -24 -38.5 -33.5t-28 -27.5t-23.5 -32.5t-6 -29.5q0 -45 63 -45q30 0 84 15v-185q-86 -22 -166 -22q-115 0 -174 44t-59 128q0 105 112 174q-65 9 -97.5 42t-43.5 91h-4
q-59 -73 -148 -116.5t-198 -43.5zM383 309q0 -116 135 -116q94 0 150.5 68t56.5 163v88q-55 -20 -178 -49q-88 -21 -126 -58.5t-38 -95.5z" />
    <glyph glyph-name="Cacute" unicode="&#x106;" horiz-adv-x="1464" vert-adv-y="2457" 
d="M762 -33q-137 0 -251 37t-197 105t-140 162.5t-85 209t-28 246.5q0 169 46.5 310t135 243.5t224 159.5t305.5 57q147 0 264 -42t196.5 -119t126.5 -182t60 -234h-377q-11 64 -29 111t-50.5 86t-84 59t-122.5 20q-89 0 -152 -33t-98.5 -96.5t-51.5 -145t-16 -188.5
q0 -108 15.5 -190t51.5 -145.5t99 -96.5t152 -33q72 0 124 20t84 59.5t50 87.5t28 114h377q-26 -262 -195.5 -422t-461.5 -160zM659 1589l109 312h369l-232 -312h-246z" />
    <glyph glyph-name="cacute" unicode="&#x107;" horiz-adv-x="1124" vert-adv-y="2457" 
d="M586 -35q-246 0 -393.5 155t-147.5 404q0 247 146 403t387 156q221 0 357 -118t157 -308h-330q-21 181 -178 181q-100 0 -151.5 -82t-51.5 -232t51 -231.5t152 -81.5q159 0 178 184h330q-12 -191 -148 -310.5t-358 -119.5zM455 1174l108 311h369l-232 -311h-245z" />
    <glyph glyph-name="Ccircumflex" unicode="&#x108;" horiz-adv-x="1464" vert-adv-y="2457" 
d="M762 -33q-137 0 -251 37t-197 105t-140 162.5t-85 209t-28 246.5q0 169 46.5 310t135 243.5t224 159.5t305.5 57q147 0 264 -42t196.5 -119t126.5 -182t60 -234h-377q-11 64 -29 111t-50.5 86t-84 59t-122.5 20q-89 0 -152 -33t-98.5 -96.5t-51.5 -145t-16 -188.5
q0 -108 15.5 -190t51.5 -145.5t99 -96.5t152 -33q72 0 124 20t84 59.5t50 87.5t28 114h377q-26 -262 -195.5 -422t-461.5 -160zM403 1589l220 312h319l219 -312h-284l-93 166h-4l-92 -166h-285z" />
    <glyph glyph-name="ccircumflex" unicode="&#x109;" horiz-adv-x="1124" vert-adv-y="2457" 
d="M586 -35q-246 0 -393.5 155t-147.5 404q0 247 146 403t387 156q221 0 357 -118t157 -308h-330q-21 181 -178 181q-100 0 -151.5 -82t-51.5 -232t51 -231.5t152 -81.5q159 0 178 184h330q-12 -191 -148 -310.5t-358 -119.5zM199 1174l219 311h319l219 -311h-284l-92 165
h-5l-92 -165h-284z" />
    <glyph glyph-name="Cdotaccent" unicode="&#x10a;" horiz-adv-x="1464" vert-adv-y="2457" 
d="M762 -33q-137 0 -251 37t-197 105t-140 162.5t-85 209t-28 246.5q0 169 46.5 310t135 243.5t224 159.5t305.5 57q147 0 264 -42t196.5 -119t126.5 -182t60 -234h-377q-11 64 -29 111t-50.5 86t-84 59t-122.5 20q-89 0 -152 -33t-98.5 -96.5t-51.5 -145t-16 -188.5
q0 -108 15.5 -190t51.5 -145.5t99 -96.5t152 -33q72 0 124 20t84 59.5t50 87.5t28 114h377q-26 -262 -195.5 -422t-461.5 -160zM618 1589v291h328v-291h-328z" />
    <glyph glyph-name="cdotaccent" unicode="&#x10b;" horiz-adv-x="1124" vert-adv-y="2457" 
d="M586 -35q-246 0 -393.5 155t-147.5 404q0 247 146 403t387 156q221 0 357 -118t157 -308h-330q-21 181 -178 181q-100 0 -151.5 -82t-51.5 -232t51 -231.5t152 -81.5q159 0 178 184h330q-12 -191 -148 -310.5t-358 -119.5zM414 1174v290h327v-290h-327z" />
    <glyph glyph-name="Ccaron" unicode="&#x10c;" horiz-adv-x="1464" vert-adv-y="2457" 
d="M762 -33q-137 0 -251 37t-197 105t-140 162.5t-85 209t-28 246.5q0 169 46.5 310t135 243.5t224 159.5t305.5 57q147 0 264 -42t196.5 -119t126.5 -182t60 -234h-377q-11 64 -29 111t-50.5 86t-84 59t-122.5 20q-89 0 -152 -33t-98.5 -96.5t-51.5 -145t-16 -188.5
q0 -108 15.5 -190t51.5 -145.5t99 -96.5t152 -33q72 0 124 20t84 59.5t50 87.5t28 114h377q-26 -262 -195.5 -422t-461.5 -160zM403 1901h285l92 -166h4l93 166h284l-219 -312h-319z" />
    <glyph glyph-name="ccaron" unicode="&#x10d;" horiz-adv-x="1124" vert-adv-y="2457" 
d="M586 -35q-246 0 -393.5 155t-147.5 404q0 247 146 403t387 156q221 0 357 -118t157 -308h-330q-21 181 -178 181q-100 0 -151.5 -82t-51.5 -232t51 -231.5t152 -81.5q159 0 178 184h330q-12 -191 -148 -310.5t-358 -119.5zM199 1485h284l92 -166h5l92 166h284l-219 -311
h-319z" />
    <glyph glyph-name="Dcaron" unicode="&#x10e;" horiz-adv-x="1490" vert-adv-y="2457" 
d="M123 0v1464h649q308 0 480.5 -191t172.5 -542q0 -353 -163 -542t-469 -189h-670zM293 1901h285l92 -166h4l92 166h285l-220 -312h-319zM492 301h235q322 0 322 430q0 432 -322 432h-235v-862z" />
    <glyph glyph-name="dcaron" unicode="&#x10f;" horiz-adv-x="1402" vert-adv-y="2457" 
d="M504 -33q-210 0 -333.5 150t-123.5 407t123.5 407t333.5 150q103 0 184 -43t119 -94h4v520h328v-1464h-328v104h-4q-38 -51 -119 -94t-184 -43zM383 524q0 -152 55 -231.5t156 -79.5t156 79.5t55 231.5t-55 232t-156 80t-156 -80t-55 -232zM1200 1042l51 422h348
l-174 -422h-225z" />
    <glyph glyph-name="Dcroat" unicode="&#x110;" horiz-adv-x="1513" vert-adv-y="2457" 
d="M145 0v666h-118v184h118v614h650q308 0 480.5 -191t172.5 -542q0 -353 -163.5 -542t-469.5 -189h-670zM514 301h236q321 0 321 430q0 432 -321 432h-236v-313h287v-184h-287v-365z" />
    <glyph glyph-name="dcroat" unicode="&#x111;" horiz-adv-x="1228" vert-adv-y="2457" 
d="M537 1178v184h274v102h328v-102h110v-184h-110v-1178h-328v104h-4q-38 -51 -119 -94t-184 -43q-210 0 -333.5 150t-123.5 407t123.5 407t333.5 150q103 0 184 -43t119 -94h4v234h-274zM383 524q0 -152 55 -231.5t156 -79.5t156 79.5t55 231.5t-55 232t-156 80t-156 -80
t-55 -232z" />
    <glyph glyph-name="Emacron" unicode="&#x112;" horiz-adv-x="1314" vert-adv-y="2457" 
d="M123 0v1464h1110v-301h-741v-260h638v-301h-638v-301h753v-301h-1122zM391 1589v205h586v-205h-586z" />
    <glyph glyph-name="emacron" unicode="&#x113;" horiz-adv-x="1173" vert-adv-y="2457" 
d="M590 -35q-251 0 -398 154.5t-147 404.5q0 116 36 217t103.5 177.5t172 120.5t233.5 44q265 0 400.5 -153t135.5 -445v-49h-753q0 -105 64.5 -165t160.5 -60q146 0 186 106h334q-46 -165 -179.5 -258.5t-348.5 -93.5zM293 1174v204h586v-204h-586zM375 639h422
q0 100 -55 153.5t-152 53.5q-95 0 -152 -53.5t-63 -153.5z" />
    <glyph glyph-name="Edotaccent" unicode="&#x116;" horiz-adv-x="1314" vert-adv-y="2457" 
d="M123 0v1464h1110v-301h-741v-260h638v-301h-638v-301h753v-301h-1122zM520 1589v291h328v-291h-328z" />
    <glyph glyph-name="edotaccent" unicode="&#x117;" horiz-adv-x="1173" vert-adv-y="2457" 
d="M590 -35q-251 0 -398 154.5t-147 404.5q0 116 36 217t103.5 177.5t172 120.5t233.5 44q265 0 400.5 -153t135.5 -445v-49h-753q0 -105 64.5 -165t160.5 -60q146 0 186 106h334q-46 -165 -179.5 -258.5t-348.5 -93.5zM375 639h422q0 100 -55 153.5t-152 53.5
q-95 0 -152 -53.5t-63 -153.5zM422 1174v290h328v-290h-328z" />
    <glyph glyph-name="Eogonek" unicode="&#x118;" horiz-adv-x="1314" vert-adv-y="2457" 
d="M123 0v1464h1110v-301h-741v-260h638v-301h-638v-301h753v-301h-51q-28 -24 -38.5 -33.5t-28 -27.5t-23.5 -32.5t-6 -29.5q0 -45 63 -45q33 0 84 14v-184q-86 -22 -166 -22q-115 0 -174 44t-59 128q0 65 40.5 113t98.5 75h-862z" />
    <glyph glyph-name="eogonek" unicode="&#x119;" horiz-adv-x="1173" vert-adv-y="2457" 
d="M690 -360q-115 0 -174 44t-59 128q0 91 86 155q-230 15 -364 168t-134 389q0 116 36 217t103.5 177.5t172 120.5t233.5 44q265 0 400.5 -153t135.5 -445v-49h-753q0 -105 64.5 -165t160.5 -60q146 0 186 106h334q-68 -249 -323 -325q-30 -26 -45 -40.5t-28 -35.5t-13 -39
q0 -45 63 -45q33 0 84 14v-184q-86 -22 -166 -22zM375 639h422q0 100 -55 153.5t-152 53.5q-95 0 -152 -53.5t-63 -153.5z" />
    <glyph glyph-name="Ecaron" unicode="&#x11a;" horiz-adv-x="1314" vert-adv-y="2457" 
d="M123 0v1464h1110v-301h-741v-260h638v-301h-638v-301h753v-301h-1122zM305 1901h285l92 -166h4l92 166h285l-219 -312h-320z" />
    <glyph glyph-name="ecaron" unicode="&#x11b;" horiz-adv-x="1173" vert-adv-y="2457" 
d="M590 -35q-251 0 -398 154.5t-147 404.5q0 116 36 217t103.5 177.5t172 120.5t233.5 44q265 0 400.5 -153t135.5 -445v-49h-753q0 -105 64.5 -165t160.5 -60q146 0 186 106h334q-46 -165 -179.5 -258.5t-348.5 -93.5zM207 1485h285l92 -166h4l92 166h285l-220 -311h-319z
M375 639h422q0 100 -55 153.5t-152 53.5q-95 0 -152 -53.5t-63 -153.5z" />
    <glyph glyph-name="Gcircumflex" unicode="&#x11c;" horiz-adv-x="1538" vert-adv-y="2457" 
d="M725 -33q-153 0 -278.5 57.5t-210 159.5t-130 243t-45.5 306q0 222 80 393t242 271t387 100q146 0 266.5 -41t201.5 -113t130 -164.5t62 -199.5h-377q-12 44 -29 77.5t-48.5 67.5t-85.5 53t-126 19q-326 0 -326 -463q0 -108 17.5 -190t56 -145.5t105.5 -96.5t161 -33
q127 0 208.5 69t84.5 175h-278v266h659v-778h-264l-37 186h-4q-55 -104 -160.5 -161.5t-261.5 -57.5zM389 1589l219 312h320l219 -312h-285l-92 166h-4l-92 -166h-285z" />
    <glyph glyph-name="gcircumflex" unicode="&#x11d;" horiz-adv-x="1196" vert-adv-y="2457" 
d="M584 -375q-117 0 -211.5 29t-155 78.5t-96.5 108t-51 124.5h331q36 -104 183 -104q109 0 152.5 61t43.5 203v61h-4q-40 -54 -112 -95.5t-175 -41.5q-199 0 -319.5 143.5t-120.5 372.5t120.5 372.5t319.5 143.5q103 0 175 -41.5t112 -95.5h4v105h328v-924q0 -138 -36 -236
t-106 -155t-163.5 -83t-218.5 -26zM180 1174l219 311h320l219 -311h-285l-92 165h-4l-92 -165h-285zM385 565q0 -130 48.5 -200t146.5 -70q194 0 194 270q0 131 -48 201t-146 70t-146.5 -70.5t-48.5 -200.5z" />
    <glyph glyph-name="Gbreve" unicode="&#x11e;" horiz-adv-x="1538" vert-adv-y="2457" 
d="M725 -33q-153 0 -278.5 57.5t-210 159.5t-130 243t-45.5 306q0 222 80 393t242 271t387 100q146 0 266.5 -41t201.5 -113t130 -164.5t62 -199.5h-377q-12 44 -29 77.5t-48.5 67.5t-85.5 53t-126 19q-326 0 -326 -463q0 -108 17.5 -190t56 -145.5t105.5 -96.5t161 -33
q127 0 208.5 69t84.5 175h-278v266h659v-778h-264l-37 186h-4q-55 -104 -160.5 -161.5t-261.5 -57.5zM440 1884h189q10 -110 139 -110t139 110h189q-6 -139 -96 -225t-232 -86q-141 0 -232.5 85t-95.5 226z" />
    <glyph glyph-name="gbreve" unicode="&#x11f;" horiz-adv-x="1196" vert-adv-y="2457" 
d="M584 -375q-117 0 -211.5 29t-155 78.5t-96.5 108t-51 124.5h331q36 -104 183 -104q109 0 152.5 61t43.5 203v61h-4q-40 -54 -112 -95.5t-175 -41.5q-199 0 -319.5 143.5t-120.5 372.5t120.5 372.5t319.5 143.5q103 0 175 -41.5t112 -95.5h4v105h328v-924q0 -138 -36 -236
t-106 -155t-163.5 -83t-218.5 -26zM231 1468h189q10 -110 139 -110t139 110h189q-6 -139 -96 -225t-232 -86q-141 0 -232.5 85t-95.5 226zM385 565q0 -130 48.5 -200t146.5 -70q194 0 194 270q0 131 -48 201t-146 70t-146.5 -70.5t-48.5 -200.5z" />
    <glyph glyph-name="Gdotaccent" unicode="&#x120;" horiz-adv-x="1538" vert-adv-y="2457" 
d="M725 -33q-153 0 -278.5 57.5t-210 159.5t-130 243t-45.5 306q0 222 80 393t242 271t387 100q146 0 266.5 -41t201.5 -113t130 -164.5t62 -199.5h-377q-12 44 -29 77.5t-48.5 67.5t-85.5 53t-126 19q-326 0 -326 -463q0 -108 17.5 -190t56 -145.5t105.5 -96.5t161 -33
q127 0 208.5 69t84.5 175h-278v266h659v-778h-264l-37 186h-4q-55 -104 -160.5 -161.5t-261.5 -57.5zM604 1589v291h328v-291h-328z" />
    <glyph glyph-name="gdotaccent" unicode="&#x121;" horiz-adv-x="1196" vert-adv-y="2457" 
d="M584 -375q-117 0 -211.5 29t-155 78.5t-96.5 108t-51 124.5h331q36 -104 183 -104q109 0 152.5 61t43.5 203v61h-4q-40 -54 -112 -95.5t-175 -41.5q-199 0 -319.5 143.5t-120.5 372.5t120.5 372.5t319.5 143.5q103 0 175 -41.5t112 -95.5h4v105h328v-924q0 -138 -36 -236
t-106 -155t-163.5 -83t-218.5 -26zM385 565q0 -130 48.5 -200t146.5 -70q194 0 194 270q0 131 -48 201t-146 70t-146.5 -70.5t-48.5 -200.5zM395 1174v290h328v-290h-328z" />
    <glyph glyph-name="Gcommaaccent" unicode="&#x122;" horiz-adv-x="1538" vert-adv-y="2457" 
d="M725 -33q-153 0 -278.5 57.5t-210 159.5t-130 243t-45.5 306q0 222 80 393t242 271t387 100q146 0 266.5 -41t201.5 -113t130 -164.5t62 -199.5h-377q-12 44 -29 77.5t-48.5 67.5t-85.5 53t-126 19q-326 0 -326 -463q0 -108 17.5 -190t56 -145.5t105.5 -96.5t161 -33
q127 0 208.5 69t84.5 175h-278v266h659v-778h-264l-37 186h-4q-55 -104 -160.5 -161.5t-261.5 -57.5zM610 -539v97q148 17 148 133h-148v209h312v-209q0 -93 -81.5 -154t-230.5 -76z" />
    <glyph glyph-name="gcommaaccent" unicode="&#x123;" horiz-adv-x="1196" vert-adv-y="2457" 
d="M584 -375q-117 0 -211.5 29t-155 78.5t-96.5 108t-51 124.5h331q36 -104 183 -104q109 0 152.5 61t43.5 203v61h-4q-40 -54 -112 -95.5t-175 -41.5q-199 0 -319.5 143.5t-120.5 372.5t120.5 372.5t319.5 143.5q103 0 175 -41.5t112 -95.5h4v105h328v-924q0 -138 -36 -236
t-106 -155t-163.5 -83t-218.5 -26zM385 565q0 -130 48.5 -200t146.5 -70q194 0 194 270q0 131 -48 201t-146 70t-146.5 -70.5t-48.5 -200.5zM403 1174v210q0 95 81.5 157t230.5 75v-96q-148 -17 -148 -136h148v-210h-312z" />
    <glyph glyph-name="Hcircumflex" unicode="&#x124;" horiz-adv-x="1484" vert-adv-y="2457" 
d="M123 0v1464h369v-573h501v573h369v-1464h-369v590h-501v-590h-369zM365 1589l219 312h319l219 -312h-284l-93 166h-4l-92 -166h-284z" />
    <glyph glyph-name="hcircumflex" unicode="&#x125;" horiz-adv-x="1189" vert-adv-y="2457" 
d="M778 604q0 115 -39.5 163t-124.5 48q-196 0 -196 -209v-606h-328v1464h328v-567h4q105 184 344 184q155 0 247.5 -97.5t92.5 -274.5v-709h-328v604zM-125 1518l219 311h320l219 -311h-285l-92 165h-4l-92 -165h-285z" />
    <glyph glyph-name="Hbar" unicode="&#x126;" horiz-adv-x="1523" vert-adv-y="2457" 
d="M31 1077v185h112v202h369v-202h502v202h368v-202h109v-185h-109v-1077h-368v590h-502v-590h-369v1077h-112zM512 891h502v186h-502v-186z" />
    <glyph glyph-name="hbar" unicode="&#x127;" horiz-adv-x="1189" vert-adv-y="2457" 
d="M-35 1178v184h125v102h328v-102h317v-184h-317v-281h4q105 184 344 184q155 0 247.5 -97.5t92.5 -274.5v-709h-328v604q0 115 -39.5 163t-124.5 48q-196 0 -196 -209v-606h-328v1178h-125z" />
    <glyph glyph-name="Itilde" unicode="&#x128;" horiz-adv-x="614" vert-adv-y="2457" 
d="M123 0v1464h369v-1464h-369zM-59 1559q0 301 182 301q59 0 150 -41t128 -41q72 0 72 82h176q0 -301 -182 -301q-59 0 -151 39.5t-128 39.5q-69 0 -69 -79h-178z" />
    <glyph glyph-name="itilde" unicode="&#x129;" horiz-adv-x="507" vert-adv-y="2457" 
d="M90 0v1049h328v-1049h-328zM-113 1143q0 301 183 301q59 0 150 -41t128 -41q72 0 72 82h176q0 -301 -182 -301q-59 0 -151 40t-128 40q-69 0 -69 -80h-179z" />
    <glyph glyph-name="Imacron" unicode="&#x12a;" horiz-adv-x="614" vert-adv-y="2457" 
d="M123 0v1464h369v-1464h-369zM14 1589v205h586v-205h-586z" />
    <glyph glyph-name="imacron" unicode="&#x12b;" horiz-adv-x="507" vert-adv-y="2457" 
d="M90 0v1049h328v-1049h-328zM-39 1174v204h586v-204h-586z" />
    <glyph glyph-name="Iogonek" unicode="&#x12e;" horiz-adv-x="614" vert-adv-y="2457" 
d="M123 0v1464h369v-1464h-54q-28 -24 -38.5 -33.5t-28 -27.5t-23.5 -32.5t-6 -29.5q0 -45 64 -45q32 0 83 14v-184q-86 -22 -165 -22q-115 0 -174.5 44t-59.5 128q0 65 40.5 113t98.5 75h-106z" />
    <glyph glyph-name="iogonek" unicode="&#x12f;" horiz-adv-x="507" vert-adv-y="2457" 
d="M90 0v1049h328v-1049h-51q-37 -32 -51 -44.5t-30 -35.5t-16 -43q0 -45 64 -45q33 0 84 14v-184q-86 -22 -166 -22q-115 0 -174.5 44t-59.5 128q0 65 41 113t99 75h-68zM90 1174v290h328v-290h-328z" />
    <glyph glyph-name="Idotaccent" unicode="&#x130;" horiz-adv-x="614" vert-adv-y="2457" 
d="M123 0v1464h369v-1464h-369zM125 1589v291h367v-291h-367z" />
    <glyph glyph-name="idotless" unicode="&#x131;" horiz-adv-x="507" vert-adv-y="2457" 
d="M90 0v1049h328v-1049h-328z" />
    <glyph glyph-name="Jcircumflex" unicode="&#x134;" horiz-adv-x="1148" vert-adv-y="2457" 
d="M535 -33q-117 0 -206 27.5t-144.5 73.5t-90 114t-48 141.5t-13.5 163.5v123h327v-123q0 -111 34 -165t120 -54t120 54t34 165v977h368v-977q0 -90 -13.5 -163.5t-48 -141.5t-89.5 -114t-144 -73.5t-206 -27.5zM473 1589l219 312h320l219 -312h-285l-92 166h-4l-92 -166
h-285z" />
    <glyph glyph-name="jcircumflex" unicode="&#x135;" horiz-adv-x="507" vert-adv-y="2457" 
d="M90 -375q-83 0 -182 21v250q58 -7 76 -7q55 0 80.5 23.5t25.5 101.5v1035h328v-1018q0 -200 -77 -303t-251 -103zM-125 1174l219 311h320l219 -311h-285l-92 165h-4l-92 -165h-285z" />
    <glyph glyph-name="Kcommaaccent" unicode="&#x136;" horiz-adv-x="1413" vert-adv-y="2457" 
d="M123 0v1464h369v-624l524 624h395l-551 -641l592 -823h-430l-379 571l-151 -176v-395h-369zM592 -539v97q147 17 147 133h-147v209h311v-209q0 -93 -81 -154t-230 -76z" />
    <glyph glyph-name="kcommaaccent" unicode="&#x137;" horiz-adv-x="1118" vert-adv-y="2457" 
d="M90 0v1464h328v-805l350 390h348l-371 -394l414 -655h-379l-248 432l-114 -121v-311h-328zM469 -539v97q147 17 147 133h-147v209h311v-209q0 -93 -81 -154t-230 -76z" />
    <glyph glyph-name="kgreenlandic" unicode="&#x138;" horiz-adv-x="1124" vert-adv-y="2457" 
d="M90 0v1049h328v-394l368 394h349l-387 -400l411 -649h-379l-245 430l-117 -121v-309h-328z" />
    <glyph glyph-name="Lacute" unicode="&#x139;" horiz-adv-x="1173" vert-adv-y="2457" 
d="M123 0v1464h369v-1163h651v-301h-1020zM190 1589l109 312h369l-232 -312h-246z" />
    <glyph glyph-name="lacute" unicode="&#x13a;" horiz-adv-x="507" vert-adv-y="2457" 
d="M90 0v1464h328v-1464h-328zM131 1518l109 311h368l-231 -311h-246z" />
    <glyph glyph-name="Lcommaaccent" unicode="&#x13b;" horiz-adv-x="1173" vert-adv-y="2457" 
d="M123 0v1464h369v-1163h651v-301h-1020zM477 -539v97q148 17 148 133h-148v209h311v-209q0 -93 -81 -154t-230 -76z" />
    <glyph glyph-name="lcommaaccent" unicode="&#x13c;" horiz-adv-x="507" vert-adv-y="2457" 
d="M90 0v1464h328v-1464h-328zM98 -539v97q148 17 148 133h-148v209h312v-209q0 -93 -81.5 -154t-230.5 -76z" />
    <glyph glyph-name="Lcaron" unicode="&#x13d;" horiz-adv-x="1173" vert-adv-y="2457" 
d="M123 0v1464h369v-1163h651v-301h-1020zM690 1042l51 422h349l-175 -422h-225z" />
    <glyph glyph-name="lcaron" unicode="&#x13e;" horiz-adv-x="681" vert-adv-y="2457" 
d="M90 0v1464h328v-1464h-328zM479 1063l51 422h349l-174 -422h-226z" />
    <glyph glyph-name="Lslash" unicode="&#x141;" horiz-adv-x="1267" vert-adv-y="2457" 
d="M51 350v240l166 123v751h369v-479l325 240v-240l-325 -240v-444h651v-301h-1020v473z" />
    <glyph glyph-name="lslash" unicode="&#x142;" horiz-adv-x="649" vert-adv-y="2457" 
d="M43 453v239l121 90v682h328v-442l120 90v-240l-120 -90v-782h-328v543z" />
    <glyph glyph-name="Nacute" unicode="&#x143;" horiz-adv-x="1499" vert-adv-y="2457" 
d="M123 0v1464h369l512 -870h4v870h368v-1464h-368l-512 870h-4v-870h-369zM627 1589l108 312h369l-232 -312h-245z" />
    <glyph glyph-name="nacute" unicode="&#x144;" horiz-adv-x="1189" vert-adv-y="2457" 
d="M778 604q0 115 -39.5 163t-124.5 48q-196 0 -196 -209v-606h-328v1049h328v-152h4q105 184 344 184q155 0 247.5 -97.5t92.5 -274.5v-709h-328v604zM537 1174l108 311h369l-232 -311h-245z" />
    <glyph glyph-name="Ncommaaccent" unicode="&#x145;" horiz-adv-x="1499" vert-adv-y="2457" 
d="M123 0v1464h369l512 -870h4v870h368v-1464h-368l-512 870h-4v-870h-369zM594 -539v97q147 17 147 133h-147v209h311v-209q0 -93 -81 -154t-230 -76z" />
    <glyph glyph-name="ncommaaccent" unicode="&#x146;" horiz-adv-x="1189" vert-adv-y="2457" 
d="M778 604q0 115 -39.5 163t-124.5 48q-196 0 -196 -209v-606h-328v1049h328v-152h4q105 184 344 184q155 0 247.5 -97.5t92.5 -274.5v-709h-328v604zM442 -539v97q148 17 148 133h-148v209h312v-209q0 -93 -81.5 -154t-230.5 -76z" />
    <glyph glyph-name="Ncaron" unicode="&#x147;" horiz-adv-x="1499" vert-adv-y="2457" 
d="M123 0v1464h369l512 -870h4v870h368v-1464h-368l-512 870h-4v-870h-369zM371 1901h284l93 -166h4l92 166h284l-219 -312h-319z" />
    <glyph glyph-name="ncaron" unicode="&#x148;" horiz-adv-x="1189" vert-adv-y="2457" 
d="M778 604q0 115 -39.5 163t-124.5 48q-196 0 -196 -209v-606h-328v1049h328v-152h4q105 184 344 184q155 0 247.5 -97.5t92.5 -274.5v-709h-328v604zM281 1485h284l92 -166h5l92 166h284l-219 -311h-319z" />
    <glyph glyph-name="Eng" unicode="&#x14a;" horiz-adv-x="1499" vert-adv-y="2457" 
d="M969 -362q-107 0 -201 20v240q81 0 128 10.5t70 31t42 60.5l-512 870h-4v-870h-369v1464h369l512 -870h4v870h368v-1370q0 -456 -407 -456z" />
    <glyph glyph-name="eng" unicode="&#x14b;" horiz-adv-x="1189" vert-adv-y="2457" 
d="M799 -387q-95 0 -203 22v246h48t38.5 1.5t32.5 4.5t23.5 9t19 14t11 21t8 29.5t1.5 39.5v604q0 115 -39.5 163t-124.5 48q-196 0 -196 -209v-606h-328v1049h328v-152h4q105 184 344 184q155 0 247.5 -97.5t92.5 -274.5v-734q0 -187 -67 -274.5t-240 -87.5z" />
    <glyph glyph-name="Omacron" unicode="&#x14c;" horiz-adv-x="1572" vert-adv-y="2457" 
d="M786 -33q-171 0 -309 57.5t-228.5 160t-139 242.5t-48.5 306q0 222 83 393t249 271t393 100q225 0 391 -99.5t250 -271.5t84 -393q0 -166 -49 -306.5t-140 -242.5t-228.5 -159.5t-307.5 -57.5zM438 733q0 -465 348 -465q97 0 166.5 36t108.5 101.5t56.5 146t17.5 181.5
q0 100 -17.5 180t-56.5 145.5t-108.5 101.5t-166.5 36q-348 0 -348 -463zM494 1589v205h585v-205h-585z" />
    <glyph glyph-name="omacron" unicode="&#x14d;" horiz-adv-x="1210" vert-adv-y="2457" 
d="M602 -35q-257 0 -407 152.5t-150 404.5q0 251 151.5 406t411.5 155q257 0 407 -152.5t150 -402.5q0 -253 -151.5 -408t-411.5 -155zM313 1174v204h586v-204h-586zM377 524q0 -152 59 -232.5t170 -80.5q109 0 168.5 80.5t59.5 232.5t-59.5 233t-168.5 81
q-110 0 -169.5 -81t-59.5 -233z" />
    <glyph glyph-name="Ohungarumlaut" unicode="&#x150;" horiz-adv-x="1572" vert-adv-y="2457" 
d="M786 -33q-171 0 -309 57.5t-228.5 160t-139 242.5t-48.5 306q0 222 83 393t249 271t393 100q225 0 391 -99.5t250 -271.5t84 -393q0 -166 -49 -306.5t-140 -242.5t-228.5 -159.5t-307.5 -57.5zM438 733q0 -465 348 -465q97 0 166.5 36t108.5 101.5t56.5 146t17.5 181.5
q0 100 -17.5 180t-56.5 145.5t-108.5 101.5t-166.5 36q-348 0 -348 -463zM479 1589l125 312h318l-207 -312h-236zM840 1589l166 312h317l-248 -312h-235z" />
    <glyph glyph-name="ohungarumlaut" unicode="&#x151;" horiz-adv-x="1210" vert-adv-y="2457" 
d="M602 -35q-257 0 -407 152.5t-150 404.5q0 251 151.5 406t411.5 155q257 0 407 -152.5t150 -402.5q0 -253 -151.5 -408t-411.5 -155zM299 1174l125 311h317l-206 -311h-236zM377 524q0 -152 59 -232.5t170 -80.5q109 0 168.5 80.5t59.5 232.5t-59.5 233t-168.5 81
q-110 0 -169.5 -81t-59.5 -233zM659 1174l166 311h318l-248 -311h-236z" />
    <glyph glyph-name="OE" unicode="&#x152;" horiz-adv-x="2338" vert-adv-y="2457" 
d="M727 -33q-149 0 -273.5 57.5t-210 159.5t-133 243t-47.5 306q0 219 81 392.5t233 272.5t350 99q262 0 420 -197v164h1110v-301h-741v-260h638v-301h-638v-301h753v-301h-1122v164q-158 -197 -420 -197zM440 733q0 -465 348 -465q109 0 191.5 63t124 168t41.5 234
q0 128 -41.5 232.5t-124 167.5t-191.5 63q-348 0 -348 -463z" />
    <glyph glyph-name="oe" unicode="&#x153;" horiz-adv-x="1964" vert-adv-y="2457" 
d="M602 -35q-257 0 -407 152.5t-150 404.5q0 251 151.5 406t411.5 155q241 0 393 -139q145 139 379 139q265 0 401 -153t136 -445v-49h-754q0 -105 65 -165t161 -60q146 0 186 106h334q-46 -165 -180 -258.5t-349 -93.5q-238 0 -383 139q-152 -139 -395 -139zM377 524
q0 -152 59 -232.5t170 -80.5q109 0 168.5 80.5t59.5 232.5t-59.5 233t-168.5 81q-110 0 -169.5 -81t-59.5 -233zM1165 639h422q0 100 -55 153.5t-152 53.5q-95 0 -152 -53.5t-63 -153.5z" />
    <glyph glyph-name="Racute" unicode="&#x154;" horiz-adv-x="1409" vert-adv-y="2457" 
d="M123 0v1464h690q246 0 384 -109.5t138 -307.5q0 -150 -78.5 -242.5t-218.5 -124.5v-4q75 -13 128.5 -54.5t80.5 -98.5t43 -123.5t21.5 -131t9 -118.5t11.5 -89.5t24 -40.5v-20h-383q-16 14 -22 59t-5.5 100.5t-8.5 118t-27.5 114t-66.5 85t-122 33.5h-229v-510h-369z
M492 811h249q226 0 226 176t-226 176h-249v-352zM555 1589l109 312h368l-231 -312h-246z" />
    <glyph glyph-name="racute" unicode="&#x155;" horiz-adv-x="788" vert-adv-y="2457" 
d="M418 487v-487h-328v1049h328v-172h4q39 85 105 132.5t151 47.5q53 0 90 -8v-287q-40 6 -68 6q-118 0 -200 -73.5t-82 -207.5zM307 1174l109 311h368l-231 -311h-246z" />
    <glyph glyph-name="Rcommaaccent" unicode="&#x156;" horiz-adv-x="1409" vert-adv-y="2457" 
d="M123 0v1464h690q246 0 384 -109.5t138 -307.5q0 -150 -78.5 -242.5t-218.5 -124.5v-4q75 -13 128.5 -54.5t80.5 -98.5t43 -123.5t21.5 -131t9 -118.5t11.5 -89.5t24 -40.5v-20h-383q-16 14 -22 59t-5.5 100.5t-8.5 118t-27.5 114t-66.5 85t-122 33.5h-229v-510h-369z
M492 811h249q226 0 226 176t-226 176h-249v-352zM584 -539v97q147 17 147 133h-147v209h311v-209q0 -93 -81 -154t-230 -76z" />
    <glyph glyph-name="rcommaaccent" unicode="&#x157;" horiz-adv-x="788" vert-adv-y="2457" 
d="M418 487v-487h-328v1049h328v-172h4q39 85 105 132.5t151 47.5q53 0 90 -8v-287q-40 6 -68 6q-118 0 -200 -73.5t-82 -207.5zM98 -539v97q148 17 148 133h-148v209h312v-209q0 -93 -81.5 -154t-230.5 -76z" />
    <glyph glyph-name="Rcaron" unicode="&#x158;" horiz-adv-x="1409" vert-adv-y="2457" 
d="M123 0v1464h690q246 0 384 -109.5t138 -307.5q0 -150 -78.5 -242.5t-218.5 -124.5v-4q75 -13 128.5 -54.5t80.5 -98.5t43 -123.5t21.5 -131t9 -118.5t11.5 -89.5t24 -40.5v-20h-383q-16 14 -22 59t-5.5 100.5t-8.5 118t-27.5 114t-66.5 85t-122 33.5h-229v-510h-369z
M299 1901h285l92 -166h4l92 166h285l-219 -312h-320zM492 811h249q226 0 226 176t-226 176h-249v-352z" />
    <glyph glyph-name="rcaron" unicode="&#x159;" horiz-adv-x="788" vert-adv-y="2457" 
d="M418 487v-487h-328v1049h328v-172h4q39 85 105 132.5t151 47.5q53 0 90 -8v-287q-40 6 -68 6q-118 0 -200 -73.5t-82 -207.5zM51 1485h285l92 -166h4l92 166h285l-219 -311h-320z" />
    <glyph glyph-name="Sacute" unicode="&#x15a;" horiz-adv-x="1345" vert-adv-y="2457" 
d="M713 -33q-193 0 -344 62t-239.5 183.5t-88.5 285.5h373q0 -121 80.5 -177.5t214.5 -56.5q100 0 153 36t53 95q0 28 -9 51.5t-30.5 42t-44.5 32.5t-62.5 28.5t-72 25t-85.5 26.5q-29 8 -44 13q-87 27 -149 51t-129 62t-108 81t-68 106t-27 139q0 93 28.5 168t79.5 126
t122.5 85t154.5 49.5t180 15.5q172 0 310 -56.5t222 -166t89 -254.5h-373q-12 85 -77 132.5t-171 47.5q-87 0 -137.5 -30t-50.5 -91q0 -69 57.5 -105t210.5 -81q213 -63 297 -102q189 -86 241 -226q23 -61 23 -135q0 -213 -153.5 -338t-425.5 -125zM547 1589l108 312h369
l-231 -312h-246z" />
    <glyph glyph-name="sacute" unicode="&#x15b;" horiz-adv-x="1064" vert-adv-y="2457" 
d="M555 -33q-133 0 -234 30t-160.5 84t-90 120.5t-33.5 146.5h307q15 -155 205 -155q139 0 139 90q0 15 -3.5 28t-12 23.5t-16.5 18.5t-25 15.5t-29.5 12t-36.5 11t-39 10t-45.5 10t-48.5 10.5q-62 15 -110.5 30.5t-100.5 43t-86 61t-56 83.5t-22 112q0 150 120.5 239.5
t338.5 89.5q121 0 214 -29t147.5 -79.5t83 -112t32.5 -133.5h-307q-8 65 -46.5 97t-117.5 32q-129 0 -129 -84q0 -42 32 -58.5t129 -38.5q37 -8 58 -13q52 -12 88.5 -22t83 -27t78 -34.5t65 -44.5t53 -58.5t32 -74.5t12.5 -94q0 -164 -121 -252t-348 -88zM408 1174l108 311
h369l-232 -311h-245z" />
    <glyph glyph-name="Scircumflex" unicode="&#x15c;" horiz-adv-x="1345" vert-adv-y="2457" 
d="M713 -33q-193 0 -344 62t-239.5 183.5t-88.5 285.5h373q0 -121 80.5 -177.5t214.5 -56.5q100 0 153 36t53 95q0 28 -9 51.5t-30.5 42t-44.5 32.5t-62.5 28.5t-72 25t-85.5 26.5q-29 8 -44 13q-87 27 -149 51t-129 62t-108 81t-68 106t-27 139q0 93 28.5 168t79.5 126
t122.5 85t154.5 49.5t180 15.5q172 0 310 -56.5t222 -166t89 -254.5h-373q-12 85 -77 132.5t-171 47.5q-87 0 -137.5 -30t-50.5 -91q0 -69 57.5 -105t210.5 -81q213 -63 297 -102q189 -86 241 -226q23 -61 23 -135q0 -213 -153.5 -338t-425.5 -125zM291 1589l219 312h319
l220 -312h-285l-92 166h-4l-93 -166h-284z" />
    <glyph glyph-name="scircumflex" unicode="&#x15d;" horiz-adv-x="1064" vert-adv-y="2457" 
d="M555 -33q-133 0 -234 30t-160.5 84t-90 120.5t-33.5 146.5h307q15 -155 205 -155q139 0 139 90q0 15 -3.5 28t-12 23.5t-16.5 18.5t-25 15.5t-29.5 12t-36.5 11t-39 10t-45.5 10t-48.5 10.5q-62 15 -110.5 30.5t-100.5 43t-86 61t-56 83.5t-22 112q0 150 120.5 239.5
t338.5 89.5q121 0 214 -29t147.5 -79.5t83 -112t32.5 -133.5h-307q-8 65 -46.5 97t-117.5 32q-129 0 -129 -84q0 -42 32 -58.5t129 -38.5q37 -8 58 -13q52 -12 88.5 -22t83 -27t78 -34.5t65 -44.5t53 -58.5t32 -74.5t12.5 -94q0 -164 -121 -252t-348 -88zM152 1174l219 311
h319l219 -311h-284l-93 165h-4l-92 -165h-284z" />
    <glyph glyph-name="Scedilla" unicode="&#x15e;" horiz-adv-x="1345" vert-adv-y="2457" 
d="M670 -406q-131 0 -230 68l62 72q67 -31 129 -31q41 0 67.5 14.5t26.5 44.5q0 56 -70 56q-32 0 -75 -15l-50 70l93 98q-259 21 -420.5 161t-161.5 366h373q0 -121 80.5 -177.5t214.5 -56.5q100 0 153 36t53 95q0 28 -9 51.5t-30.5 42t-44.5 32.5t-62.5 28.5t-72 25
t-85.5 26.5q-29 8 -44 13q-87 27 -149 51t-129 62t-108 81t-68 106t-27 139q0 93 28.5 168t79.5 126t122.5 85t154.5 49.5t180 15.5q172 0 310 -56.5t222 -166t89 -254.5h-373q-12 85 -77 132.5t-171 47.5q-87 0 -137.5 -30t-50.5 -91q0 -69 57.5 -105t210.5 -81
q213 -63 297 -102q189 -86 241 -226q23 -61 23 -135q0 -200 -137 -324t-381 -137l-55 -67v-4q89 10 154 -26.5t65 -111.5q0 -77 -77 -121.5t-191 -44.5z" />
    <glyph glyph-name="scedilla" unicode="&#x15f;" horiz-adv-x="1064" vert-adv-y="2457" 
d="M524 -406q-130 0 -229 68l61 72q67 -31 129 -31q41 0 68 14.5t27 44.5q0 56 -70 56q-33 0 -76 -15l-49 70l92 96q-219 18 -326.5 121.5t-113.5 257.5h307q15 -155 205 -155q139 0 139 90q0 15 -3.5 28t-12 23.5t-16.5 18.5t-25 15.5t-29.5 12t-36.5 11t-39 10t-45.5 10
t-48.5 10.5q-62 15 -110.5 30.5t-100.5 43t-86 61t-56 83.5t-22 112q0 150 120.5 239.5t338.5 89.5q121 0 214 -29t147.5 -79.5t83 -112t32.5 -133.5h-307q-8 65 -46.5 97t-117.5 32q-129 0 -129 -84q0 -42 32 -58.5t129 -38.5q37 -8 58 -13q52 -12 88.5 -22t83 -27
t78 -34.5t65 -44.5t53 -58.5t32 -74.5t12.5 -94q0 -151 -101.5 -238t-293.5 -100l-56 -67v-4q89 10 154.5 -26.5t65.5 -111.5q0 -77 -77.5 -121.5t-191.5 -44.5z" />
    <glyph glyph-name="Scaron" unicode="&#x160;" horiz-adv-x="1345" vert-adv-y="2457" 
d="M713 -33q-193 0 -344 62t-239.5 183.5t-88.5 285.5h373q0 -121 80.5 -177.5t214.5 -56.5q100 0 153 36t53 95q0 28 -9 51.5t-30.5 42t-44.5 32.5t-62.5 28.5t-72 25t-85.5 26.5q-29 8 -44 13q-87 27 -149 51t-129 62t-108 81t-68 106t-27 139q0 93 28.5 168t79.5 126
t122.5 85t154.5 49.5t180 15.5q172 0 310 -56.5t222 -166t89 -254.5h-373q-12 85 -77 132.5t-171 47.5q-87 0 -137.5 -30t-50.5 -91q0 -69 57.5 -105t210.5 -81q213 -63 297 -102q189 -86 241 -226q23 -61 23 -135q0 -213 -153.5 -338t-425.5 -125zM291 1901h284l93 -166h4
l92 166h285l-220 -312h-319z" />
    <glyph glyph-name="scaron" unicode="&#x161;" horiz-adv-x="1064" vert-adv-y="2457" 
d="M555 -33q-133 0 -234 30t-160.5 84t-90 120.5t-33.5 146.5h307q15 -155 205 -155q139 0 139 90q0 15 -3.5 28t-12 23.5t-16.5 18.5t-25 15.5t-29.5 12t-36.5 11t-39 10t-45.5 10t-48.5 10.5q-62 15 -110.5 30.5t-100.5 43t-86 61t-56 83.5t-22 112q0 150 120.5 239.5
t338.5 89.5q121 0 214 -29t147.5 -79.5t83 -112t32.5 -133.5h-307q-8 65 -46.5 97t-117.5 32q-129 0 -129 -84q0 -42 32 -58.5t129 -38.5q37 -8 58 -13q52 -12 88.5 -22t83 -27t78 -34.5t65 -44.5t53 -58.5t32 -74.5t12.5 -94q0 -164 -121 -252t-348 -88zM152 1485h284
l92 -166h4l93 166h284l-219 -311h-319z" />
    <glyph glyph-name="Tcedilla" unicode="&#x162;" horiz-adv-x="1280" vert-adv-y="2457" 
d="M457 0v1163h-426v301h1218v-301h-424v-1163h-96l-80 -98v-4q89 10 154 -26.5t65 -111.5q0 -77 -77 -121.5t-191 -44.5q-130 0 -229 68l61 72q67 -31 129 -31q41 0 67.5 14.5t26.5 44.5q0 56 -69 56q-33 0 -76 -15l-49 70l121 127h-125z" />
    <glyph glyph-name="tcedilla" unicode="&#x163;" horiz-adv-x="747" vert-adv-y="2457" 
d="M29 803v246h145v292h328v-292h182v-246h-182v-455q0 -78 25.5 -100.5t80.5 -22.5q36 0 88 8v-231q-79 -19 -168 -22l-47 -58v-4q89 10 154 -26t65 -111q0 -77 -77 -121.5t-191 -44.5q-130 0 -229 68l61 71q65 -30 129 -30q41 0 67.5 14.5t26.5 44.5q0 55 -69 55
q-36 0 -76 -14l-49 70l92 98q-109 25 -160 109t-51 239v463h-145z" />
    <glyph glyph-name="Tcaron" unicode="&#x164;" horiz-adv-x="1280" vert-adv-y="2457" 
d="M457 0v1163h-426v301h1218v-301h-424v-1163h-368zM262 1901h285l92 -166h4l92 166h285l-219 -312h-320z" />
    <glyph glyph-name="tcaron" unicode="&#x165;" horiz-adv-x="747" vert-adv-y="2457" 
d="M502 -20q-173 0 -250.5 84.5t-77.5 275.5v463h-145v246h145v292h328v-292h182v-246h-182v-455q0 -78 25.5 -100.5t80.5 -22.5q36 0 88 8v-231q-96 -22 -194 -22zM575 1126l43 338h297l-147 -338h-193z" />
    <glyph glyph-name="Tbar" unicode="&#x166;" horiz-adv-x="1280" vert-adv-y="2457" 
d="M457 0v666h-262v184h262v313h-426v301h1218v-301h-424v-313h287v-184h-287v-666h-368z" />
    <glyph glyph-name="tbar" unicode="&#x167;" horiz-adv-x="757" vert-adv-y="2457" 
d="M37 479v185h145v139h-145v246h145v292h328v-292h182v-246h-182v-139h182v-185h-182v-131q0 -78 25.5 -100.5t80.5 -22.5q37 0 89 8v-231q-96 -22 -195 -22q-173 0 -250.5 84.5t-77.5 275.5v139h-145z" />
    <glyph glyph-name="Utilde" unicode="&#x168;" horiz-adv-x="1445" vert-adv-y="2457" 
d="M723 -33q-323 0 -467.5 139.5t-144.5 421.5v936h368v-936q0 -139 59.5 -199.5t184.5 -60.5t184.5 60.5t59.5 199.5v936h368v-936q0 -282 -144.5 -421.5t-467.5 -139.5zM356 1559q0 301 183 301q59 0 150 -41t128 -41q72 0 72 82h176q0 -301 -182 -301q-59 0 -151 39.5
t-128 39.5q-69 0 -69 -79h-179z" />
    <glyph glyph-name="utilde" unicode="&#x169;" horiz-adv-x="1189" vert-adv-y="2457" 
d="M424 -33q-155 0 -247.5 98t-92.5 275v709h328v-605q0 -115 39.5 -163t123.5 -48q197 0 197 209v607h328v-1049h-328v152h-4q-106 -185 -344 -185zM219 1143q0 301 182 301q59 0 150.5 -41t128.5 -41q72 0 72 82h176q0 -301 -183 -301q-59 0 -150.5 40t-127.5 40
q-70 0 -70 -80h-178z" />
    <glyph glyph-name="Umacron" unicode="&#x16a;" horiz-adv-x="1445" vert-adv-y="2457" 
d="M723 -33q-323 0 -467.5 139.5t-144.5 421.5v936h368v-936q0 -139 59.5 -199.5t184.5 -60.5t184.5 60.5t59.5 199.5v936h368v-936q0 -282 -144.5 -421.5t-467.5 -139.5zM430 1589v205h586v-205h-586z" />
    <glyph glyph-name="umacron" unicode="&#x16b;" horiz-adv-x="1189" vert-adv-y="2457" 
d="M424 -33q-155 0 -247.5 98t-92.5 275v709h328v-605q0 -115 39.5 -163t123.5 -48q197 0 197 209v607h328v-1049h-328v152h-4q-106 -185 -344 -185zM293 1174v204h586v-204h-586z" />
    <glyph glyph-name="Ubreve" unicode="&#x16c;" horiz-adv-x="1445" vert-adv-y="2457" 
d="M723 -33q-323 0 -467.5 139.5t-144.5 421.5v936h368v-936q0 -139 59.5 -199.5t184.5 -60.5t184.5 60.5t59.5 199.5v936h368v-936q0 -282 -144.5 -421.5t-467.5 -139.5zM395 1884h189q10 -110 139 -110t139 110h189q-6 -139 -96 -225t-232 -86q-141 0 -232.5 85t-95.5 226
z" />
    <glyph glyph-name="ubreve" unicode="&#x16d;" horiz-adv-x="1189" vert-adv-y="2457" 
d="M424 -33q-155 0 -247.5 98t-92.5 275v709h328v-605q0 -115 39.5 -163t123.5 -48q197 0 197 209v607h328v-1049h-328v152h-4q-106 -185 -344 -185zM258 1468h188q5 -52 40 -81t100 -29q129 0 139 110h188q-6 -139 -95.5 -225t-231.5 -86q-141 0 -232.5 85t-95.5 226z" />
    <glyph glyph-name="Uring" unicode="&#x16e;" horiz-adv-x="1445" vert-adv-y="2457" 
d="M723 -33q-323 0 -467.5 139.5t-144.5 421.5v936h368v-936q0 -139 59.5 -199.5t184.5 -60.5t184.5 60.5t59.5 199.5v936h368v-936q0 -282 -144.5 -421.5t-467.5 -139.5zM498 1741q0 98 65.5 159.5t159.5 61.5q95 0 160 -61t65 -160q0 -100 -65 -160.5t-160 -60.5
q-94 0 -159.5 60.5t-65.5 160.5zM637 1741q0 -44 24 -69t62 -25q42 0 65 24.5t23 69.5t-23 69.5t-65 24.5q-38 0 -62 -25t-24 -69z" />
    <glyph glyph-name="uring" unicode="&#x16f;" horiz-adv-x="1189" vert-adv-y="2457" 
d="M424 -33q-155 0 -247.5 98t-92.5 275v709h328v-605q0 -115 39.5 -163t123.5 -48q197 0 197 209v607h328v-1049h-328v152h-4q-106 -185 -344 -185zM360 1325q0 98 66 159.5t160 61.5q95 0 160 -61t65 -160q0 -100 -65 -160.5t-160 -60.5q-94 0 -160 60.5t-66 160.5z
M500 1325q0 -44 24 -69t62 -25q42 0 65 24.5t23 69.5t-23 69.5t-65 24.5q-38 0 -62 -25t-24 -69z" />
    <glyph glyph-name="Uhungarumlaut" unicode="&#x170;" horiz-adv-x="1445" vert-adv-y="2457" 
d="M723 -33q-323 0 -467.5 139.5t-144.5 421.5v936h368v-936q0 -139 59.5 -199.5t184.5 -60.5t184.5 60.5t59.5 199.5v936h368v-936q0 -282 -144.5 -421.5t-467.5 -139.5zM416 1589l125 312h317l-207 -312h-235zM776 1589l166 312h318l-248 -312h-236z" />
    <glyph glyph-name="uhungarumlaut" unicode="&#x171;" horiz-adv-x="1189" vert-adv-y="2457" 
d="M424 -33q-155 0 -247.5 98t-92.5 275v709h328v-605q0 -115 39.5 -163t123.5 -48q197 0 197 209v607h328v-1049h-328v152h-4q-106 -185 -344 -185zM279 1174l124 311h318l-207 -311h-235zM639 1174l166 311h317l-248 -311h-235z" />
    <glyph glyph-name="Uogonek" unicode="&#x172;" horiz-adv-x="1445" vert-adv-y="2457" 
d="M827 -360q-115 0 -174 44t-59 128q0 91 86 155q-300 9 -434.5 149t-134.5 412v936h368v-936q0 -139 59.5 -199.5t184.5 -60.5t184.5 60.5t59.5 199.5v936h368v-936q0 -234 -98.5 -369.5t-314.5 -174.5q-76 -65 -76 -107q0 -45 63 -45q33 0 84 14v-184q-86 -22 -166 -22z
" />
    <glyph glyph-name="uogonek" unicode="&#x173;" horiz-adv-x="1189" vert-adv-y="2457" 
d="M424 -33q-155 0 -247.5 98t-92.5 275v709h328v-605q0 -115 39.5 -163t123.5 -48q197 0 197 209v607h328v-1049h-58q-28 -24 -38.5 -33.5t-28 -27.5t-23.5 -32.5t-6 -29.5q0 -45 64 -45q33 0 84 14v-184q-86 -22 -166 -22q-115 0 -174.5 44t-59.5 128q0 65 41 113t99 75
h-62v152h-4q-106 -185 -344 -185z" />
    <glyph glyph-name="Wcircumflex" unicode="&#x174;" horiz-adv-x="1957" vert-adv-y="2457" 
d="M389 0l-373 1464h369l188 -993h5l227 993h348l227 -993h4l189 993h369l-373 -1464h-369l-219 913h-4l-219 -913h-369zM600 1589l219 312h320l219 -312h-285l-92 166h-4l-92 -166h-285z" />
    <glyph glyph-name="wcircumflex" unicode="&#x175;" horiz-adv-x="1617" vert-adv-y="2457" 
d="M297 0l-293 1049h328l157 -639h5l176 639h286l177 -639h6l157 639h318l-293 -1049h-307l-203 664h-4l-203 -664h-307zM430 1174l219 311h320l219 -311h-285l-92 165h-4l-92 -165h-285z" />
    <glyph glyph-name="Ycircumflex" unicode="&#x176;" horiz-adv-x="1366" vert-adv-y="2457" 
d="M500 0v541l-500 923h397l285 -622h4l287 622h389l-494 -923v-541h-368zM307 1589l219 312h320l219 -312h-285l-92 166h-4l-92 -166h-285z" />
    <glyph glyph-name="ycircumflex" unicode="&#x177;" horiz-adv-x="1124" vert-adv-y="2457" 
d="M315 -362q-96 0 -196 20v250q52 -6 98 -6q21 0 34 0.5t34.5 3.5t36.5 10.5t31.5 19t28.5 31.5t19 47l-417 1035h338l245 -691h4l226 691h323l-383 -1051q-46 -126 -97.5 -201.5t-131.5 -117t-193 -41.5zM174 1174l219 311h320l219 -311h-285l-92 165h-4l-92 -165h-285z
" />
    <glyph glyph-name="Ydieresis" unicode="&#x178;" horiz-adv-x="1366" vert-adv-y="2457" 
d="M500 0v541l-500 923h397l285 -622h4l287 622h389l-494 -923v-541h-368zM309 1589v291h328v-291h-328zM735 1589v291h328v-291h-328z" />
    <glyph glyph-name="Zacute" unicode="&#x179;" horiz-adv-x="1255" vert-adv-y="2457" 
d="M53 0v301l670 858v4h-629v301h1080v-301l-670 -858v-4h690v-301h-1141zM522 1589l109 312h368l-231 -312h-246z" />
    <glyph glyph-name="zacute" unicode="&#x17a;" horiz-adv-x="1026" vert-adv-y="2457" 
d="M39 0v236l510 563v4h-469v246h878v-236l-509 -563v-4h530v-246h-940zM385 1174l109 311h368l-231 -311h-246z" />
    <glyph glyph-name="Zdotaccent" unicode="&#x17b;" horiz-adv-x="1255" vert-adv-y="2457" 
d="M53 0v301l670 858v4h-629v301h1080v-301l-670 -858v-4h690v-301h-1141zM481 1589v291h328v-291h-328z" />
    <glyph glyph-name="zdotaccent" unicode="&#x17c;" horiz-adv-x="1026" vert-adv-y="2457" 
d="M39 0v236l510 563v4h-469v246h878v-236l-509 -563v-4h530v-246h-940zM344 1174v290h328v-290h-328z" />
    <glyph glyph-name="Zcaron" unicode="&#x17d;" horiz-adv-x="1255" vert-adv-y="2457" 
d="M53 0v301l670 858v4h-629v301h1080v-301l-670 -858v-4h690v-301h-1141zM266 1901h285l92 -166h4l92 166h285l-219 -312h-320z" />
    <glyph glyph-name="zcaron" unicode="&#x17e;" horiz-adv-x="1026" vert-adv-y="2457" 
d="M39 0v236l510 563v4h-469v246h878v-236l-509 -563v-4h530v-246h-940zM129 1485h285l92 -166h4l92 166h285l-219 -311h-320z" />
    <glyph glyph-name="florin" unicode="&#x192;" horiz-adv-x="1085" vert-adv-y="2457" 
d="M221 -287q-80 0 -178 23l-14 233q54 -10 100 -10q75 0 104 36t48 130l110 571h-133l8 246h174l35 180q37 191 131 276t268 85q87 0 193 -23l-63 -233q-34 10 -68 10q-68 0 -96 -36.5t-47 -129.5l-25 -129h170l-8 -246h-211l-121 -622q-37 -191 -126 -276t-251 -85z" />
    <glyph glyph-name="Scommaaccent" unicode="&#x218;" horiz-adv-x="1345" vert-adv-y="2457" 
d="M713 -33q-193 0 -344 62t-239.5 183.5t-88.5 285.5h373q0 -121 80.5 -177.5t214.5 -56.5q100 0 153 36t53 95q0 28 -9 51.5t-30.5 42t-44.5 32.5t-62.5 28.5t-72 25t-85.5 26.5q-29 8 -44 13q-87 27 -149 51t-129 62t-108 81t-68 106t-27 139q0 93 28.5 168t79.5 126
t122.5 85t154.5 49.5t180 15.5q172 0 310 -56.5t222 -166t89 -254.5h-373q-12 85 -77 132.5t-171 47.5q-87 0 -137.5 -30t-50.5 -91q0 -69 57.5 -105t210.5 -81q213 -63 297 -102q189 -86 241 -226q23 -61 23 -135q0 -213 -153.5 -338t-425.5 -125zM555 -539v97
q147 17 147 133h-147v209h311v-209q0 -93 -81 -154t-230 -76z" />
    <glyph glyph-name="scommaaccent" unicode="&#x219;" horiz-adv-x="1064" vert-adv-y="2457" 
d="M555 -33q-133 0 -234 30t-160.5 84t-90 120.5t-33.5 146.5h307q15 -155 205 -155q139 0 139 90q0 15 -3.5 28t-12 23.5t-16.5 18.5t-25 15.5t-29.5 12t-36.5 11t-39 10t-45.5 10t-48.5 10.5q-62 15 -110.5 30.5t-100.5 43t-86 61t-56 83.5t-22 112q0 150 120.5 239.5
t338.5 89.5q121 0 214 -29t147.5 -79.5t83 -112t32.5 -133.5h-307q-8 65 -46.5 97t-117.5 32q-129 0 -129 -84q0 -42 32 -58.5t129 -38.5q37 -8 58 -13q52 -12 88.5 -22t83 -27t78 -34.5t65 -44.5t53 -58.5t32 -74.5t12.5 -94q0 -164 -121 -252t-348 -88zM410 -539v97
q147 17 147 133h-147v209h311v-209q0 -93 -81 -154t-230 -76z" />
    <glyph glyph-name="Tcommaaccent" unicode="&#x21a;" horiz-adv-x="1280" vert-adv-y="2457" 
d="M457 0v1163h-426v301h1218v-301h-424v-1163h-368zM485 -539v97q148 17 148 133h-148v209h312v-209q0 -93 -81.5 -154t-230.5 -76z" />
    <glyph glyph-name="tcommaaccent" unicode="&#x21b;" horiz-adv-x="747" vert-adv-y="2457" 
d="M502 -20q-173 0 -250.5 84.5t-77.5 275.5v463h-145v246h145v292h328v-292h182v-246h-182v-455q0 -78 25.5 -100.5t80.5 -22.5q36 0 88 8v-231q-96 -22 -194 -22zM317 -518v96q148 17 148 133h-148v209h312v-209q0 -93 -81.5 -153.5t-230.5 -75.5z" />
    <glyph glyph-name="jdotless" unicode="&#x237;" horiz-adv-x="507" vert-adv-y="2457" 
d="M90 -375q-83 0 -182 21v250q58 -7 76 -7q55 0 80.5 23.5t25.5 101.5v1035h328v-1018q0 -200 -77 -303t-251 -103z" />
    <glyph glyph-name="circumflex" unicode="&#x2c6;" horiz-adv-x="921" vert-adv-y="2457" 
d="M82 1174l219 311h320l219 -311h-285l-92 165h-4l-92 -165h-285z" />
    <glyph glyph-name="caron" unicode="&#x2c7;" horiz-adv-x="921" vert-adv-y="2457" 
d="M301 1174l-219 311h285l92 -166h4l92 166h285l-219 -311h-320z" />
    <glyph glyph-name="breve" unicode="&#x2d8;" horiz-adv-x="819" vert-adv-y="2457" 
d="M410 1153q-141 0 -232.5 85t-95.5 226h188q5 -52 40 -81t100 -29q129 0 139 110h188q-6 -139 -95.5 -225t-231.5 -86z" />
    <glyph glyph-name="dotaccent" unicode="&#x2d9;" horiz-adv-x="491" vert-adv-y="2457" 
d="M82 1174v290h328v-290h-328z" />
    <glyph glyph-name="ring" unicode="&#x2da;" horiz-adv-x="581" vert-adv-y="2457" 
d="M291 1059q-94 0 -159.5 60.5t-65.5 160.5q0 98 65.5 159.5t159.5 61.5q95 0 160 -61t65 -160q0 -100 -65 -160.5t-160 -60.5zM205 1280q0 -44 24 -69t62 -25q42 0 65 24.5t23 69.5t-23 69.5t-65 24.5q-38 0 -62 -25t-24 -69z" />
    <glyph glyph-name="ogonek" unicode="&#x2db;" horiz-adv-x="563" vert-adv-y="2457" 
d="M315 -362q-115 0 -174 44t-59 128q0 66 42 114t101 76h207q-36 -30 -51 -44.5t-31 -37.5t-16 -43q0 -45 63 -45q33 0 84 14v-184q-86 -22 -166 -22z" />
    <glyph glyph-name="tilde" unicode="&#x2dc;" horiz-adv-x="872" vert-adv-y="2457" 
d="M82 1143q0 301 182 301q59 0 150.5 -41t128.5 -41q71 0 71 82h177q0 -301 -183 -301q-59 0 -150.5 40t-127.5 40q-70 0 -70 -80h-178z" />
    <glyph glyph-name="hungarumlaut" unicode="&#x2dd;" horiz-adv-x="1071" vert-adv-y="2457" 
d="M494 1174l165 311h318l-248 -311h-235zM133 1174l125 311h317l-206 -311h-236z" />
    <glyph glyph-name="gravecomb" unicode="&#x300;" vert-adv-y="2457" 
d="M293 1174l-191 311h328l109 -311h-246z" />
    <glyph glyph-name="acutecomb" unicode="&#x301;" vert-adv-y="2457" 
d="M82 1174l108 311h369l-231 -311h-246z" />
    <glyph glyph-name="circumflexcomb" unicode="&#x302;" vert-adv-y="2457" 
d="M82 1174l219 311h320l219 -311h-285l-92 165h-4l-92 -165h-285z" />
    <glyph glyph-name="tildecomb" unicode="&#x303;" vert-adv-y="2457" 
d="M82 1143q0 301 182 301q59 0 150.5 -41t128.5 -41q71 0 71 82h177q0 -301 -183 -301q-59 0 -150.5 40t-127.5 40q-70 0 -70 -80h-178z" />
    <glyph glyph-name="macroncomb" unicode="&#x304;" vert-adv-y="2457" 
d="M82 1174v204h586v-204h-586z" />
    <glyph glyph-name="brevecomb" unicode="&#x306;" vert-adv-y="2457" 
d="M410 1153q-141 0 -232.5 85t-95.5 226h188q5 -52 40 -81t100 -29q129 0 139 110h188q-6 -139 -95.5 -225t-231.5 -86z" />
    <glyph glyph-name="dotaccentcomb" unicode="&#x307;" vert-adv-y="2457" 
d="M82 1174v290h328v-290h-328z" />
    <glyph glyph-name="dieresiscomb" unicode="&#x308;" vert-adv-y="2457" 
d="M522 1174v290h328v-290h-328zM96 1174v290h328v-290h-328z" />
    <glyph glyph-name="ringcomb" unicode="&#x30a;" vert-adv-y="2457" 
d="M291 1100q-94 0 -159.5 60.5t-65.5 160.5q0 98 65.5 159.5t159.5 61.5q95 0 160 -61t65 -160q0 -100 -65 -160.5t-160 -60.5zM205 1321q0 -44 24 -69t62 -25q42 0 65 24.5t23 69.5t-23 69.5t-65 24.5q-38 0 -62 -25t-24 -69z" />
    <glyph glyph-name="hungarumlautcomb" unicode="&#x30b;" vert-adv-y="2457" 
d="M494 1174l165 311h318l-248 -311h-235zM133 1174l125 311h317l-206 -311h-236z" />
    <glyph glyph-name="caroncomb" unicode="&#x30c;" vert-adv-y="2457" 
d="M301 1174l-219 311h285l92 -166h4l92 166h285l-219 -311h-320z" />
    <glyph glyph-name="commaturnedabovecomb" unicode="&#x312;" vert-adv-y="2457" 
d="M82 1384q0 95 81 157t230 75v-96q-147 -17 -147 -136h147v-210h-311v210z" />
    <glyph glyph-name="commaaccentcomb" unicode="&#x326;" vert-adv-y="2457" 
d="M82 -442q147 17 147 133h-147v209h311v-209q0 -93 -81 -154t-230 -76v97z" />
    <glyph glyph-name="cedillacomb" unicode="&#x327;" vert-adv-y="2457" 
d="M334 -406q-131 0 -230 68l62 72q67 -31 129 -31q41 0 67.5 14.5t26.5 44.5q0 56 -70 56q-32 0 -75 -15l-49 70l120 127h148l-80 -98v-4q89 10 154 -26.5t65 -111.5q0 -77 -77 -121.5t-191 -44.5z" />
    <glyph glyph-name="ogonekcomb" unicode="&#x328;" vert-adv-y="2457" 
d="M315 -362q-115 0 -174 44t-59 128q0 66 42 114t101 76h207q-36 -30 -51 -44.5t-31 -37.5t-16 -43q0 -45 63 -45q33 0 84 14v-184q-86 -22 -166 -22z" />
    <glyph glyph-name="strokeshortcomb" unicode="&#x335;" vert-adv-y="2457" 
d="M82 666v184h917v-184h-917z" />
    <glyph glyph-name="strokelongcomb" unicode="&#x336;" vert-adv-y="2457" 
d="M82 586v301h1106v-301h-1106z" />
    <glyph glyph-name="slashshortcomb" unicode="&#x337;" vert-adv-y="2457" 
d="M168 -27l-86 88l1010 1012l88 -86z" />
    <glyph glyph-name="slashlongcomb" unicode="&#x338;" vert-adv-y="2457" 
d="M168 -27l-86 88l1010 1012l88 -86z" />
    <glyph glyph-name="Delta" unicode="&#x394;" horiz-adv-x="1404" vert-adv-y="2457" 
d="M43 0v301l459 1163h401l459 -1163v-301h-1319zM385 291h633l-307 835h-19z" />
    <glyph glyph-name="Omega" unicode="&#x3a9;" horiz-adv-x="1638" vert-adv-y="2457" 
d="M70 0v299h313q-139 85 -213 221t-74 316q0 298 194 477.5t529 179.5t529 -179.5t194 -477.5q0 -180 -74 -316t-213 -221h314v-299h-647v276q264 169 264 506q0 208 -96 312t-271 104q-174 0 -270 -104t-96 -312q0 -337 264 -506v-276h-647z" />
    <glyph glyph-name="mu" unicode="&#x3bc;" horiz-adv-x="1196" vert-adv-y="2457" 
d="M90 -362v1411h328v-605q0 -115 39.5 -163t124.5 -48q196 0 196 209v607h328v-1049h-328v152h-4q-41 -84 -112.5 -128t-149.5 -44q-53 0 -94 20v-362h-328z" />
    <glyph glyph-name="pi" unicode="&#x3c0;" horiz-adv-x="1263" vert-adv-y="2457" 
d="M195 0v803h-162v246h1173v-246h-166v-455q0 -78 21.5 -100.5t68.5 -22.5q27 0 68 8v-231q-84 -22 -174 -22q-164 0 -237.5 84.5t-73.5 275.5v463h-191v-803h-327z" />
    <glyph glyph-name="Iegrave-cy" unicode="&#x400;" horiz-adv-x="1314" vert-adv-y="2457" 
d="M123 0v1464h1110v-301h-741v-260h638v-301h-638v-301h753v-301h-1122zM367 1905h327l109 -312h-246z" />
    <glyph glyph-name="Io-cy" unicode="&#x401;" horiz-adv-x="1314" vert-adv-y="2457" 
d="M123 0v1464h1110v-301h-741v-260h638v-301h-638v-301h753v-301h-1122zM307 1589v291h328v-291h-328zM733 1589v291h328v-291h-328z" />
    <glyph glyph-name="Dje-cy" unicode="&#x402;" horiz-adv-x="1579" vert-adv-y="2457" 
d="M1112 -375q-130 0 -244 31v311q32 -11 80 -20.5t70 -9.5q29 0 45 3t33.5 13.5t25.5 35.5t8 66v408q0 99 -55 154t-162 55q-104 0 -168.5 -62.5t-64.5 -167.5v-442h-369v1163h-276v301h1093v-301h-448v-393h4q61 95 169.5 152t223.5 57q201 0 311.5 -117t110.5 -338v-510
q0 -189 -102.5 -289t-284.5 -100z" />
    <glyph glyph-name="Gje-cy" unicode="&#x403;" horiz-adv-x="1107" vert-adv-y="2457" 
d="M123 0v1464h954v-301h-585v-1163h-369zM530 1589l109 312h369l-232 -312h-246z" />
    <glyph glyph-name="E-cy" unicode="&#x404;" horiz-adv-x="1488" vert-adv-y="2457" 
d="M795 -29q-153 0 -287.5 54t-233.5 151.5t-156 242.5t-57 318q0 227 97 400t264.5 264.5t378.5 91.5q129 0 243.5 -39.5t197.5 -108t136.5 -162.5t67.5 -202h-373q-18 90 -91.5 150.5t-186.5 60.5q-134 0 -224.5 -82.5t-119.5 -232.5h430v-246h-437q19 -175 102 -267
t230 -92q128 0 208.5 68.5t88.5 175.5h373q-9 -240 -185.5 -392.5t-465.5 -152.5z" />
    <glyph glyph-name="Dze-cy" unicode="&#x405;" horiz-adv-x="1345" vert-adv-y="2457" 
d="M713 -33q-193 0 -344 62t-239.5 183.5t-88.5 285.5h373q0 -121 80.5 -177.5t214.5 -56.5q100 0 153 36t53 95q0 28 -9 51.5t-30.5 42t-44.5 32.5t-62.5 28.5t-72 25t-85.5 26.5q-29 8 -44 13q-87 27 -149 51t-129 62t-108 81t-68 106t-27 139q0 93 28.5 168t79.5 126
t122.5 85t154.5 49.5t180 15.5q172 0 310 -56.5t222 -166t89 -254.5h-373q-12 85 -77 132.5t-171 47.5q-87 0 -137.5 -30t-50.5 -91q0 -69 57.5 -105t210.5 -81q213 -63 297 -102q189 -86 241 -226q23 -61 23 -135q0 -213 -153.5 -338t-425.5 -125z" />
    <glyph glyph-name="I-cy" unicode="&#x406;" horiz-adv-x="614" vert-adv-y="2457" 
d="M123 0v1464h369v-1464h-369z" />
    <glyph glyph-name="Yi-cy" unicode="&#x407;" horiz-adv-x="614" vert-adv-y="2457" 
d="M123 0v1464h369v-1464h-369zM-70 1589v291h328v-291h-328zM356 1589v291h328v-291h-328z" />
    <glyph glyph-name="Je-cy" unicode="&#x408;" horiz-adv-x="1148" vert-adv-y="2457" 
d="M535 -33q-117 0 -206 27.5t-144.5 73.5t-90 114t-48 141.5t-13.5 163.5v123h327v-123q0 -111 34 -165t120 -54t120 54t34 165v977h368v-977q0 -90 -13.5 -163.5t-48 -141.5t-89.5 -114t-144 -73.5t-206 -27.5z" />
    <glyph glyph-name="Lje-cy" unicode="&#x409;" horiz-adv-x="2095" vert-adv-y="2457" 
d="M225 -31q-163 0 -211 25v315q58 -20 129 -20q56 0 84.5 39t32.5 123l64 1013h981v-452h223q245 0 389.5 -136.5t144.5 -363.5q0 -240 -149 -376t-406 -136h-571v1163h-293l-47 -755q-26 -439 -371 -439zM1305 301h192q89 0 139 54.5t50 156.5q0 87 -46.5 143t-123.5 56
h-211v-410z" />
    <glyph glyph-name="Nje-cy" unicode="&#x40a;" horiz-adv-x="2193" vert-adv-y="2457" 
d="M123 0v1464h369v-514h501v514h369v-514h264q249 0 392 -123t143 -346q0 -237 -147 -359t-408 -122h-613v649h-501v-649h-369zM1362 301h233q93 0 141 41t48 139q0 84 -45 126t-125 42h-252v-348z" />
    <glyph glyph-name="Tshe-cy" unicode="&#x40b;" horiz-adv-x="1579" vert-adv-y="2457" 
d="M311 0v1163h-276v301h1093v-301h-448v-393h4q63 95 170.5 152t222.5 57q201 0 311.5 -117t110.5 -338v-524h-369v463q0 99 -55 154t-162 55q-104 0 -168.5 -62.5t-64.5 -167.5v-442h-369z" />
    <glyph glyph-name="Kje-cy" unicode="&#x40c;" horiz-adv-x="1474" vert-adv-y="2457" 
d="M1051 0l-455 555h-104v-555h-369v1464h369v-608h104l483 608h398l-584 -723l620 -741h-462zM616 1589l109 312h369l-232 -312h-246z" />
    <glyph glyph-name="Iigrave-cy" unicode="&#x40d;" horiz-adv-x="1546" vert-adv-y="2457" 
d="M123 0v1464h369v-909h4l559 909h368v-1464h-368v909h-4l-559 -909h-369zM449 1905h327l109 -312h-246z" />
    <glyph glyph-name="Ushort-cy" unicode="&#x40e;" horiz-adv-x="1372" vert-adv-y="2457" 
d="M260 0l225 438l-469 1026h369l293 -641h4l322 641h352l-740 -1464h-356zM356 1884h189q10 -110 139 -110t139 110h189q-6 -139 -96 -225t-232 -86q-141 0 -232.5 85t-95.5 226z" />
    <glyph glyph-name="Dzhe-cy" unicode="&#x40f;" horiz-adv-x="1464" vert-adv-y="2457" 
d="M569 -268v268h-446v1464h369v-1163h481v1163h368v-1464h-444v-268h-328z" />
    <glyph glyph-name="A-cy" unicode="&#x410;" horiz-adv-x="1466" vert-adv-y="2457" 
d="M-10 0l557 1464h371l561 -1464h-404l-94 305h-502l-94 -305h-395zM563 586h336l-166 540h-4z" />
    <glyph glyph-name="Be-cy" unicode="&#x411;" horiz-adv-x="1304" vert-adv-y="2457" 
d="M123 0v1464h995v-301h-626v-213h243q256 0 395.5 -125.5t139.5 -339.5q0 -231 -143.5 -358t-411.5 -127h-592zM492 301h213q92 0 140 46.5t48 137.5q0 72 -44 118t-126 46h-231v-348z" />
    <glyph glyph-name="Ve-cy" unicode="&#x412;" horiz-adv-x="1413" vert-adv-y="2457" 
d="M123 0v1464h711q464 0 464 -368q0 -126 -63 -202t-164 -110v-4q126 -22 205.5 -108t79.5 -240q0 -432 -502 -432h-731zM492 301h256q121 0 176 37.5t55 136.5t-54.5 135.5t-176.5 36.5h-256v-346zM492 872h245q87 0 136 31t49 115q0 44 -14 73.5t-41 44.5t-57.5 21
t-72.5 6h-245v-291z" />
    <glyph glyph-name="Ge-cy" unicode="&#x413;" horiz-adv-x="1107" vert-adv-y="2457" 
d="M123 0v1464h954v-301h-585v-1163h-369z" />
    <glyph glyph-name="De-cy" unicode="&#x414;" horiz-adv-x="1574" vert-adv-y="2457" 
d="M12 -266v565h107q85 0 118 81.5t44 287.5l41 796h1044v-1165h154v-565h-328v264h-852v-264h-328zM524 299h473v864h-348l-41 -579q-14 -196 -84 -281v-4z" />
    <glyph glyph-name="Ie-cy" unicode="&#x415;" horiz-adv-x="1314" vert-adv-y="2457" 
d="M123 0v1464h1110v-301h-741v-260h638v-301h-638v-301h753v-301h-1122z" />
    <glyph glyph-name="Zhe-cy" unicode="&#x416;" horiz-adv-x="2048" vert-adv-y="2457" 
d="M-12 0l463 733l-439 731h383l340 -608h105v608h368v-608h105l340 608h383l-439 -731l463 -733h-415l-332 555h-105v-555h-368v555h-105l-332 -555h-415z" />
    <glyph glyph-name="Ze-cy" unicode="&#x417;" horiz-adv-x="1300" vert-adv-y="2457" 
d="M649 -35q-286 0 -448 128t-162 345h377q16 -84 71 -128t172 -44q89 0 149 48.5t60 117.5q0 87 -57.5 129.5t-159.5 42.5h-174v246h166q81 0 122.5 48t41.5 122q0 69 -52.5 122.5t-129.5 53.5q-80 0 -136.5 -47.5t-56.5 -116.5h-377q15 207 168 336t402 129
q252 0 405.5 -112t153.5 -306q0 -127 -72.5 -213t-183.5 -135v-4q60 -10 113.5 -33t101 -61.5t75 -100t27.5 -139.5q0 -98 -48 -180t-130.5 -135.5t-190 -83t-227.5 -29.5z" />
    <glyph glyph-name="Ii-cy" unicode="&#x418;" horiz-adv-x="1546" vert-adv-y="2457" 
d="M123 0v1464h369v-909h4l559 909h368v-1464h-368v909h-4l-559 -909h-369z" />
    <glyph glyph-name="Iishort-cy" unicode="&#x419;" horiz-adv-x="1546" vert-adv-y="2457" 
d="M123 0v1464h369v-909h4l559 909h368v-1464h-368v909h-4l-559 -909h-369zM438 1884h189q10 -110 139 -110t139 110h189q-6 -139 -96 -225t-232 -86q-141 0 -232.5 85t-95.5 226z" />
    <glyph glyph-name="Ka-cy" unicode="&#x41a;" horiz-adv-x="1474" vert-adv-y="2457" 
d="M1051 0l-455 555h-104v-555h-369v1464h369v-608h104l483 608h398l-584 -723l620 -741h-462z" />
    <glyph glyph-name="El-cy" unicode="&#x41b;" horiz-adv-x="1462" vert-adv-y="2457" 
d="M225 -31q-163 0 -211 25v315q58 -20 129 -20q56 0 84.5 39t32.5 123l64 1013h1015v-1464h-368v1163h-328l-47 -755q-26 -439 -371 -439z" />
    <glyph glyph-name="Em-cy" unicode="&#x41c;" horiz-adv-x="1753" vert-adv-y="2457" 
d="M123 0v1464h450l301 -934h5l301 934h450v-1464h-348v911h-4l-272 -911h-258l-273 911h-4v-911h-348z" />
    <glyph glyph-name="En-cy" unicode="&#x41d;" horiz-adv-x="1484" vert-adv-y="2457" 
d="M123 0v1464h369v-573h501v573h369v-1464h-369v590h-501v-590h-369z" />
    <glyph glyph-name="O-cy" unicode="&#x41e;" horiz-adv-x="1572" vert-adv-y="2457" 
d="M786 -33q-171 0 -309 57.5t-228.5 160t-139 242.5t-48.5 306q0 222 83 393t249 271t393 100q225 0 391 -99.5t250 -271.5t84 -393q0 -166 -49 -306.5t-140 -242.5t-228.5 -159.5t-307.5 -57.5zM438 733q0 -465 348 -465q97 0 166.5 36t108.5 101.5t56.5 146t17.5 181.5
q0 100 -17.5 180t-56.5 145.5t-108.5 101.5t-166.5 36q-348 0 -348 -463z" />
    <glyph glyph-name="Pe-cy" unicode="&#x41f;" horiz-adv-x="1464" vert-adv-y="2457" 
d="M123 0v1464h1218v-1464h-368v1163h-481v-1163h-369z" />
    <glyph glyph-name="Er-cy" unicode="&#x420;" horiz-adv-x="1361" vert-adv-y="2457" 
d="M123 0v1464h711q233 0 364 -120t131 -347t-131 -347t-364 -120h-342v-530h-369zM492 831h256q100 0 152 38.5t52 127.5t-52 127.5t-152 38.5h-256v-332z" />
    <glyph glyph-name="Es-cy" unicode="&#x421;" horiz-adv-x="1464" vert-adv-y="2457" 
d="M762 -33q-137 0 -251 37t-197 105t-140 162.5t-85 209t-28 246.5q0 169 46.5 310t135 243.5t224 159.5t305.5 57q147 0 264 -42t196.5 -119t126.5 -182t60 -234h-377q-11 64 -29 111t-50.5 86t-84 59t-122.5 20q-89 0 -152 -33t-98.5 -96.5t-51.5 -145t-16 -188.5
q0 -108 15.5 -190t51.5 -145.5t99 -96.5t152 -33q72 0 124 20t84 59.5t50 87.5t28 114h377q-26 -262 -195.5 -422t-461.5 -160z" />
    <glyph glyph-name="Te-cy" unicode="&#x422;" horiz-adv-x="1280" vert-adv-y="2457" 
d="M457 0v1163h-426v301h1218v-301h-424v-1163h-368z" />
    <glyph glyph-name="U-cy" unicode="&#x423;" horiz-adv-x="1372" vert-adv-y="2457" 
d="M260 0l225 438l-469 1026h369l293 -641h4l322 641h352l-740 -1464h-356z" />
    <glyph glyph-name="Ef-cy" unicode="&#x424;" horiz-adv-x="1662" vert-adv-y="2457" 
d="M657 0v145q-282 37 -443 190t-161 388t160.5 386.5t443.5 188.5v166h349v-166q283 -37 443.5 -188.5t160.5 -386.5t-161 -388t-443 -190v-145h-349zM430 723q0 -108 59.5 -184.5t167.5 -112.5v592q-108 -34 -167.5 -110.5t-59.5 -184.5zM1006 426q108 36 167.5 112.5
t59.5 184.5t-59.5 184.5t-167.5 110.5v-592z" />
    <glyph glyph-name="Ha-cy" unicode="&#x425;" horiz-adv-x="1366" vert-adv-y="2457" 
d="M-18 0l485 748l-444 716h389l268 -446h4l270 446h389l-444 -712l485 -752h-409l-291 475h-4l-289 -475h-409z" />
    <glyph glyph-name="Tse-cy" unicode="&#x426;" horiz-adv-x="1558" vert-adv-y="2457" 
d="M1178 -268v268h-1055v1464h369v-1163h481v1163h368v-1163h164v-569h-327z" />
    <glyph glyph-name="Che-cy" unicode="&#x427;" horiz-adv-x="1372" vert-adv-y="2457" 
d="M881 0v633h-4q-63 -96 -166.5 -152.5t-216.5 -56.5q-187 0 -299.5 123.5t-112.5 331.5v585h369v-524q0 -97 55.5 -153t150.5 -56q134 0 224 131v602h368v-1464h-368z" />
    <glyph glyph-name="Sha-cy" unicode="&#x428;" horiz-adv-x="1986" vert-adv-y="2457" 
d="M123 0v1464h369v-1163h317v1163h369v-1163h317v1163h369v-1464h-1741z" />
    <glyph glyph-name="Shcha-cy" unicode="&#x429;" horiz-adv-x="2080" vert-adv-y="2457" 
d="M1700 -268v268h-1577v1464h369v-1163h317v1163h369v-1163h317v1163h369v-1163h164v-569h-328z" />
    <glyph glyph-name="Hardsign-cy" unicode="&#x42a;" horiz-adv-x="1513" vert-adv-y="2457" 
d="M313 0v1163h-286v301h655v-452h264q245 0 390 -136.5t145 -363.5q0 -240 -149 -376t-406 -136h-613zM682 301h233q89 0 139 54.5t50 156.5q0 87 -46.5 143t-123.5 56h-252v-410z" />
    <glyph glyph-name="Yeru-cy" unicode="&#x42b;" horiz-adv-x="1863" vert-adv-y="2457" 
d="M123 0v1464h369v-452h223q245 0 389.5 -136.5t144.5 -363.5q0 -240 -149 -376t-406 -136h-571zM492 301h192q89 0 138.5 54.5t49.5 156.5q0 87 -46.5 143t-123.5 56h-210v-410zM1372 0v1464h369v-1464h-369z" />
    <glyph glyph-name="Softsign-cy" unicode="&#x42c;" horiz-adv-x="1323" vert-adv-y="2457" 
d="M123 0v1464h369v-452h264q245 0 389.5 -136.5t144.5 -363.5q0 -240 -149 -376t-406 -136h-612zM492 301h233q89 0 138.5 54.5t49.5 156.5q0 87 -46.5 143t-123.5 56h-251v-410z" />
    <glyph glyph-name="Ereversed-cy" unicode="&#x42d;" horiz-adv-x="1488" vert-adv-y="2457" 
d="M719 -29q-291 0 -479 153.5t-197 391.5h373q8 -106 91 -175t212 -69q146 0 226.5 92.5t98.5 266.5h-436v246h432q-25 153 -107.5 234t-217.5 81q-124 0 -202.5 -60t-96.5 -151h-373q14 108 70 202t143.5 162.5t208 108t256.5 39.5q317 0 511.5 -204.5t194.5 -549.5
q0 -174 -53 -318.5t-147 -242.5t-224.5 -152.5t-283.5 -54.5z" />
    <glyph glyph-name="Yu-cy" unicode="&#x42e;" horiz-adv-x="2048" vert-adv-y="2457" 
d="M1339 -33q-278 0 -442 162t-195 467h-210v-596h-369v1464h369v-567h215q35 291 198 445.5t434 154.5q309 0 476 -198.5t167 -565.5q0 -369 -167 -567.5t-476 -198.5zM1073 733q0 -225 70.5 -345t195.5 -120t196 120t71 345t-71 344t-196 119t-195.5 -119t-70.5 -344z" />
    <glyph glyph-name="Ya-cy" unicode="&#x42f;" horiz-adv-x="1411" vert-adv-y="2457" 
d="M27 12q17 30 33.5 91.5t29 123.5t38.5 133.5t59 128.5t93 102t138 60v4q-309 74 -309 389q0 183 139 301.5t370 118.5h670v-1464h-368v510h-175q-73 0 -127 -30t-82.5 -75.5t-47.5 -106t-26 -113.5t-15 -107t-17 -78h-403v12zM485 989q0 -93 45.5 -145.5t131.5 -52.5h258
v372h-285q-67 0 -108.5 -50t-41.5 -124z" />
    <glyph glyph-name="a-cy" unicode="&#x430;" horiz-adv-x="1155" vert-adv-y="2457" 
d="M381 -33q-153 0 -243.5 83.5t-90.5 223.5q0 79 30.5 139t88 100t125 65.5t158.5 44.5q15 3 50.5 10t55 11.5t50.5 13t48.5 18t36 22.5t27 30.5t8.5 39.5q0 44 -35 69t-104 25q-90 0 -134.5 -37t-52.5 -114h-311q4 78 35 143.5t91 117.5t158.5 81.5t227.5 29.5
q222 0 332 -101t110 -335v-405q0 -44 7.5 -62t31.5 -18q15 0 27 2v-156q-99 -18 -180 -18q-94 0 -139 34t-58 103h-4q-59 -73 -148 -116.5t-198 -43.5zM383 309q0 -116 135 -116q94 0 150.5 68t56.5 163v88q-55 -20 -178 -49q-88 -21 -126 -58.5t-38 -95.5z" />
    <glyph glyph-name="be-cy" unicode="&#x431;" horiz-adv-x="1212" vert-adv-y="2457" 
d="M623 -35q-266 0 -415 174.5t-149 505.5q0 328 133.5 518.5t370.5 218.5l205 25q72 8 107.5 24t35.5 33h246q0 -76 -21.5 -132t-61.5 -89.5t-87 -51.5t-108 -26l-254 -32q-131 -16 -213.5 -104.5t-96.5 -252.5h4q48 144 169.5 225.5t261.5 81.5q188 0 300.5 -148
t112.5 -411t-144 -411t-396 -148zM391 522q0 -138 66.5 -224.5t165.5 -86.5q89 0 148.5 87.5t59.5 225.5q0 140 -59.5 227t-148.5 87q-98 0 -165 -88.5t-67 -227.5z" />
    <glyph glyph-name="ve-cy" unicode="&#x432;" horiz-adv-x="1120" vert-adv-y="2457" 
d="M90 0v1049h541q173 0 279 -79.5t106 -195.5q0 -97 -58 -159t-151 -68v-4q50 -4 95.5 -18t87 -39t66.5 -69t25 -100q0 -317 -426 -317h-565zM418 246h219q113 0 113 94q0 86 -95 86h-237v-180zM418 631h205q82 0 82 88q0 84 -82 84h-205v-172z" />
    <glyph glyph-name="ge-cy" unicode="&#x433;" horiz-adv-x="856" vert-adv-y="2457" 
d="M90 0v1049h746v-246h-418v-803h-328z" />
    <glyph glyph-name="de-cy" unicode="&#x434;" horiz-adv-x="1298" vert-adv-y="2457" 
d="M16 -266v512h82q64 0 96.5 32.5t36.5 106.5l43 664h840v-803h143v-512h-307v266h-626v-266h-308zM516 246h270v557h-211l-26 -410q-6 -90 -33 -143v-4z" />
    <glyph glyph-name="ie-cy" unicode="&#x435;" horiz-adv-x="1173" vert-adv-y="2457" 
d="M590 -35q-251 0 -398 154.5t-147 404.5q0 116 36 217t103.5 177.5t172 120.5t233.5 44q265 0 400.5 -153t135.5 -445v-49h-753q0 -105 64.5 -165t160.5 -60q146 0 186 106h334q-46 -165 -179.5 -258.5t-348.5 -93.5zM375 639h422q0 100 -55 153.5t-152 53.5
q-95 0 -152 -53.5t-63 -153.5z" />
    <glyph glyph-name="zhe-cy" unicode="&#x436;" horiz-adv-x="1646" vert-adv-y="2457" 
d="M-14 0l342 526l-330 523h352l248 -412h61v412h328v-412h62l247 412h353l-330 -523l342 -526h-383l-236 391h-55v-391h-328v391h-55l-235 -391h-383z" />
    <glyph glyph-name="ze-cy" unicode="&#x437;" horiz-adv-x="1060" vert-adv-y="2457" 
d="M530 -35q-220 0 -357.5 97.5t-137.5 261.5h327q0 -52 45.5 -82.5t122.5 -30.5q61 0 105.5 26.5t44.5 77.5q0 49 -31 80t-98 31h-148v205h142q121 0 121 104q0 45 -47 74t-103 29q-68 0 -111 -29t-43 -78h-327q0 156 135 254t358 98q120 0 224 -33t174.5 -105t70.5 -171
q0 -87 -78 -158.5t-204 -83.5v-2q297 -29 297 -235q0 -99 -63.5 -175t-172.5 -115.5t-246 -39.5z" />
    <glyph glyph-name="ii-cy" unicode="&#x438;" horiz-adv-x="1257" vert-adv-y="2457" 
d="M90 0v1044h328v-614l422 614h327v-1044h-327v614l-422 -614h-328z" />
    <glyph glyph-name="iishort-cy" unicode="&#x439;" horiz-adv-x="1257" vert-adv-y="2457" 
d="M90 0v1044h328v-614l422 614h327v-1044h-327v614l-422 -614h-328zM317 1464h189q10 -110 139 -110t139 110h189q-6 -139 -96 -225t-232 -86q-141 0 -232.5 85t-95.5 226z" />
    <glyph glyph-name="ka-cy" unicode="&#x43a;" horiz-adv-x="1161" vert-adv-y="2457" 
d="M793 0l-279 391h-96v-391h-328v1049h328v-412h102l275 412h389l-383 -514l387 -535h-395z" />
    <glyph glyph-name="el-cy" unicode="&#x43b;" horiz-adv-x="1189" vert-adv-y="2457" 
d="M176 -31q-100 0 -149 19v241q44 -14 82 -14q80 0 90 160l41 669h860v-1044h-328v799h-240l-28 -461q-11 -177 -91.5 -273t-236.5 -96z" />
    <glyph glyph-name="em-cy" unicode="&#x43c;" horiz-adv-x="1441" vert-adv-y="2457" 
d="M90 0v1049h303l330 -676h4l350 676h275v-1049h-328v426h-4l-207 -426h-205l-186 426h-4v-426h-328z" />
    <glyph glyph-name="en-cy" unicode="&#x43d;" horiz-adv-x="1216" vert-adv-y="2457" 
d="M799 0v403h-381v-403h-328v1049h328v-400h381v400h327v-1049h-327z" />
    <glyph glyph-name="o-cy" unicode="&#x43e;" horiz-adv-x="1210" vert-adv-y="2457" 
d="M602 -35q-257 0 -407 152.5t-150 404.5q0 251 151.5 406t411.5 155q257 0 407 -152.5t150 -402.5q0 -253 -151.5 -408t-411.5 -155zM377 524q0 -152 59 -232.5t170 -80.5q109 0 168.5 80.5t59.5 232.5t-59.5 233t-168.5 81q-110 0 -169.5 -81t-59.5 -233z" />
    <glyph glyph-name="pe-cy" unicode="&#x43f;" horiz-adv-x="1196" vert-adv-y="2457" 
d="M90 0v1049h1016v-1049h-328v803h-360v-803h-328z" />
    <glyph glyph-name="er-cy" unicode="&#x440;" horiz-adv-x="1230" vert-adv-y="2457" 
d="M725 -33q-103 0 -184 43t-119 94h-4v-466h-328v1411h328v-105h4q38 51 119 94t184 43q210 0 333.5 -150t123.5 -407t-123.5 -407t-333.5 -150zM424 524q0 -152 55 -231.5t156 -79.5t156 79.5t55 231.5t-55 232t-156 80t-156 -80t-55 -232z" />
    <glyph glyph-name="es-cy" unicode="&#x441;" horiz-adv-x="1124" vert-adv-y="2457" 
d="M586 -35q-246 0 -393.5 155t-147.5 404q0 247 146 403t387 156q221 0 357 -118t157 -308h-330q-21 181 -178 181q-100 0 -151.5 -82t-51.5 -232t51 -231.5t152 -81.5q159 0 178 184h330q-12 -191 -148 -310.5t-358 -119.5z" />
    <glyph glyph-name="te-cy" unicode="&#x442;" horiz-adv-x="1036" vert-adv-y="2457" 
d="M354 0v803h-334v246h996v-246h-334v-803h-328z" />
    <glyph glyph-name="u-cy" unicode="&#x443;" horiz-adv-x="1124" vert-adv-y="2457" 
d="M315 -362q-96 0 -196 20v250q52 -6 98 -6q21 0 34 0.5t34.5 3.5t36.5 10.5t31.5 19t28.5 31.5t19 47l-417 1035h338l245 -691h4l226 691h323l-383 -1051q-46 -126 -97.5 -201.5t-131.5 -117t-193 -41.5z" />
    <glyph glyph-name="ef-cy" unicode="&#x444;" horiz-adv-x="1474" vert-adv-y="2457" 
d="M580 -362v342q-251 35 -393 179t-142 365q0 224 142 369t393 180v391h317v-391q250 -37 391.5 -181.5t141.5 -367.5q0 -220 -141.5 -363.5t-391.5 -180.5v-342h-317zM367 524q0 -109 56 -186t157 -109v594q-101 -34 -157 -112t-56 -187zM897 229q100 32 155.5 109.5
t55.5 185.5q0 110 -55.5 187.5t-155.5 111.5v-594z" />
    <glyph glyph-name="ha-cy" unicode="&#x445;" horiz-adv-x="1064" vert-adv-y="2457" 
d="M-27 0l361 535l-320 514h348l168 -304h5l167 304h349l-320 -514l361 -535h-369l-188 324h-5l-188 -324h-369z" />
    <glyph glyph-name="tse-cy" unicode="&#x446;" horiz-adv-x="1290" vert-adv-y="2457" 
d="M942 -266v266h-852v1049h328v-803h360v803h328v-803h143v-512h-307z" />
    <glyph glyph-name="che-cy" unicode="&#x447;" horiz-adv-x="1126" vert-adv-y="2457" 
d="M709 0v416h-4q-47 -64 -129.5 -102t-174.5 -38q-157 0 -248.5 87.5t-91.5 236.5v444h328v-321q0 -83 43 -131.5t115 -48.5q48 0 85 22t77 70v409h327v-1044h-327z" />
    <glyph glyph-name="sha-cy" unicode="&#x448;" horiz-adv-x="1568" vert-adv-y="2457" 
d="M90 0v1049h307v-803h234v803h307v-803h233v803h308v-1049h-1389z" />
    <glyph glyph-name="shcha-cy" unicode="&#x449;" horiz-adv-x="1662" vert-adv-y="2457" 
d="M1315 -266v266h-1225v1049h307v-803h234v803h307v-803h233v803h308v-803h143v-512h-307z" />
    <glyph glyph-name="hardsign-cy" unicode="&#x44a;" horiz-adv-x="1175" vert-adv-y="2457" 
d="M203 0v803h-183v246h510v-316h205q192 0 305 -98.5t113 -265.5q0 -170 -114.5 -269.5t-311.5 -99.5h-524zM530 246h158q62 0 97.5 31t35.5 85q0 57 -36 91t-97 34h-158v-241z" />
    <glyph glyph-name="yeru-cy" unicode="&#x44b;" horiz-adv-x="1519" vert-adv-y="2457" 
d="M90 0v1049h328v-316h164q192 0 304.5 -98.5t112.5 -265.5q0 -170 -114.5 -269.5t-311.5 -99.5h-483zM418 246h117q62 0 97.5 31t35.5 85q0 57 -36 91t-97 34h-117v-241zM1102 0v1049h328v-1049h-328z" />
    <glyph glyph-name="softsign-cy" unicode="&#x44c;" horiz-adv-x="1062" vert-adv-y="2457" 
d="M90 0v1049h328v-316h205q192 0 304.5 -98.5t112.5 -265.5q0 -170 -114.5 -269.5t-311.5 -99.5h-524zM418 246h157q62 0 98 31t36 85q0 57 -36.5 91t-97.5 34h-157v-241z" />
    <glyph glyph-name="ereversed-cy" unicode="&#x44d;" horiz-adv-x="1132" vert-adv-y="2457" 
d="M537 -35q-222 0 -352.5 107t-157.5 293h327q11 -69 59 -111.5t134 -42.5q97 0 149 52.5t66 160.5h-320v205h320q-15 106 -67 157.5t-148 51.5q-86 0 -134 -40.5t-59 -109.5h-327q20 84 59.5 153.5t101 125t151.5 86t202 30.5q250 0 399.5 -154t149.5 -407
q0 -126 -32 -226.5t-97.5 -175.5t-172.5 -115t-251 -40z" />
    <glyph glyph-name="yu-cy" unicode="&#x44e;" horiz-adv-x="1507" vert-adv-y="2457" 
d="M979 -35q-185 0 -310.5 116t-156.5 320h-94v-401h-328v1049h328v-402h94q32 204 159 320t314 116q212 0 343.5 -149.5t131.5 -405.5q0 -259 -133 -411t-348 -152zM836 524q0 -313 147 -313q145 0 145 313q0 314 -145 314q-147 0 -147 -314z" />
    <glyph glyph-name="ya-cy" unicode="&#x44f;" horiz-adv-x="1112" vert-adv-y="2457" 
d="M14 8q17 34 34 86t28.5 92.5t34 87t50.5 79t78 58t117 33.5v2q-124 22 -203 91t-79 188q0 59 22 115t64.5 103.5t114 76.5t161.5 29h586v-1049h-328v326h-100q-51 0 -90 -28t-60.5 -72.5t-35 -87.5t-23.5 -85t-16 -53h-355v8zM406 686q0 -61 33 -98t91 -37h164v252h-168
q-54 0 -87 -32t-33 -85z" />
    <glyph glyph-name="iegrave-cy" unicode="&#x450;" horiz-adv-x="1173" vert-adv-y="2457" 
d="M590 -35q-251 0 -398 154.5t-147 404.5q0 116 36 217t103.5 177.5t172 120.5t233.5 44q265 0 400.5 -153t135.5 -445v-49h-753q0 -105 64.5 -165t160.5 -60q146 0 186 106h334q-46 -165 -179.5 -258.5t-348.5 -93.5zM268 1489h328l109 -311h-246zM375 639h422
q0 100 -55 153.5t-152 53.5q-95 0 -152 -53.5t-63 -153.5z" />
    <glyph glyph-name="io-cy" unicode="&#x451;" horiz-adv-x="1173" vert-adv-y="2457" 
d="M590 -35q-251 0 -398 154.5t-147 404.5q0 116 36 217t103.5 177.5t172 120.5t233.5 44q265 0 400.5 -153t135.5 -445v-49h-753q0 -105 64.5 -165t160.5 -60q146 0 186 106h334q-46 -165 -179.5 -258.5t-348.5 -93.5zM209 1174v290h328v-290h-328zM375 639h422
q0 100 -55 153.5t-152 53.5q-95 0 -152 -53.5t-63 -153.5zM635 1174v290h328v-290h-328z" />
    <glyph glyph-name="dje-cy" unicode="&#x452;" horiz-adv-x="1189" vert-adv-y="2457" 
d="M739 -375q-79 0 -178 21v250q58 -7 111 -7q106 0 106 125v590q0 115 -39.5 163t-124.5 48q-196 0 -196 -209v-606h-328v1178h-125v184h125v102h328v-102h317v-184h-317v-281h4q105 184 344 184q155 0 247.5 -97.5t92.5 -274.5v-678q0 -194 -94.5 -300t-272.5 -106z" />
    <glyph glyph-name="gje-cy" unicode="&#x453;" horiz-adv-x="856" vert-adv-y="2457" 
d="M90 0v1049h746v-246h-418v-803h-328zM352 1169l109 312h368l-231 -312h-246z" />
    <glyph glyph-name="e-cy" unicode="&#x454;" horiz-adv-x="1134" vert-adv-y="2457" 
d="M598 -35q-144 0 -251 40t-172.5 115t-97.5 175.5t-32 226.5q0 253 149.5 407t399.5 154q112 0 202 -30.5t151.5 -86t101 -125t59.5 -153.5h-328q-11 69 -58.5 109.5t-133.5 40.5q-96 0 -148 -51.5t-67 -157.5h319v-205h-319q14 -108 66 -160.5t149 -52.5q86 0 133.5 42
t58.5 112h328q-27 -186 -157.5 -293t-352.5 -107z" />
    <glyph glyph-name="dze-cy" unicode="&#x455;" horiz-adv-x="1064" vert-adv-y="2457" 
d="M555 -33q-133 0 -234 30t-160.5 84t-90 120.5t-33.5 146.5h307q15 -155 205 -155q139 0 139 90q0 15 -3.5 28t-12 23.5t-16.5 18.5t-25 15.5t-29.5 12t-36.5 11t-39 10t-45.5 10t-48.5 10.5q-62 15 -110.5 30.5t-100.5 43t-86 61t-56 83.5t-22 112q0 150 120.5 239.5
t338.5 89.5q121 0 214 -29t147.5 -79.5t83 -112t32.5 -133.5h-307q-8 65 -46.5 97t-117.5 32q-129 0 -129 -84q0 -42 32 -58.5t129 -38.5q37 -8 58 -13q52 -12 88.5 -22t83 -27t78 -34.5t65 -44.5t53 -58.5t32 -74.5t12.5 -94q0 -164 -121 -252t-348 -88z" />
    <glyph glyph-name="i-cy" unicode="&#x456;" horiz-adv-x="507" vert-adv-y="2457" 
d="M90 0v1049h328v-1049h-328zM90 1174v290h328v-290h-328z" />
    <glyph glyph-name="yi-cy" unicode="&#x457;" horiz-adv-x="507" vert-adv-y="2457" 
d="M283 1192v254h245v-254h-245zM-20 1192v254h245v-254h-245zM90 0v1049h328v-1049h-328z" />
    <glyph glyph-name="je-cy" unicode="&#x458;" horiz-adv-x="507" vert-adv-y="2457" 
d="M90 -375q-83 0 -182 21v250q58 -7 76 -7q55 0 80.5 23.5t25.5 101.5v1035h328v-1018q0 -200 -77 -303t-251 -103zM90 1174v290h328v-290h-328z" />
    <glyph glyph-name="lje-cy" unicode="&#x459;" horiz-adv-x="1652" vert-adv-y="2457" 
d="M176 -27q-100 0 -149 19v241q44 -14 82 -14q80 0 90 160l41 670h809v-316h163q192 0 305 -98.5t113 -265.5q0 -170 -114.5 -269.5t-311.5 -99.5h-483v803h-189l-28 -461q-11 -177 -91.5 -273t-236.5 -96zM1049 246h116q62 0 97.5 31t35.5 85q0 57 -36 91t-97 34h-116
v-241z" />
    <glyph glyph-name="nje-cy" unicode="&#x45a;" horiz-adv-x="1644" vert-adv-y="2457" 
d="M713 0v446h-295v-446h-328v1049h328v-357h295v357h327v-357h164q195 0 306.5 -87.5t111.5 -252.5q0 -168 -113.5 -260t-312.5 -92h-483zM1040 246h117q133 0 133 100q0 54 -34 77t-99 23h-117v-200z" />
    <glyph glyph-name="tshe-cy" unicode="&#x45b;" horiz-adv-x="1189" vert-adv-y="2457" 
d="M-35 1178v184h125v102h328v-102h317v-184h-317v-281h4q105 184 344 184q155 0 247.5 -97.5t92.5 -274.5v-709h-328v604q0 115 -39.5 163t-124.5 48q-196 0 -196 -209v-606h-328v1178h-125z" />
    <glyph glyph-name="kje-cy" unicode="&#x45c;" horiz-adv-x="1161" vert-adv-y="2457" 
d="M793 0l-279 391h-96v-391h-328v1049h328v-412h102l275 412h389l-383 -514l387 -535h-395zM457 1169l108 312h369l-232 -312h-245z" />
    <glyph glyph-name="iigrave-cy" unicode="&#x45d;" horiz-adv-x="1257" vert-adv-y="2457" 
d="M90 0v1044h328v-614l422 614h327v-1044h-327v614l-422 -614h-328zM328 1485h327l109 -311h-246z" />
    <glyph glyph-name="ushort-cy" unicode="&#x45e;" horiz-adv-x="1124" vert-adv-y="2457" 
d="M315 -362q-96 0 -196 20v250q52 -6 98 -6q21 0 34 0.5t34.5 3.5t36.5 10.5t31.5 19t28.5 31.5t19 47l-417 1035h338l245 -691h4l226 691h323l-383 -1051q-46 -126 -97.5 -201.5t-131.5 -117t-193 -41.5zM225 1468h189q10 -110 139 -110t139 110h189q-6 -139 -96 -225
t-232 -86q-141 0 -232.5 85t-95.5 226z" />
    <glyph glyph-name="dzhe-cy" unicode="&#x45f;" horiz-adv-x="1196" vert-adv-y="2457" 
d="M444 -266v266h-354v1049h328v-803h360v803h328v-1049h-354v-266h-308z" />
    <glyph glyph-name="Geupturn-cy" unicode="&#x490;" horiz-adv-x="1138" vert-adv-y="2457" 
d="M123 0v1464h657v203h328v-504h-616v-1163h-369z" />
    <glyph glyph-name="geupturn-cy" unicode="&#x491;" horiz-adv-x="950" vert-adv-y="2457" 
d="M90 0v1049h533v221h307v-467h-512v-803h-328z" />
    <glyph glyph-name="Gestroke-cy" unicode="&#x492;" horiz-adv-x="1232" vert-adv-y="2457" 
d="M39 582v245h205v637h954v-301h-586v-336h377v-245h-377v-582h-368v582h-205z" />
    <glyph glyph-name="gestroke-cy" unicode="&#x493;" horiz-adv-x="958" vert-adv-y="2457" 
d="M27 395v205h163v449h746v-246h-418v-203h287v-205h-287v-395h-328v395h-163z" />
    <glyph glyph-name="Zhedescender-cy" unicode="&#x496;" horiz-adv-x="2048" vert-adv-y="2457" 
d="M-12 0l463 733l-439 731h383l340 -608h105v608h368v-608h105l340 608h383l-439 -731l394 -622h106v-377h-328v266h-124l-332 555h-105v-555h-368v555h-105l-332 -555h-415z" />
    <glyph glyph-name="zhedescender-cy" unicode="&#x497;" horiz-adv-x="1646" vert-adv-y="2457" 
d="M-14 0l342 526l-330 523h352l248 -412h61v412h328v-412h62l247 412h353l-330 -523l209 -321h186v-471h-307v266h-129l-236 391h-55v-391h-328v391h-55l-235 -391h-383z" />
    <glyph glyph-name="Kadescender-cy" unicode="&#x49a;" horiz-adv-x="1474" vert-adv-y="2457" 
d="M1051 0l-455 555h-104v-555h-369v1464h369v-608h104l483 608h398l-584 -723l528 -630h135v-377h-327v266h-178z" />
    <glyph glyph-name="kadescender-cy" unicode="&#x49b;" horiz-adv-x="1161" vert-adv-y="2457" 
d="M793 0l-279 391h-96v-391h-328v1049h328v-412h102l275 412h389l-383 -514l237 -330h181v-471h-308v266h-118z" />
    <glyph glyph-name="Endescender-cy" unicode="&#x4a2;" horiz-adv-x="1484" vert-adv-y="2457" 
d="M123 0v1464h369v-573h501v573h369v-1353h115v-377h-328v266h-156v590h-501v-590h-369z" />
    <glyph glyph-name="endescender-cy" unicode="&#x4a3;" horiz-adv-x="1216" vert-adv-y="2457" 
d="M799 0v403h-381v-403h-328v1049h328v-400h381v400h327v-844h134v-471h-308v266h-153z" />
    <glyph glyph-name="Ustraight-cy" unicode="&#x4ae;" horiz-adv-x="1366" vert-adv-y="2457" 
d="M500 0v541l-500 923h397l285 -622h4l287 622h389l-494 -923v-541h-368z" />
    <glyph glyph-name="ustraight-cy" unicode="&#x4af;" horiz-adv-x="1126" vert-adv-y="2457" 
d="M399 -362v466l-415 945h348l231 -600h4l254 600h320l-414 -945v-466h-328z" />
    <glyph glyph-name="Ustraightstroke-cy" unicode="&#x4b0;" horiz-adv-x="1353" vert-adv-y="2457" 
d="M227 229v246h267v66l-500 923h397l285 -622h4l287 622h389l-494 -923v-66h266v-246h-266v-229h-368v229h-267z" />
    <glyph glyph-name="ustraightstroke-cy" unicode="&#x4b1;" horiz-adv-x="1126" vert-adv-y="2457" 
d="M154 -172v205h245v71l-415 945h348l231 -600h4l254 600h320l-414 -945v-71h246v-205h-246v-190h-328v190h-245z" />
    <glyph glyph-name="Hadescender-cy" unicode="&#x4b2;" horiz-adv-x="1366" vert-adv-y="2457" 
d="M-18 0l485 748l-444 716h389l268 -446h4l270 446h389l-444 -712l414 -641h119v-377h-328v266h-129l-291 475h-4l-289 -475h-409z" />
    <glyph glyph-name="hadescender-cy" unicode="&#x4b3;" horiz-adv-x="1064" vert-adv-y="2457" 
d="M-27 0l361 535l-320 514h348l168 -304h5l167 304h349l-320 -514l223 -330h195v-471h-307v266h-119l-188 324h-5l-188 -324h-369z" />
    <glyph glyph-name="Chedescender-cy" unicode="&#x4b6;" horiz-adv-x="1372" vert-adv-y="2457" 
d="M881 0v633h-4q-63 -96 -166.5 -152.5t-216.5 -56.5q-187 0 -299.5 123.5t-112.5 331.5v585h369v-524q0 -97 55.5 -153t150.5 -56q134 0 224 131v602h368v-1353h146v-377h-328v266h-186z" />
    <glyph glyph-name="chedescender-cy" unicode="&#x4b7;" horiz-adv-x="1126" vert-adv-y="2457" 
d="M709 0v416h-4q-47 -64 -129.5 -102t-174.5 -38q-157 0 -248.5 87.5t-91.5 236.5v444h328v-321q0 -83 43 -131.5t115 -48.5q48 0 85 22t77 70v409h327v-839h131v-471h-307v266h-151z" />
    <glyph glyph-name="Shha-cy" unicode="&#x4ba;" horiz-adv-x="1394" vert-adv-y="2457" 
d="M123 0v1464h369v-633h4q44 103 155.5 156t237.5 53q201 0 311.5 -116.5t110.5 -337.5v-586h-369v524q0 99 -55 154t-162 55q-104 0 -168.5 -62t-64.5 -167v-504h-369z" />
    <glyph glyph-name="shha-cy" unicode="&#x4bb;" horiz-adv-x="1189" vert-adv-y="2457" 
d="M778 604q0 115 -39.5 163t-124.5 48q-196 0 -196 -209v-606h-328v1464h328v-567h4q105 184 344 184q155 0 247.5 -97.5t92.5 -274.5v-709h-328v604z" />
    <glyph glyph-name="Schwa-cy" unicode="&#x4d8;" horiz-adv-x="1525" vert-adv-y="2457" 
d="M754 -31q-150 0 -280.5 59t-218.5 157.5t-138.5 227t-50.5 265.5q0 134 4 172h1020q-28 170 -125.5 256t-221.5 86q-119 0 -195.5 -52t-90.5 -130h-377q24 144 122.5 254.5t247 169.5t322.5 59q200 0 357.5 -94.5t246 -267.5t88.5 -396q0 -167 -53.5 -310t-147.5 -243
t-225.5 -156.5t-283.5 -56.5zM426 549q0 -113 96.5 -196t218.5 -83q123 0 212 68t124 211h-651z" />
    <glyph glyph-name="schwa-cy" unicode="&#x4d9;" horiz-adv-x="1157" vert-adv-y="2457" 
d="M571 -35q-239 0 -382.5 153.5t-143.5 399.5q0 38 6 84h725q-12 112 -67 174t-136 62q-75 0 -124 -30.5t-64 -82.5h-328q18 91 66.5 160.5t119 112t156 64t183.5 21.5q250 0 390 -152t140 -409q0 -157 -69.5 -284t-193.5 -200t-278 -73zM377 397q0 -85 53 -135.5
t143 -50.5q70 0 119.5 48.5t71.5 137.5h-387z" />
    <glyph glyph-name="Imacron-cy" unicode="&#x4e2;" horiz-adv-x="1546" vert-adv-y="2457" 
d="M123 0v1464h369v-909h4l559 909h368v-1464h-368v909h-4l-559 -909h-369zM473 1589v205h586v-205h-586z" />
    <glyph glyph-name="imacron-cy" unicode="&#x4e3;" horiz-adv-x="1257" vert-adv-y="2457" 
d="M90 0v1044h328v-614l422 614h327v-1044h-327v614l-422 -614h-328zM352 1169v205h586v-205h-586z" />
    <glyph glyph-name="Obarred-cy" unicode="&#x4e8;" horiz-adv-x="1572" vert-adv-y="2457" 
d="M786 -33q-171 0 -309 57.5t-228.5 160t-139 242.5t-48.5 306q0 222 83 393t249 271t393 100q225 0 391 -99.5t250 -271.5t84 -393q0 -166 -49 -306.5t-140 -242.5t-228.5 -159.5t-307.5 -57.5zM444 610q43 -342 342 -342q297 0 340 342h-682zM446 856h680
q-44 340 -340 340t-340 -340z" />
    <glyph glyph-name="obarred-cy" unicode="&#x4e9;" horiz-adv-x="1210" vert-adv-y="2457" 
d="M602 -35q-257 0 -407 152.5t-150 404.5q0 251 151.5 406t411.5 155q257 0 407 -152.5t150 -402.5q0 -253 -151.5 -408t-411.5 -155zM385 422q39 -211 221 -211q180 0 219 211h-440zM385 627h440q-39 211 -219 211q-182 0 -221 -211z" />
    <glyph glyph-name="Umacron-cy" unicode="&#x4ee;" horiz-adv-x="1372" vert-adv-y="2457" 
d="M260 0l225 438l-469 1026h369l293 -641h4l322 641h352l-740 -1464h-356zM391 1589v205h586v-205h-586z" />
    <glyph glyph-name="umacron-cy" unicode="&#x4ef;" horiz-adv-x="1124" vert-adv-y="2457" 
d="M315 -362q-96 0 -196 20v250q52 -6 98 -6q21 0 34 0.5t34.5 3.5t36.5 10.5t31.5 19t28.5 31.5t19 47l-417 1035h338l245 -691h4l226 691h323l-383 -1051q-46 -126 -97.5 -201.5t-131.5 -117t-193 -41.5zM260 1174v204h586v-204h-586z" />
    <glyph glyph-name="uni139A" unicode="&#x139a;" horiz-adv-x="1331" vert-adv-y="2457" 
 />
    <glyph glyph-name="Wgrave" unicode="&#x1e80;" horiz-adv-x="1957" vert-adv-y="2457" 
d="M389 0l-373 1464h369l188 -993h5l227 993h348l227 -993h4l189 993h369l-373 -1464h-369l-219 913h-4l-219 -913h-369zM662 1905h327l109 -312h-246z" />
    <glyph glyph-name="wgrave" unicode="&#x1e81;" horiz-adv-x="1617" vert-adv-y="2457" 
d="M297 0l-293 1049h328l157 -639h5l176 639h286l177 -639h6l157 639h318l-293 -1049h-307l-203 664h-4l-203 -664h-307zM492 1489h327l109 -311h-246z" />
    <glyph glyph-name="Wacute" unicode="&#x1e82;" horiz-adv-x="1957" vert-adv-y="2457" 
d="M389 0l-373 1464h369l188 -993h5l227 993h348l227 -993h4l189 993h369l-373 -1464h-369l-219 913h-4l-219 -913h-369zM856 1589l109 312h368l-231 -312h-246z" />
    <glyph glyph-name="wacute" unicode="&#x1e83;" horiz-adv-x="1617" vert-adv-y="2457" 
d="M297 0l-293 1049h328l157 -639h5l176 639h286l177 -639h6l157 639h318l-293 -1049h-307l-203 664h-4l-203 -664h-307zM686 1174l109 311h368l-231 -311h-246z" />
    <glyph glyph-name="Wdieresis" unicode="&#x1e84;" horiz-adv-x="1957" vert-adv-y="2457" 
d="M389 0l-373 1464h369l188 -993h5l227 993h348l227 -993h4l189 993h369l-373 -1464h-369l-219 913h-4l-219 -913h-369zM602 1589v291h328v-291h-328zM1028 1589v291h328v-291h-328z" />
    <glyph glyph-name="wdieresis" unicode="&#x1e85;" horiz-adv-x="1617" vert-adv-y="2457" 
d="M297 0l-293 1049h328l157 -639h5l176 639h286l177 -639h6l157 639h318l-293 -1049h-307l-203 664h-4l-203 -664h-307zM432 1174v290h328v-290h-328zM858 1174v290h328v-290h-328z" />
    <glyph glyph-name="Ygrave" unicode="&#x1ef2;" horiz-adv-x="1366" vert-adv-y="2457" 
d="M500 0v541l-500 923h397l285 -622h4l287 622h389l-494 -923v-541h-368zM369 1905h327l109 -312h-246z" />
    <glyph glyph-name="ygrave" unicode="&#x1ef3;" horiz-adv-x="1124" vert-adv-y="2457" 
d="M315 -362q-96 0 -196 20v250q52 -6 98 -6q21 0 34 0.5t34.5 3.5t36.5 10.5t31.5 19t28.5 31.5t19 47l-417 1035h338l245 -691h4l226 691h323l-383 -1051q-46 -126 -97.5 -201.5t-131.5 -117t-193 -41.5zM236 1489h327l109 -311h-246z" />
    <glyph glyph-name="enquad" unicode="&#x2000;" horiz-adv-x="1024" vert-adv-y="2457" 
 />
    <glyph glyph-name="emquad" unicode="&#x2001;" horiz-adv-x="2048" vert-adv-y="2457" 
 />
    <glyph glyph-name="enspace" unicode="&#x2002;" horiz-adv-x="1024" vert-adv-y="2457" 
 />
    <glyph glyph-name="emspace" unicode="&#x2003;" horiz-adv-x="2048" vert-adv-y="2457" 
 />
    <glyph glyph-name="threeperemspace" unicode="&#x2004;" horiz-adv-x="681" vert-adv-y="2457" 
 />
    <glyph glyph-name="fourperemspace" unicode="&#x2005;" horiz-adv-x="512" vert-adv-y="2457" 
 />
    <glyph glyph-name="sixperemspace" unicode="&#x2006;" horiz-adv-x="342" vert-adv-y="2457" 
 />
    <glyph glyph-name="figurespace" unicode="&#x2007;" horiz-adv-x="1638" vert-adv-y="2457" 
 />
    <glyph glyph-name="punctuationspace" unicode="&#x2008;" horiz-adv-x="466" vert-adv-y="2457" 
 />
    <glyph glyph-name="thinspace" unicode="&#x2009;" horiz-adv-x="256" vert-adv-y="2457" 
 />
    <glyph glyph-name="hairspace" unicode="&#x200a;" horiz-adv-x="86" vert-adv-y="2457" 
 />
    <glyph glyph-name="zerowidthspace" unicode="&#x200b;" vert-adv-y="2457" 
 />
    <glyph glyph-name="endash" unicode="&#x2013;" horiz-adv-x="1187" vert-adv-y="2457" 
d="M82 377v280h1024v-280h-1024z" />
    <glyph glyph-name="emdash" unicode="&#x2014;" horiz-adv-x="2211" vert-adv-y="2457" 
d="M82 377v280h2048v-280h-2048z" />
    <glyph glyph-name="quoteleft" unicode="&#x2018;" horiz-adv-x="466" vert-adv-y="2457" 
d="M72 1122q0 139 81 229.5t230 112.5v-143q-147 -24 -147 -199h147v-311h-311v311z" />
    <glyph glyph-name="quoteright" unicode="&#x2019;" horiz-adv-x="454" vert-adv-y="2457" 
d="M84 954q147 24 147 199h-147v311h311v-311q0 -139 -81 -229.5t-230 -112.5v143z" />
    <glyph glyph-name="quotesinglbase" unicode="&#x201a;" horiz-adv-x="475" vert-adv-y="2457" 
d="M82 -199q147 24 147 199h-147v311h311v-311q0 -139 -81 -229.5t-230 -112.5v143z" />
    <glyph glyph-name="quotedblleft" unicode="&#x201c;" horiz-adv-x="876" vert-adv-y="2457" 
d="M481 1128q0 139 81.5 229.5t230.5 112.5v-143q-148 -24 -148 -199h148v-311h-312v311zM72 817v311q0 139 81 229.5t230 112.5v-143q-147 -24 -147 -199h147v-311h-311z" />
    <glyph glyph-name="quotedblright" unicode="&#x201d;" horiz-adv-x="864" vert-adv-y="2457" 
d="M84 954q147 24 147 199h-147v311h311v-311q0 -139 -81 -229.5t-230 -112.5v143zM494 811v143q147 24 147 199h-147v311h311v-311q0 -139 -81 -229.5t-230 -112.5z" />
    <glyph glyph-name="quotedblbase" unicode="&#x201e;" horiz-adv-x="884" vert-adv-y="2457" 
d="M492 -199q147 24 147 199h-147v311h311v-311q0 -139 -81 -229.5t-230 -112.5v143zM82 -342v143q147 24 147 199h-147v311h311v-311q0 -139 -81 -229.5t-230 -112.5z" />
    <glyph glyph-name="dagger" unicode="&#x2020;" horiz-adv-x="1130" vert-adv-y="2457" 
d="M391 -362v1130h-358v281h358v415h348v-415h359v-281h-359v-1130h-348z" />
    <glyph glyph-name="daggerdbl" unicode="&#x2021;" horiz-adv-x="1220" vert-adv-y="2457" 
d="M436 -362v475h-358v280h358v375h-358v281h358v415h348v-415h359v-281h-359v-375h359v-280h-359v-475h-348z" />
    <glyph glyph-name="bullet" unicode="&#x2022;" horiz-adv-x="851" vert-adv-y="2457" 
d="M139 319v574h574v-574h-574z" />
    <glyph glyph-name="ellipsis" unicode="&#x2026;" horiz-adv-x="1335" vert-adv-y="2457" 
d="M78 0v311h311v-311h-311zM512 0v311h311v-311h-311zM946 0v311h311v-311h-311z" />
    <glyph glyph-name="perthousand" unicode="&#x2030;" horiz-adv-x="2713" vert-adv-y="2457" 
d="M2263 -33q-189 0 -299.5 111.5t-110.5 300.5t110.5 299t299.5 110t300.5 -110t111.5 -299t-111.5 -300.5t-300.5 -111.5zM37 1036q0 189 111.5 300.5t300.5 111.5t299 -111.5t110 -300.5t-110 -299t-299 -110t-300.5 110t-111.5 299zM344 1036q0 -108 25 -156.5t80 -48.5
q54 0 78 48.5t24 156.5q0 109 -24 158t-78 49q-55 0 -80 -49t-25 -158zM426 0l784 1415h220l-785 -1415h-219zM997 379q0 189 110.5 299t299.5 110t300.5 -110t111.5 -299t-111.5 -300.5t-300.5 -111.5t-299.5 111.5t-110.5 300.5zM1305 379q0 -109 24 -158t78 -49
q55 0 79.5 49t24.5 158q0 108 -24.5 156.5t-79.5 48.5q-54 0 -78 -48.5t-24 -156.5zM2161 379q0 -109 24 -158t78 -49q55 0 79.5 49t24.5 158q0 108 -24.5 156.5t-79.5 48.5q-54 0 -78 -48.5t-24 -156.5z" />
    <glyph glyph-name="guilsinglleft" unicode="&#x2039;" horiz-adv-x="577" vert-adv-y="2457" 
d="M485 55l-407 316v321l407 316v-320l-227 -153v-7l227 -153v-320z" />
    <glyph glyph-name="guilsinglright" unicode="&#x203a;" horiz-adv-x="577" vert-adv-y="2457" 
d="M92 55v320l227 153v7l-227 153v320l408 -316v-321z" />
    <glyph glyph-name="fraction" unicode="&#x2044;" horiz-adv-x="491" vert-adv-y="2457" 
d="M-367 0l928 1464h287l-928 -1464h-287z" />
    <glyph glyph-name="zerosuperior" unicode="&#x2070;" horiz-adv-x="864" vert-adv-y="2457" 
d="M434 737q-95 0 -170.5 35t-122 95.5t-70.5 138t-24 165.5q0 119 41 216t130.5 159t215.5 62q77 0 140.5 -23t108 -63.5t75 -96t45 -119.5t14.5 -135q0 -89 -23.5 -166.5t-69.5 -138t-120.5 -95t-169.5 -34.5zM303 1171q0 -122 27.5 -178.5t103.5 -56.5q74 0 100.5 57
t26.5 178q0 122 -26.5 179t-100.5 57q-75 0 -103 -55.5t-28 -180.5z" />
    <glyph glyph-name="foursuperior" unicode="&#x2074;" horiz-adv-x="829" vert-adv-y="2457" 
d="M414 745v166h-367v246l367 420h248v-469h122v-197h-122v-166h-248zM221 1108h193v211z" />
    <glyph glyph-name="fivesuperior" unicode="&#x2075;" horiz-adv-x="802" vert-adv-y="2457" 
d="M418 725q-184 0 -282 76.5t-101 210.5h252q5 -37 34.5 -63.5t81.5 -26.5q48 0 73.5 28t25.5 82q0 117 -109 117q-58 0 -102 -49h-232l101 477h559v-197h-391l-25 -114v-2q77 51 170 51q128 0 204.5 -74.5t76.5 -210.5q0 -150 -93 -227.5t-243 -77.5z" />
    <glyph glyph-name="sixsuperior" unicode="&#x2076;" horiz-adv-x="817" vert-adv-y="2457" 
d="M416 735q-104 0 -178.5 36t-114 98.5t-57 132.5t-17.5 153q0 218 100.5 336.5t264.5 118.5q134 0 219.5 -64.5t109.5 -169.5h-239q-31 56 -96 56q-125 0 -138 -144l-2 -24l8 -2q24 26 78.5 47.5t118.5 21.5q136 0 217.5 -80.5t81.5 -210.5q0 -138 -98 -221.5t-258 -83.5z
M295 1036q0 -52 31.5 -85t87.5 -33q57 0 90 33t33 85q0 48 -30.5 82.5t-88.5 34.5t-90.5 -34.5t-32.5 -82.5z" />
    <glyph glyph-name="sevensuperior" unicode="&#x2077;" horiz-adv-x="681" vert-adv-y="2457" 
d="M154 745q0 195 67.5 370t167.5 263v2h-366v197h626v-182q-123 -101 -179 -271.5t-56 -378.5h-260z" />
    <glyph glyph-name="eightsuperior" unicode="&#x2078;" horiz-adv-x="808" vert-adv-y="2457" 
d="M403 735q-157 0 -257.5 68t-100.5 192q0 139 156 209v2q-121 68 -121 176q0 105 93.5 166.5t229.5 61.5q139 0 232.5 -62t93.5 -166q0 -110 -121 -176v-2q158 -71 158 -209q0 -124 -103 -192t-260 -68zM297 1022q0 -42 26.5 -74.5t79.5 -32.5q52 0 79.5 32t27.5 75
q0 41 -27.5 70.5t-79.5 29.5t-79 -29.5t-27 -70.5zM299 1358q0 -37 25 -63.5t79 -26.5q53 0 79 26.5t26 63.5q0 34 -26.5 60t-78.5 26t-78 -26t-26 -60z" />
    <glyph glyph-name="ninesuperior" unicode="&#x2079;" horiz-adv-x="821" vert-adv-y="2457" 
d="M403 735q-128 0 -219.5 65.5t-115.5 168.5h251q28 -54 91 -54q54 0 85 35.5t31 102.5v10l-2 2q-23 -22 -72 -38.5t-110 -16.5q-134 0 -215.5 82t-81.5 213q0 138 98 221.5t258 83.5q85 0 151 -25.5t106.5 -67.5t67 -100.5t36.5 -118.5t10 -129q0 -208 -102 -321
t-267 -113zM281 1309q0 -48 33.5 -82.5t91.5 -34.5t87 34t29 83q0 52 -31.5 85t-87.5 33q-57 0 -89.5 -33t-32.5 -85z" />
    <glyph glyph-name="zeroinferior" unicode="&#x2080;" horiz-adv-x="864" vert-adv-y="2457" 
d="M434 -223q-95 0 -170.5 35t-122 95.5t-70.5 138t-24 165.5t24 165.5t70.5 138.5t122 96.5t170.5 35.5t170 -35t120.5 -96t69 -138.5t23.5 -166.5t-23.5 -166.5t-69.5 -138t-120.5 -95t-169.5 -34.5zM303 211q0 -122 27.5 -179t103.5 -57q74 0 100.5 57t26.5 179
q0 121 -26.5 178t-100.5 57q-75 0 -103 -55.5t-28 -179.5z" />
    <glyph glyph-name="oneinferior" unicode="&#x2081;" horiz-adv-x="546" vert-adv-y="2457" 
d="M203 313q-40 -18 -176 -18v188q93 0 157.5 39.5t63.5 104.5h217v-832h-262v518z" />
    <glyph glyph-name="twoinferior" unicode="&#x2082;" horiz-adv-x="768" vert-adv-y="2457" 
d="M41 -205q0 45 2.5 75t14.5 60t23.5 48.5t42 48t57.5 51t83 63.5q7 5 36 26.5t40 30t34.5 28.5t34 33.5t24 33t19 39.5t5.5 41q0 39 -19.5 58.5t-54.5 19.5q-46 0 -71 -29.5t-25 -108.5h-238q0 162 84.5 249t257.5 87q146 0 231 -68.5t85 -189.5q0 -47 -14.5 -91.5
t-31.5 -74t-51 -65t-52 -51t-56 -46.5q-65 -53 -76 -67v-2h285v-199h-670z" />
    <glyph glyph-name="threeinferior" unicode="&#x2083;" horiz-adv-x="786" vert-adv-y="2457" 
d="M399 -225q-175 0 -269.5 83t-94.5 238h237q0 -66 26 -95.5t91 -29.5q96 0 96 82q0 44 -31.5 64t-103.5 20h-28v164h24q117 0 117 82q0 33 -21.5 50.5t-54.5 17.5q-41 0 -66.5 -20t-25.5 -62h-236q0 124 92 202t246 78q137 0 228.5 -62t91.5 -169q0 -112 -117 -182v-3
q139 -47 139 -196q0 -127 -91 -194.5t-249 -67.5z" />
    <glyph glyph-name="fourinferior" unicode="&#x2084;" horiz-adv-x="829" vert-adv-y="2457" 
d="M414 -205v166h-367v246l367 420h248v-469h122v-197h-122v-166h-248zM221 158h193v211z" />
    <glyph glyph-name="fiveinferior" unicode="&#x2085;" horiz-adv-x="802" vert-adv-y="2457" 
d="M418 -225q-184 0 -282 76.5t-101 209.5h252q5 -37 34.5 -63.5t81.5 -26.5q47 0 73 28.5t26 82.5q0 117 -109 117q-58 0 -102 -49h-232l101 477h559v-197h-391l-25 -115v-2q79 52 170 52q128 0 204.5 -74.5t76.5 -210.5q0 -150 -93 -227.5t-243 -77.5z" />
    <glyph glyph-name="sixinferior" unicode="&#x2086;" horiz-adv-x="817" vert-adv-y="2457" 
d="M416 -225q-104 0 -178.5 36t-114 98.5t-57 132.5t-17.5 153q0 218 100.5 336t264.5 118q134 0 219.5 -64t109.5 -169h-239q-30 55 -96 55q-125 0 -138 -143l-2 -25l8 -2q24 26 78.5 48t118.5 22q136 0 217.5 -80.5t81.5 -210.5q0 -138 -98 -221.5t-258 -83.5zM295 76
q0 -52 31.5 -85.5t87.5 -33.5q57 0 90 33.5t33 85.5q0 48 -30.5 82.5t-88.5 34.5t-90.5 -34.5t-32.5 -82.5z" />
    <glyph glyph-name="seveninferior" unicode="&#x2087;" horiz-adv-x="681" vert-adv-y="2457" 
d="M154 -205q0 195 67.5 370t167.5 263v2h-366v197h626v-183q-123 -101 -179 -271t-56 -378h-260z" />
    <glyph glyph-name="eightinferior" unicode="&#x2088;" horiz-adv-x="808" vert-adv-y="2457" 
d="M403 -225q-157 0 -257.5 68t-100.5 192q0 139 156 209v2q-121 68 -121 176q0 105 93.5 166t229.5 61q140 0 233 -61.5t93 -165.5q0 -110 -121 -176v-2q158 -71 158 -209q0 -124 -103 -192t-260 -68zM297 61q0 -42 26.5 -74t79.5 -32q52 0 79.5 31.5t27.5 74.5
q0 41 -27.5 71t-79.5 30t-79 -30t-27 -71zM299 397q0 -37 25 -63.5t79 -26.5q53 0 79 26.5t26 63.5q0 34 -26.5 60t-78.5 26t-78 -26t-26 -60z" />
    <glyph glyph-name="nineinferior" unicode="&#x2089;" horiz-adv-x="821" vert-adv-y="2457" 
d="M403 -225q-129 0 -220 65t-115 168h251q27 -53 91 -53q54 0 85 35t31 102v10l-2 2q-23 -22 -72 -38.5t-110 -16.5q-134 0 -215.5 82t-81.5 213q0 138 98 221.5t258 83.5q85 0 151 -25.5t106.5 -67t67 -100t36.5 -118.5t10 -129q0 -208 -102 -321t-267 -113zM281 348
q0 -48 33.5 -82.5t91.5 -34.5t87 34t29 83q0 52 -31.5 85.5t-87.5 33.5q-57 0 -89.5 -33.5t-32.5 -85.5z" />
    <glyph glyph-name="euro" unicode="&#x20ac;" horiz-adv-x="1435" vert-adv-y="2457" 
d="M801 -33q-140 0 -248.5 39.5t-180.5 113t-115 168t-62 212.5h-109v137h96q-2 23 -2 65v35h-94v137h104q13 98 42 181t78.5 154.5t117 121t162.5 77.5t211 28q273 0 414.5 -148t152.5 -399h-348q-8 129 -60 197.5t-167 68.5q-114 0 -174 -72t-80 -209h325v-137h-336v-35
q0 -45 2 -65h334v-137h-321q23 -124 82.5 -188t167.5 -64q117 0 169 69t58 201h348q-5 -124 -41 -223.5t-104 -173.5t-175 -114t-247 -40z" />
    <glyph glyph-name="trademark" unicode="&#x2122;" horiz-adv-x="1439" vert-adv-y="2457" 
d="M621 899v565h256l100 -319h4l102 319h258v-565h-188v346h-4l-105 -346h-133l-102 346h-4v-346h-184zM41 1284v180h504v-180h-150v-385h-205v385h-149z" />
    <glyph glyph-name="Ohm" unicode="&#x2126;" horiz-adv-x="1638" vert-adv-y="2457" 
d="M70 0v299h313q-139 85 -213 221t-74 316q0 298 194 477.5t529 179.5t529 -179.5t194 -477.5q0 -180 -74 -316t-213 -221h314v-299h-647v276q264 169 264 506q0 208 -96 312t-271 104q-174 0 -270 -104t-96 -312q0 -337 264 -506v-276h-647z" />
    <glyph glyph-name="oneeighth" unicode="&#x215b;" horiz-adv-x="1761" vert-adv-y="2457" 
d="M203 1151q-41 -18 -176 -18v188q93 0 157.5 39t63.5 104h217v-831h-262v518zM203 0l927 1464h287l-928 -1464h-286zM1004 240q0 140 155 209v2q-121 68 -121 176q0 105 93.5 166t230.5 61q140 0 233 -61.5t93 -165.5q0 -110 -121 -176v-2q157 -71 157 -209
q0 -124 -102.5 -192t-259.5 -68t-257.5 68t-100.5 192zM1255 266q0 -42 27 -74t80 -32q52 0 79 31.5t27 74.5q0 41 -27 71t-79 30t-79.5 -30t-27.5 -71zM1257 602q0 -37 25.5 -63.5t79.5 -26.5q53 0 78.5 26.5t25.5 63.5q0 34 -26 60t-78 26t-78.5 -26t-26.5 -60z" />
    <glyph glyph-name="threeeighths" unicode="&#x215c;" horiz-adv-x="2029" vert-adv-y="2457" 
d="M420 612q-175 0 -270 83.5t-95 238.5h238q0 -66 26 -95.5t91 -29.5q96 0 96 82q0 44 -31.5 64t-103.5 20h-29v164h25q116 0 116 82q0 33 -21 50t-54 17q-41 0 -67 -20t-26 -62h-235q0 124 92 202.5t246 78.5q137 0 228 -62.5t91 -169.5q0 -112 -116 -182v-2
q139 -47 139 -197q0 -127 -91 -194.5t-249 -67.5zM420 0l928 1464h286l-927 -1464h-287zM1262 240q0 140 155 209v2q-121 68 -121 176q0 105 93.5 166t230.5 61q140 0 233 -61.5t93 -165.5q0 -110 -121 -176v-2q157 -71 157 -209q0 -124 -102.5 -192t-259.5 -68t-257.5 68
t-100.5 192zM1513 266q0 -42 27 -74t80 -32q52 0 79 31.5t27 74.5q0 41 -27 71t-79 30t-79.5 -30t-27.5 -71zM1516 602q0 -37 25 -63.5t79 -26.5q53 0 78.5 26.5t25.5 63.5q0 34 -26 60t-78 26t-78 -26t-26 -60z" />
    <glyph glyph-name="fiveeighths" unicode="&#x215d;" horiz-adv-x="2021" vert-adv-y="2457" 
d="M426 612q-184 0 -282 76.5t-101 210.5h252q5 -37 35 -63.5t82 -26.5q47 0 72.5 28.5t25.5 82.5q0 116 -109 116q-58 0 -102 -49h-231l100 477h559v-196h-391l-25 -115v-2q77 51 170 51q129 0 205 -74.5t76 -209.5q0 -150 -93 -228t-243 -78zM414 0l927 1464h287
l-928 -1464h-286zM1255 240q0 139 156 209v2q-121 68 -121 176q0 105 93.5 166t230.5 61q140 0 232.5 -61.5t92.5 -165.5q0 -110 -120 -176v-2q157 -71 157 -209q0 -124 -102.5 -192t-259.5 -68q-158 0 -258.5 68t-100.5 192zM1507 266q0 -42 27 -74t80 -32q52 0 79 31.5
t27 74.5q0 41 -27 71t-79 30t-79.5 -30t-27.5 -71zM1509 602q0 -37 25.5 -63.5t79.5 -26.5q53 0 78.5 26.5t25.5 63.5q0 34 -26 60t-78 26t-78.5 -26t-26.5 -60z" />
    <glyph glyph-name="seveneighths" unicode="&#x215e;" horiz-adv-x="1822" vert-adv-y="2457" 
d="M158 633q0 195 67.5 370t167.5 263v2h-366v196h626v-182q-123 -101 -179 -271t-56 -378h-260zM223 0l928 1464h287l-928 -1464h-287zM1065 240q0 139 156 209v2q-121 68 -121 176q0 105 93.5 166t229.5 61q140 0 233 -61.5t93 -165.5q0 -110 -121 -176v-2
q158 -71 158 -209q0 -124 -103 -192t-260 -68t-257.5 68t-100.5 192zM1317 266q0 -42 26.5 -74t79.5 -32q52 0 79.5 31.5t27.5 74.5q0 41 -27.5 71t-79.5 30t-79 -30t-27 -71zM1319 602q0 -37 25 -63.5t79 -26.5q53 0 79 26.5t26 63.5q0 34 -26.5 60t-78.5 26t-78 -26
t-26 -60z" />
    <glyph glyph-name="leftArrow" unicode="&#x2190;" horiz-adv-x="1579" vert-adv-y="2457" 
d="M664 20l-588 635l588 635l157 -162l-327 -350h997v-246h-997l327 -350z" />
    <glyph glyph-name="upArrow" unicode="&#x2191;" horiz-adv-x="1363" vert-adv-y="2457" 
d="M559 0v997l-350 -327l-162 157l635 588l635 -588l-162 -157l-350 327v-997h-246z" />
    <glyph glyph-name="rightArrow" unicode="&#x2192;" horiz-adv-x="1579" vert-adv-y="2457" 
d="M915 20l-157 162l327 350h-997v246h997l-327 350l157 162l588 -635z" />
    <glyph glyph-name="downArrow" unicode="&#x2193;" horiz-adv-x="1363" vert-adv-y="2457" 
d="M682 -82l-635 588l162 158l350 -328v997h246v-997l350 328l162 -158z" />
    <glyph glyph-name="leftRightArrow" unicode="&#x2194;" horiz-adv-x="2349" vert-adv-y="2457" 
d="M655 18l-587 635l587 637l158 -162l-328 -350h1377l-326 350l156 162l587 -635l-585 -635l-158 162l328 350h-1379l328 -350z" />
    <glyph glyph-name="upDownArrow" unicode="&#x2195;" horiz-adv-x="1351" vert-adv-y="2457" 
d="M676 -362l-635 587l162 158l350 -328v1137l-350 -328l-162 158l635 588l635 -588l-162 -158l-350 328v-1137l350 328l162 -158z" />
    <glyph glyph-name="northWestArrow" unicode="&#x2196;" horiz-adv-x="1247" vert-adv-y="2457" 
d="M1022 143l-696 705v-479l-217 -2v864h864l-4 -209h-490l717 -705z" />
    <glyph glyph-name="northEastArrow" unicode="&#x2197;" horiz-adv-x="1247" vert-adv-y="2457" 
d="M225 143l-174 174l717 705h-489l-5 209h865v-864l-217 2v479z" />
    <glyph glyph-name="southEastArrow" unicode="&#x2198;" horiz-adv-x="1236" vert-adv-y="2457" 
d="M270 88l4 209h490l-717 704l174 175l697 -705v479l217 2v-864h-865z" />
    <glyph glyph-name="southWestArrow" unicode="&#x2199;" horiz-adv-x="1236" vert-adv-y="2457" 
d="M102 88v864l217 -2v-479l697 705l174 -175l-717 -704h490l4 -209h-865z" />
    <glyph glyph-name="partialdiff" unicode="&#x2202;" horiz-adv-x="1196" vert-adv-y="2457" 
d="M545 -33q-233 0 -371.5 129t-138.5 348q0 100 35.5 195t95.5 167t144.5 115.5t176.5 43.5q113 0 181.5 -34t115.5 -95q-38 171 -157.5 259.5t-304.5 88.5v280q169 0 305.5 -42t230 -115.5t156 -177.5t91 -224t28.5 -258q0 -102 -19 -197t-63 -184t-110 -154.5t-168 -105
t-228 -39.5zM362 446q0 -94 49 -156.5t142 -62.5q110 0 170.5 75t60.5 185q0 93 -48 155.5t-142 62.5q-109 0 -170.5 -75.5t-61.5 -183.5z" />
    <glyph glyph-name="emptyset" unicode="&#x2205;" horiz-adv-x="1679" vert-adv-y="2457" 
d="M840 -33q-275 0 -482 158l-133 -133l-102 102l131 131q-170 200 -170 482q0 214 101 384.5t273 263.5t382 93q275 0 479 -158l133 133l102 -102l-131 -131q170 -204 170 -483q0 -161 -58.5 -300t-159.5 -235t-239.5 -150.5t-295.5 -54.5zM227 707q0 -218 129 -379
l858 858q-160 119 -374 119q-169 0 -308.5 -74.5t-222 -212t-82.5 -311.5zM463 229q158 -118 377 -118q168 0 307 74.5t221 211.5t82 310q0 219 -129 380z" />
    <glyph glyph-name="increment" unicode="&#x2206;" horiz-adv-x="1404" vert-adv-y="2457" 
d="M43 0v301l459 1163h401l459 -1163v-301h-1319zM385 291h633l-307 835h-19z" />
    <glyph glyph-name="product" unicode="&#x220f;" horiz-adv-x="1501" vert-adv-y="2457" 
d="M123 -205v1669h1255v-1669h-348v1389h-559v-1389h-348z" />
    <glyph glyph-name="summation" unicode="&#x2211;" horiz-adv-x="1241" vert-adv-y="2457" 
d="M61 -205v287l517 563v4l-517 531v284h1106v-280h-698v-4l457 -455v-143l-471 -502v-4h733v-281h-1127z" />
    <glyph glyph-name="minus" unicode="&#x2212;" horiz-adv-x="1175" vert-adv-y="2457" 
d="M90 532v283h995v-283h-995z" />
    <glyph glyph-name="bulletoperator" unicode="&#x2219;" horiz-adv-x="700" vert-adv-y="2457" 
d="M195 553v311h311v-311h-311z" />
    <glyph glyph-name="radical" unicode="&#x221a;" horiz-adv-x="1400" vert-adv-y="2457" 
d="M498 -205l-260 670h-158v280h383l196 -536h5l360 1255h348l-547 -1669h-327z" />
    <glyph glyph-name="infinity" unicode="&#x221e;" horiz-adv-x="1562" vert-adv-y="2457" 
d="M434 244q-68 0 -130 24t-111.5 69.5t-79 120t-29.5 167.5q0 95 29.5 169.5t79 119.5t111 68.5t130.5 23.5q200 0 346 -175h4q146 175 344 175q69 0 130.5 -23.5t111.5 -68.5t79.5 -119.5t29.5 -169.5q0 -93 -29.5 -167.5t-79.5 -120t-112 -69.5t-130 -24
q-103 0 -186.5 54.5t-157.5 143.5h-4q-166 -198 -346 -198zM309 625q0 -65 35.5 -110.5t104.5 -45.5q35 0 66 12t60 38.5t47 47t48 58.5q-30 38 -48 58.5t-47 46.5t-60 38t-66 12q-69 0 -104.5 -45.5t-35.5 -109.5zM893 625q30 -38 48 -58.5t47 -47t60 -38.5t66 -12
q69 0 104 45.5t35 110.5t-35 110t-104 45q-35 0 -66 -12t-60 -38t-47 -46.5t-48 -58.5z" />
    <glyph glyph-name="integral" unicode="&#x222b;" horiz-adv-x="827" vert-adv-y="2457" 
d="M260 -362q-135 0 -233 20v246q47 -13 79 -13q134 0 134 177v1087q0 183 76 273t251 90q131 0 234 -21v-246q-47 13 -80 13q-133 0 -133 -177v-1087q0 -183 -76.5 -272.5t-251.5 -89.5z" />
    <glyph glyph-name="approxequal" unicode="&#x2248;" horiz-adv-x="1173" vert-adv-y="2457" 
d="M94 670q0 182 60 270t184 88q75 0 248.5 -46t214.5 -46q84 0 84 92h205q0 -182 -60 -270t-184 -88q-75 0 -248.5 46t-214.5 46q-84 0 -84 -92h-205zM94 229q0 182 60 270.5t184 88.5q75 0 248.5 -46t214.5 -46q84 0 84 92h205q0 -182 -60 -270.5t-184 -88.5
q-75 0 -248.5 46.5t-214.5 46.5q-84 0 -84 -93h-205z" />
    <glyph glyph-name="notequal" unicode="&#x2260;" horiz-adv-x="1144" vert-adv-y="2457" 
d="M223 158l74 157h-207v283h342l72 152h-414v282h547l76 160h205l-76 -160h213v-282h-346l-72 -152h418v-283h-553l-74 -157h-205z" />
    <glyph glyph-name="lessequal" unicode="&#x2264;" horiz-adv-x="1011" vert-adv-y="2457" 
d="M920 266l-844 283v307l844 283v-281l-568 -153v-5l568 -153v-281zM76 0v246h844v-246h-844z" />
    <glyph glyph-name="greaterequal" unicode="&#x2265;" horiz-adv-x="1011" vert-adv-y="2457" 
d="M92 266v281l567 153v5l-567 153v281l844 -283v-307zM92 0v246h844v-246h-844z" />
    <glyph glyph-name="lessoverequal" unicode="&#x2266;" horiz-adv-x="1142" vert-adv-y="2457" 
d="M1038 334h-946v239h799l-799 269v276l946 316v-260l-630 -193v-4l630 -193v-450zM92 0v240h946v-240h-946z" />
    <glyph glyph-name="greateroverequal" unicode="&#x2267;" horiz-adv-x="1142" vert-adv-y="2457" 
d="M104 784l631 193v4l-631 193v260l947 -316v-276l-799 -269h799v-239h-947v450zM104 0v240h947v-240h-947z" />
    <glyph glyph-name="one.circled" unicode="&#x2460;" horiz-adv-x="1703" vert-adv-y="2457" 
d="M852 -33q-353 0 -559.5 206t-206.5 558q0 353 206.5 559.5t559.5 206.5t559.5 -206.5t206.5 -559.5q0 -352 -206.5 -558t-559.5 -206zM311 731q0 -266 143.5 -417.5t397.5 -151.5t397.5 151.5t143.5 417.5t-143.5 419t-397.5 153t-397.5 -153t-143.5 -419zM571 819v189
q93 0 158 39t64 104h217v-832h-262v519q-43 -19 -177 -19z" />
    <glyph glyph-name="two.circled" unicode="&#x2461;" horiz-adv-x="1703" vert-adv-y="2457" 
d="M852 -33q-353 0 -559.5 206t-206.5 558q0 353 206.5 559.5t559.5 206.5t559.5 -206.5t206.5 -559.5q0 -352 -206.5 -558t-559.5 -206zM311 731q0 -266 143.5 -417.5t397.5 -151.5t397.5 151.5t143.5 417.5t-143.5 419t-397.5 153t-397.5 -153t-143.5 -419zM518 319
q0 45 2.5 75t14 60t23.5 49t42.5 48t58 51t82.5 64q9 6 36.5 26.5t39 29.5t34.5 28.5t34 33.5t24.5 33t19 39t5.5 41q0 39 -19.5 58.5t-54.5 19.5q-46 0 -71 -29t-25 -108h-238q0 162 84.5 249t257.5 87q146 0 231 -69t85 -190q0 -47 -14.5 -91.5t-31.5 -73.5t-51.5 -65
t-52 -51t-55.5 -46q-63 -51 -76 -68v-2h285v-199h-670z" />
    <glyph glyph-name="three.circled" unicode="&#x2462;" horiz-adv-x="1703" vert-adv-y="2457" 
d="M852 -33q-353 0 -559.5 206t-206.5 558q0 353 206.5 559.5t559.5 206.5t559.5 -206.5t206.5 -559.5q0 -352 -206.5 -558t-559.5 -206zM311 731q0 -266 143.5 -417.5t397.5 -151.5t397.5 151.5t143.5 417.5t-143.5 419t-397.5 153t-397.5 -153t-143.5 -419zM500 616h237
q0 -66 26 -95t91 -29q96 0 96 81q0 44 -31.5 64t-103.5 20h-29v164h25q117 0 117 82q0 33 -21.5 50.5t-54.5 17.5q-41 0 -66.5 -20t-25.5 -62h-236q0 124 92 202t246 78q137 0 228.5 -62t91.5 -169q0 -112 -117 -182v-2q139 -47 139 -197q0 -127 -91 -194.5t-249 -67.5
q-175 0 -269.5 83t-94.5 238z" />
    <glyph glyph-name="four.circled" unicode="&#x2463;" horiz-adv-x="1703" vert-adv-y="2457" 
d="M852 -33q-353 0 -559.5 206t-206.5 558q0 353 206.5 559.5t559.5 206.5t559.5 -206.5t206.5 -559.5q0 -352 -206.5 -558t-559.5 -206zM311 731q0 -266 143.5 -417.5t397.5 -151.5t397.5 151.5t143.5 417.5t-143.5 419t-397.5 153t-397.5 -153t-143.5 -419zM483 481v246
l367 420h248v-469h123v-197h-123v-166h-248v166h-367zM657 678h193v211z" />
    <glyph glyph-name="five.circled" unicode="&#x2464;" horiz-adv-x="1703" vert-adv-y="2457" 
d="M852 -33q-353 0 -559.5 206t-206.5 558q0 353 206.5 559.5t559.5 206.5t559.5 -206.5t206.5 -559.5q0 -352 -206.5 -558t-559.5 -206zM311 731q0 -266 143.5 -417.5t397.5 -151.5t397.5 151.5t143.5 417.5t-143.5 419t-397.5 153t-397.5 -153t-143.5 -419zM494 582h251
q5 -37 35 -63.5t82 -26.5q48 0 73.5 28t25.5 82q0 117 -109 117q-58 0 -102 -49h-232l100 477h560v-197h-392l-24 -114v-2q77 51 170 51q128 0 204 -74.5t76 -210.5q0 -150 -92.5 -227.5t-242.5 -77.5q-184 0 -282 76.5t-101 210.5z" />
    <glyph glyph-name="six.circled" unicode="&#x2465;" horiz-adv-x="1703" vert-adv-y="2457" 
d="M852 -33q-353 0 -559.5 206t-206.5 558q0 353 206.5 559.5t559.5 206.5t559.5 -206.5t206.5 -559.5q0 -352 -206.5 -558t-559.5 -206zM311 731q0 -266 143.5 -417.5t397.5 -151.5t397.5 151.5t143.5 417.5t-143.5 419t-397.5 153t-397.5 -153t-143.5 -419zM492 715
q0 218 100 336t264 118q134 0 220 -64t110 -169h-240q-30 55 -96 55q-124 0 -137 -143l-2 -25l8 -2q24 26 78 48t118 22q136 0 217.5 -80.5t81.5 -210.5q0 -138 -98 -221.5t-258 -83.5q-84 0 -149 24.5t-105 64t-66 95.5t-36 113.5t-10 122.5zM737 596q0 -52 31.5 -85.5
t87.5 -33.5q57 0 90 33.5t33 85.5q0 48 -30.5 82.5t-88.5 34.5t-90.5 -34.5t-32.5 -82.5z" />
    <glyph glyph-name="seven.circled" unicode="&#x2466;" horiz-adv-x="1703" vert-adv-y="2457" 
d="M852 -33q-353 0 -559.5 206t-206.5 558q0 353 206.5 559.5t559.5 206.5t559.5 -206.5t206.5 -559.5q0 -352 -206.5 -558t-559.5 -206zM311 731q0 -266 143.5 -417.5t397.5 -151.5t397.5 151.5t143.5 417.5t-143.5 419t-397.5 153t-397.5 -153t-143.5 -419zM539 928v196
h626v-182q-123 -101 -179 -271t-56 -378h-260q0 195 67.5 370t167.5 263v2h-366z" />
    <glyph glyph-name="eight.circled" unicode="&#x2467;" horiz-adv-x="1703" vert-adv-y="2457" 
d="M852 -33q-353 0 -559.5 206t-206.5 558q0 353 206.5 559.5t559.5 206.5t559.5 -206.5t206.5 -559.5q0 -352 -206.5 -558t-559.5 -206zM311 731q0 -266 143.5 -417.5t397.5 -151.5t397.5 151.5t143.5 417.5t-143.5 419t-397.5 153t-397.5 -153t-143.5 -419zM492 555
q0 140 155 209v2q-121 68 -121 176q0 105 93.5 166t230.5 61q140 0 233 -61.5t93 -165.5q0 -110 -121 -176v-2q157 -71 157 -209q0 -124 -102.5 -192t-259.5 -68t-257.5 68t-100.5 192zM743 582q0 -42 27 -74.5t80 -32.5q52 0 79 32t27 75q0 41 -27 70.5t-79 29.5
t-79.5 -29.5t-27.5 -70.5zM745 918q0 -37 25.5 -64t79.5 -27q53 0 78.5 27t25.5 64q0 34 -26 60t-78 26t-78.5 -26t-26.5 -60z" />
    <glyph glyph-name="nine.circled" unicode="&#x2468;" horiz-adv-x="1703" vert-adv-y="2457" 
d="M852 -33q-353 0 -559.5 206t-206.5 558q0 353 206.5 559.5t559.5 206.5t559.5 -206.5t206.5 -559.5q0 -352 -206.5 -558t-559.5 -206zM311 731q0 -266 143.5 -417.5t397.5 -151.5t397.5 151.5t143.5 417.5t-143.5 419t-397.5 153t-397.5 -153t-143.5 -419zM489 864
q0 138 98.5 221.5t258.5 83.5q85 0 151 -25.5t106.5 -67t67 -100t36.5 -118.5t10 -129q0 -208 -102 -321t-267 -113q-129 0 -220.5 65t-115.5 168h252q27 -53 90 -53q54 0 85.5 35t31.5 102v11l-2 2q-23 -22 -72.5 -39t-110.5 -17q-134 0 -215.5 82t-81.5 213zM725 868
q0 -47 33.5 -81.5t91.5 -34.5t87.5 33.5t29.5 82.5q0 52 -31.5 85.5t-87.5 33.5q-57 0 -90 -33.5t-33 -85.5z" />
    <glyph glyph-name="zero.circled" unicode="&#x24ea;" horiz-adv-x="1703" vert-adv-y="2457" 
d="M852 -33q-353 0 -559.5 206t-206.5 558q0 353 206.5 559.5t559.5 206.5t559.5 -206.5t206.5 -559.5q0 -352 -206.5 -558t-559.5 -206zM311 731q0 -266 143.5 -417.5t397.5 -151.5t397.5 151.5t143.5 417.5t-143.5 419t-397.5 153t-397.5 -153t-143.5 -419zM467 731
q0 88 24 165.5t70.5 138.5t122 96.5t170.5 35.5t170 -35t120.5 -96t69 -138.5t23.5 -166.5t-23.5 -166.5t-69.5 -138t-120.5 -95t-169.5 -34.5t-170.5 35t-122 95.5t-70.5 138t-24 165.5zM723 731q0 -122 27.5 -178.5t103.5 -56.5q74 0 100.5 57t26.5 178q0 122 -26.5 179
t-100.5 57q-75 0 -103 -55.5t-28 -180.5z" />
    <glyph glyph-name="upperHalfBlock" unicode="&#x2580;" horiz-adv-x="1673" vert-adv-y="2457" 
d="M104 731v733h1465v-733h-1465z" />
    <glyph glyph-name="lowerHalfBlock" unicode="&#x2584;" horiz-adv-x="1677" vert-adv-y="2457" 
d="M106 0v733h1465v-733h-1465z" />
    <glyph glyph-name="fullBlock" unicode="&#x2588;" horiz-adv-x="1710" vert-adv-y="2457" 
d="M123 0v1464h1464v-1464h-1464z" />
    <glyph glyph-name="blackSquare" unicode="&#x25a0;" horiz-adv-x="1710" vert-adv-y="2457" 
d="M123 0v1464h1464v-1464h-1464z" />
    <glyph glyph-name="whiteSquare" unicode="&#x25a1;" horiz-adv-x="1710" vert-adv-y="2457" 
d="M123 0v1464h1464v-1464h-1464zM369 246h972v973h-972v-973z" />
    <glyph glyph-name="blackSmallSquare" unicode="&#x25aa;" horiz-adv-x="774" vert-adv-y="2457" 
d="M100 369v573h574v-573h-574z" />
    <glyph glyph-name="whiteSmallSquare" unicode="&#x25ab;" horiz-adv-x="856" vert-adv-y="2457" 
d="M100 328v655h656v-655h-656zM346 573h164v164h-164v-164z" />
    <glyph glyph-name="upBlackTriangle" unicode="&#x25b2;" horiz-adv-x="1687" vert-adv-y="2457" 
d="M25 0l819 1464l819 -1464h-1638z" />
    <glyph glyph-name="rightBlackPointer" unicode="&#x25ba;" horiz-adv-x="1669" vert-adv-y="2457" 
d="M145 -88v1638l1465 -819z" />
    <glyph glyph-name="downBlackTriangle" unicode="&#x25bc;" horiz-adv-x="1687" vert-adv-y="2457" 
d="M844 0l-819 1464h1638z" />
    <glyph glyph-name="leftBlackPointer" unicode="&#x25c4;" horiz-adv-x="1669" vert-adv-y="2457" 
d="M1524 -88l-1465 819l1465 819v-1638z" />
    <glyph glyph-name="lozenge" unicode="&#x25ca;" horiz-adv-x="1290" vert-adv-y="2457" 
d="M481 0l-413 731l411 733h330l414 -733l-412 -731h-330zM416 731l229 -450h4l225 450l-229 453h-4z" />
    <glyph glyph-name="whiteCircle" unicode="&#x25cb;" horiz-adv-x="1703" vert-adv-y="2457" 
d="M852 -33q-353 0 -559.5 206t-206.5 558q0 353 206.5 559.5t559.5 206.5t559.5 -206.5t206.5 -559.5q0 -352 -206.5 -558t-559.5 -206zM311 731q0 -266 143.5 -417.5t397.5 -151.5t397.5 151.5t143.5 417.5t-143.5 419t-397.5 153t-397.5 -153t-143.5 -419z" />
    <glyph glyph-name="blackCircle" unicode="&#x25cf;" horiz-adv-x="1697" vert-adv-y="2457" 
d="M850 -33q-156 0 -298 60.5t-244.5 163t-163 244t-60.5 296.5q0 208 102.5 384t279 279t384.5 103q155 0 296.5 -61t244 -163.5t163 -244.5t60.5 -297t-60.5 -296.5t-163 -244t-244 -163t-296.5 -60.5z" />
    <glyph glyph-name="rightTipDownArrow" unicode="&#x2b0e;" horiz-adv-x="1454" vert-adv-y="2457" 
d="M758 -41l-635 588l162 158l350 -328v446h-594v226h840v-672l350 328l162 -158z" />
    <glyph glyph-name="rightTipUpArrow" unicode="&#x2b0f;" horiz-adv-x="1458" vert-adv-y="2457" 
d="M41 0v225h594v447l-350 -328l-162 158l635 588l635 -588l-162 -158l-350 328v-672h-840z" />
    <glyph glyph-name="leftArrowTipDown" unicode="&#x2b10;" horiz-adv-x="1454" vert-adv-y="2457" 
d="M694 -49l-635 588l162 157l350 -327v671h840v-225h-594v-446l350 327l162 -157z" />
    <glyph glyph-name="leftArrowTipUp" unicode="&#x2b11;" horiz-adv-x="1458" vert-adv-y="2457" 
d="M578 0v672l-351 -328l-161 158l634 588l635 -588l-161 -158l-351 328v-447h594v-225h-839z" />
    <glyph glyph-name="downTriangleArrowWithLongTipLeft" unicode="&#x2ba0;" horiz-adv-x="1261" vert-adv-y="2457" 
d="M655 -119l-587 635l587 635l158 -162l-328 -350h447v594h225v-840h-672l328 -350z" />
    <glyph glyph-name="downTriangleArrowWithLongTipRight" unicode="&#x2ba1;" horiz-adv-x="1261" vert-adv-y="2457" 
d="M606 -119l-157 162l327 350h-672v840h226v-594h446l-327 350l157 162l588 -635z" />
    <glyph glyph-name="upTriangleArrowWithLongTipLeft" unicode="&#x2ba2;" horiz-adv-x="1253" vert-adv-y="2457" 
d="M653 -88l-587 635l587 635l158 -162l-328 -350h672v-840h-225v594h-447l328 -350z" />
    <glyph glyph-name="upTriangleArrowWithLongTipRight" unicode="&#x2ba3;" horiz-adv-x="1253" vert-adv-y="2457" 
d="M600 -88l-158 162l328 350h-446v-594h-226v840h672l-328 350l158 162l588 -635z" />
    <glyph glyph-name="leftTriangleArrowWithLongTipUp" unicode="&#x2ba4;" horiz-adv-x="1454" vert-adv-y="2457" 
d="M573 -4v672l-350 -328l-162 158l635 587l635 -587l-162 -158l-350 328v-447h594v-225h-840z" />
    <glyph glyph-name="rightTriangleArrowWithLongTipUp" unicode="&#x2ba5;" horiz-adv-x="1458" vert-adv-y="2457" 
d="M41 0v225h594v447l-350 -328l-162 158l635 588l635 -588l-162 -158l-350 328v-672h-840z" />
    <glyph glyph-name="leftTriangleArrowWithLongTipDown" unicode="&#x2ba6;" horiz-adv-x="1454" vert-adv-y="2457" 
d="M694 -49l-635 588l162 157l350 -327v671h840v-225h-594v-446l350 327l162 -157z" />
    <glyph glyph-name="rightTriangleArrowWithLongTipDown" unicode="&#x2ba7;" horiz-adv-x="1454" vert-adv-y="2457" 
d="M758 -41l-635 588l162 158l350 -328v446h-594v226h840v-672l350 328l162 -158z" />
    <glyph glyph-name="fi" unicode="&#xfb01;" horiz-adv-x="1220" vert-adv-y="2457" 
d="M182 1122q0 191 77 276t247 85q81 0 186 -21v-231q-59 6 -82 6q-51 0 -75.5 -23t-24.5 -100v-65h182v-246h-182v-803h-328v803h-141v246h141v73zM803 0v1049h327v-1049h-327zM803 1174v290h327v-290h-327z" />
    <glyph glyph-name="fl" unicode="&#xfb02;" horiz-adv-x="1220" vert-adv-y="2457" 
d="M182 1122q0 191 77 276t247 85q81 0 186 -21v-231q-59 6 -82 6q-51 0 -75.5 -23t-24.5 -100v-65h182v-246h-182v-803h-328v803h-141v246h141v73zM803 0v1464h327v-1464h-327z" />
    <glyph glyph-name="zeroWidthNoBreakSpace" unicode="&#xfeff;" vert-adv-y="2457" 
 />
    <glyph glyph-name="A.blackCircled" unicode="&#x1f150;" horiz-adv-x="1204" vert-adv-y="2457" 
d="M602 498q-209 0 -354.5 143t-145.5 356t145.5 356.5t354.5 143.5t354.5 -143.5t145.5 -356.5t-145.5 -356t-354.5 -143z" />
    <glyph glyph-name="i.latn_TRK" horiz-adv-x="507" vert-adv-y="2457" 
d="M90 0v1049h328v-1049h-328zM90 1174v290h328v-290h-328z" />
    <glyph glyph-name="zero.numr" horiz-adv-x="864" vert-adv-y="2457" 
d="M434 616q-126 0 -215.5 61.5t-130.5 158t-41 215.5q0 88 24 165.5t70.5 138.5t122 96.5t170.5 35.5t170 -35t120.5 -96t69 -138.5t23.5 -166.5t-23.5 -166.5t-69 -138t-120.5 -95.5t-170 -35zM303 1051q0 -122 27.5 -179t103.5 -57q74 0 100.5 57t26.5 179
q0 121 -26.5 178t-100.5 57q-75 0 -103 -55.5t-28 -179.5z" />
    <glyph glyph-name="one.numr" horiz-adv-x="546" vert-adv-y="2457" 
d="M203 1151q-41 -18 -176 -18v188q93 0 157.5 39t63.5 104h217v-831h-262v518z" />
    <glyph glyph-name="two.numr" horiz-adv-x="768" vert-adv-y="2457" 
d="M41 635q0 45 2.5 75t14.5 60t23.5 48.5t42 48t57.5 51t83 63.5q9 6 36.5 26.5t39 29.5t34.5 28.5t34 33.5t24.5 33t19 39t5.5 41q0 39 -19.5 58.5t-54.5 19.5q-46 0 -71 -29t-25 -108h-238q0 162 84.5 249t257.5 87q146 0 231 -68.5t85 -189.5q0 -47 -14.5 -91.5
t-31.5 -74t-51 -65t-52 -51t-56 -46.5q-65 -53 -76 -67v-2h285v-199h-670z" />
    <glyph glyph-name="three.numr" horiz-adv-x="786" vert-adv-y="2457" 
d="M399 612q-175 0 -269.5 83.5t-94.5 238.5h237q0 -66 26 -95.5t91 -29.5q96 0 96 82q0 44 -31.5 64t-103.5 20h-28v164h24q117 0 117 82q0 33 -21.5 50t-54.5 17q-41 0 -66.5 -20t-25.5 -62h-236q0 124 92 202.5t246 78.5q137 0 228.5 -62.5t91.5 -169.5q0 -112 -117 -182
v-2q139 -47 139 -197q0 -127 -91 -194.5t-249 -67.5z" />
    <glyph glyph-name="four.numr" horiz-adv-x="829" vert-adv-y="2457" 
d="M414 635v166h-367v246l367 419h248v-469h122v-196h-122v-166h-248zM221 997h193v211z" />
    <glyph glyph-name="five.numr" horiz-adv-x="802" vert-adv-y="2457" 
d="M418 612q-184 0 -282 76.5t-101 210.5h252q5 -37 34.5 -63.5t81.5 -26.5q47 0 73 28.5t26 82.5q0 116 -109 116q-58 0 -102 -49h-232l101 477h559v-196h-391l-25 -115v-2q77 51 170 51q129 0 205 -74.5t76 -209.5q0 -150 -93 -228t-243 -78z" />
    <glyph glyph-name="six.numr" horiz-adv-x="817" vert-adv-y="2457" 
d="M416 612q-104 0 -178.5 36t-114 98.5t-57 132.5t-17.5 153q0 218 100.5 336.5t264.5 118.5q134 0 219.5 -64.5t109.5 -169.5h-239q-31 56 -96 56q-125 0 -138 -144l-2 -24l8 -2q24 26 78.5 47.5t118.5 21.5q136 0 217.5 -80t81.5 -210q0 -138 -98 -222t-258 -84zM295 913
q0 -52 31.5 -85t87.5 -33q57 0 90 33t33 85q0 48 -30.5 82.5t-88.5 34.5t-90.5 -34.5t-32.5 -82.5z" />
    <glyph glyph-name="seven.numr" horiz-adv-x="681" vert-adv-y="2457" 
d="M154 633q0 195 67.5 370t167.5 263v2h-366v196h626v-182q-123 -101 -179 -271t-56 -378h-260z" />
    <glyph glyph-name="eight.numr" horiz-adv-x="808" vert-adv-y="2457" 
d="M403 612q-157 0 -257.5 68t-100.5 192q0 139 156 209v2q-121 68 -121 177q0 105 93.5 166t229.5 61q140 0 233 -61.5t93 -165.5q0 -111 -121 -177v-2q158 -71 158 -209q0 -124 -103 -192t-260 -68zM297 899q0 -42 26.5 -74t79.5 -32q52 0 79.5 31.5t27.5 74.5
q0 41 -27.5 70.5t-79.5 29.5t-79 -29.5t-27 -70.5zM299 1235q0 -37 25 -63.5t79 -26.5q53 0 79 26.5t26 63.5q0 34 -26.5 60t-78.5 26t-78 -26t-26 -60z" />
    <glyph glyph-name="nine.numr" horiz-adv-x="821" vert-adv-y="2457" 
d="M403 612q-128 0 -219.5 65.5t-115.5 168.5h251q27 -53 91 -53q54 0 85 35t31 102v10l-2 2q-23 -22 -72 -38.5t-110 -16.5q-134 0 -215.5 82t-81.5 213q0 138 98 221.5t258 83.5q85 0 151 -25.5t106.5 -67t67 -100t36.5 -118.5t10 -129q0 -208 -102 -321.5t-267 -113.5z
M281 1186q0 -48 33.5 -82.5t91.5 -34.5t87 34t29 83q0 52 -31.5 85.5t-87.5 33.5q-57 0 -89.5 -33.5t-32.5 -85.5z" />
    <glyph glyph-name="zero.dnom" horiz-adv-x="864" vert-adv-y="2457" 
d="M434 -18q-95 0 -170.5 35t-122 95.5t-70.5 138t-24 165.5t24 165.5t70.5 138.5t122 96.5t170.5 35.5t170 -35t120.5 -96t69 -138.5t23.5 -166.5t-23.5 -166.5t-69.5 -138t-120.5 -95t-169.5 -34.5zM303 416q0 -122 27.5 -179t103.5 -57q74 0 100.5 57t26.5 179
q0 121 -26.5 178t-100.5 57q-75 0 -103 -55.5t-28 -179.5z" />
    <glyph glyph-name="one.dnom" horiz-adv-x="546" vert-adv-y="2457" 
d="M203 518q-40 -18 -176 -18v188q93 0 157.5 39t63.5 104h217v-831h-262v518z" />
    <glyph glyph-name="two.dnom" horiz-adv-x="768" vert-adv-y="2457" 
d="M41 0q0 45 2.5 75t14.5 60t23.5 48.5t42 48t57.5 51t83 63.5q7 5 36 26.5t40 30t34.5 28.5t34 33.5t24 33t19 39.5t5.5 41q0 77 -74 77q-46 0 -71 -29t-25 -108h-238q0 162 84.5 249t257.5 87q146 0 231 -68.5t85 -189.5q0 -47 -14.5 -91.5t-31.5 -74t-51 -65t-52 -51
t-56 -46.5q-65 -53 -76 -67v-2h285v-199h-670z" />
    <glyph glyph-name="three.dnom" horiz-adv-x="786" vert-adv-y="2457" 
d="M399 -20q-175 0 -269.5 83t-94.5 238h237q0 -66 26 -95.5t91 -29.5q96 0 96 82q0 44 -31.5 64t-103.5 20h-28v164h24q117 0 117 82q0 33 -21.5 50t-54.5 17q-41 0 -66.5 -20t-25.5 -62h-236q0 124 92 202.5t246 78.5q137 0 228.5 -62t91.5 -169q0 -113 -117 -183v-2
q139 -47 139 -196q0 -127 -91 -194.5t-249 -67.5z" />
    <glyph glyph-name="four.dnom" horiz-adv-x="829" vert-adv-y="2457" 
d="M414 0v166h-367v246l367 419h248v-469h122v-196h-122v-166h-248zM221 362h193v211z" />
    <glyph glyph-name="five.dnom" horiz-adv-x="802" vert-adv-y="2457" 
d="M418 -20q-184 0 -282 76.5t-101 209.5h252q5 -37 34.5 -63.5t81.5 -26.5q47 0 73 28.5t26 82.5q0 116 -109 116q-58 0 -102 -49h-232l101 477h559v-196h-391l-25 -115v-2q77 51 170 51q129 0 205 -74.5t76 -209.5q0 -150 -93 -227.5t-243 -77.5z" />
    <glyph glyph-name="six.dnom" horiz-adv-x="817" vert-adv-y="2457" 
d="M416 -20q-84 0 -149 24.5t-105.5 64t-66.5 95t-36 113t-10 122.5q0 218 100.5 336.5t264.5 118.5q134 0 219.5 -64t109.5 -169h-239q-30 55 -96 55q-125 0 -138 -144l-2 -24l8 -2q24 26 78.5 47.5t118.5 21.5q136 0 217.5 -80t81.5 -210q0 -138 -98 -221.5t-258 -83.5z
M295 281q0 -52 31.5 -85.5t87.5 -33.5q57 0 90 33.5t33 85.5q0 48 -30.5 82t-88.5 34t-90.5 -34t-32.5 -82z" />
    <glyph glyph-name="seven.dnom" horiz-adv-x="681" vert-adv-y="2457" 
d="M154 0q0 195 67.5 370t167.5 263v2h-366v196h626v-182q-123 -101 -179 -271t-56 -378h-260z" />
    <glyph glyph-name="eight.dnom" horiz-adv-x="808" vert-adv-y="2457" 
d="M403 -20q-157 0 -257.5 68t-100.5 192q0 139 156 209v2q-121 68 -121 176q0 105 93.5 166t229.5 61q140 0 233 -61.5t93 -165.5q0 -110 -121 -176v-2q158 -71 158 -209q0 -124 -103 -192t-260 -68zM297 266q0 -42 26.5 -74t79.5 -32q52 0 79.5 31.5t27.5 74.5
q0 41 -27.5 71t-79.5 30t-79 -30t-27 -71zM299 602q0 -37 25 -63.5t79 -26.5q53 0 79 26.5t26 63.5q0 34 -26.5 60t-78.5 26t-78 -26t-26 -60z" />
    <glyph glyph-name="nine.dnom" horiz-adv-x="821" vert-adv-y="2457" 
d="M403 -20q-129 0 -220 65t-115 168h251q27 -53 91 -53q54 0 85 35t31 102v10l-2 2q-23 -22 -72 -38.5t-110 -16.5q-134 0 -215.5 82t-81.5 213q0 138 98 221.5t258 83.5q85 0 151 -25.5t106.5 -67t67 -100t36.5 -118.5t10 -129q0 -208 -102 -321t-267 -113zM281 553
q0 -48 33.5 -82.5t91.5 -34.5t87 34t29 83q0 52 -31.5 85.5t-87.5 33.5q-57 0 -89.5 -33.5t-32.5 -85.5z" />
    <glyph glyph-name="space.frac" horiz-adv-x="77" vert-adv-y="2457" 
 />
    <glyph glyph-name="zero.tf" horiz-adv-x="1638" vert-adv-y="2457" 
d="M821 -33q-155 0 -275.5 56t-195.5 156.5t-113 233.5t-38 294q0 128 23.5 239t73.5 204t122.5 159t175 102.5t227.5 36.5q155 0 275 -56t195 -156.5t113 -234t38 -294.5t-38 -294t-113 -233.5t-195 -156.5t-275 -56zM561 707q0 -102 12.5 -180t41 -141.5t80.5 -97.5
t126 -34t125.5 34t80 97.5t40.5 141.5t12 180t-12 180t-40.5 142t-80 98t-125.5 34t-126 -34t-80.5 -98t-41 -142t-12.5 -180z" />
    <glyph glyph-name="one.tf" horiz-adv-x="1638" vert-adv-y="2457" 
d="M381 0v281h299v669q-75 -59 -299 -59v272q103 0 182 26t128.5 84t49.5 142h287v-1134h299v-281h-946z" />
    <glyph glyph-name="two.tf" horiz-adv-x="1638" vert-adv-y="2457" 
d="M258 0q0 64 11 119.5t27 100t50.5 92.5t64.5 82.5t88 83.5t102 83.5t124 93.5q137 102 201.5 176t64.5 162q0 83 -41 128.5t-123 45.5q-104 0 -158.5 -63.5t-54.5 -204.5h-335q0 257 140 403t419 146q232 0 371 -115t139 -315q0 -57 -14 -112.5t-35 -100t-57.5 -91.5
t-68 -81t-81 -75.5t-83 -66.5t-85.5 -63q-118 -85 -176 -143v-4h600v-281h-1090z" />
    <glyph glyph-name="three.tf" horiz-adv-x="1638" vert-adv-y="2457" 
d="M827 -33q-284 0 -440 139t-156 394h336q0 -127 58 -189.5t190 -62.5q111 0 161 43.5t50 128.5q0 98 -63 142t-189 44h-72v240h64q99 0 159 43.5t60 130.5q0 71 -44 109t-130 38q-90 0 -146.5 -45t-56.5 -141h-336q0 206 148 336.5t399 130.5q108 0 202.5 -26t166 -74.5
t112.5 -123t41 -165.5q0 -204 -204 -309v-5q245 -77 245 -339q0 -212 -148.5 -325.5t-406.5 -113.5z" />
    <glyph glyph-name="four.tf" horiz-adv-x="1638" vert-adv-y="2457" 
d="M864 0v299h-641v342l641 774h348v-835h209v-281h-209v-299h-348zM479 580h385v456z" />
    <glyph glyph-name="five.tf" horiz-adv-x="1638" vert-adv-y="2457" 
d="M831 -33q-279 0 -430 127.5t-159 343.5h336q8 -82 68 -136t165 -54q100 0 157.5 60t57.5 175t-55 176.5t-166 61.5q-133 0 -215 -103h-328l164 797h895v-280h-657l-54 -271v-4q129 101 303 101q213 0 341 -128.5t128 -353.5q0 -125 -42 -223t-116.5 -161t-174 -95.5
t-218.5 -32.5z" />
    <glyph glyph-name="six.tf" horiz-adv-x="1638" vert-adv-y="2457" 
d="M854 -33q-136 0 -243 40t-176.5 107t-115 161t-64.5 196t-19 217q0 374 163 567t443 193q203 0 347.5 -109.5t178.5 -281.5h-352q-4 21 -14.5 41.5t-30 42t-54.5 34.5t-81 13q-127 0 -189.5 -86.5t-62.5 -231.5v-22l8 -6q130 123 330 123q216 0 351.5 -137t135.5 -343
q0 -236 -150.5 -377t-404.5 -141zM592 467q0 -106 64.5 -173t177.5 -67q111 0 175 67t64 173q0 104 -64 171t-175 67q-113 0 -177.5 -67t-64.5 -171z" />
    <glyph glyph-name="seven.tf" horiz-adv-x="1638" vert-adv-y="2457" 
d="M516 0q0 335 126.5 650.5t318.5 479.5v5h-670v280h1038v-260q-117 -94 -204.5 -227t-139 -286t-76 -313t-24.5 -329h-369z" />
    <glyph glyph-name="eight.tf" horiz-adv-x="1638" vert-adv-y="2457" 
d="M819 -33q-165 0 -295.5 48t-210.5 149t-80 242q0 239 267 356v4q-205 109 -205 299q0 119 71 207t188.5 132t264.5 44t264.5 -44t188.5 -132t71 -207q0 -189 -204 -299v-4q266 -118 266 -356q0 -141 -80 -242t-210.5 -149t-295.5 -48zM590 438q0 -91 60.5 -151t168.5 -60
t169 60.5t61 150.5q0 88 -61 147.5t-169 59.5t-168.5 -59.5t-60.5 -147.5zM610 1034q0 -77 53.5 -126.5t155.5 -49.5t155.5 49.5t53.5 126.5q0 74 -53.5 124t-155.5 50t-155.5 -50t-53.5 -124z" />
    <glyph glyph-name="nine.tf" horiz-adv-x="1638" vert-adv-y="2457" 
d="M797 -33q-203 0 -348 109.5t-179 281.5h353q4 -21 14.5 -41.5t30 -42t54.5 -34.5t81 -13q127 0 189.5 86.5t62.5 231.5v22l-8 6q-129 -122 -330 -122q-143 0 -255.5 63.5t-172.5 172t-60 243.5q0 236 150.5 377t404.5 141q136 0 243.5 -40t176.5 -107t115 -161t65 -196
t19 -217q0 -374 -163 -567t-443 -193zM565 948q0 -104 64.5 -170.5t175.5 -66.5q113 0 177.5 66.5t64.5 170.5q0 106 -64.5 173t-177.5 67q-111 0 -175.5 -67.5t-64.5 -172.5z" />
    <glyph glyph-name="figurespace.tf" horiz-adv-x="1638" vert-adv-y="2457" 
 />
    <glyph glyph-name="parenleft.case" horiz-adv-x="649" vert-adv-y="2457" 
d="M326 -195q-108 174 -184 422.5t-76 507.5q0 266 75 509t185 419h286q-198 -450 -198 -928q0 -480 198 -930h-286z" />
    <glyph glyph-name="parenright.case" horiz-adv-x="649" vert-adv-y="2457" 
d="M37 -195q199 453 199 928q0 477 -199 930h287q108 -174 184 -422.5t76 -507.5q0 -266 -75 -509t-185 -419h-287z" />
    <glyph glyph-name="hyphen.case" horiz-adv-x="737" vert-adv-y="2457" 
d="M90 592v280h557v-280h-557z" />
    <glyph glyph-name="bracketleft.case" horiz-adv-x="796" vert-adv-y="2457" 
d="M123 -195v1858h629v-281h-281v-1296h281v-281h-629z" />
    <glyph glyph-name="bracketright.case" horiz-adv-x="796" vert-adv-y="2457" 
d="M45 -195v281h281v1296h-281v281h629v-1858h-629z" />
    <glyph glyph-name="braceleft.case" horiz-adv-x="808" vert-adv-y="2457" 
d="M692 -195q-86 0 -150 6.5t-123.5 22.5t-99.5 45t-70.5 73.5t-44.5 109t-14 149.5v250q0 76 -28 103.5t-111 27.5v282q83 -1 111 27t28 107v258q0 85 14 148.5t44.5 107t70 71.5t100 43.5t123.5 21t150 5.5h56v-281h-56q-153 0 -153 -190v-238q0 -87 -34 -137.5
t-110 -81.5v-4q76 -31 110 -82t34 -139v-225q0 -199 153 -199h56v-281h-56z" />
    <glyph glyph-name="braceright.case" horiz-adv-x="808" vert-adv-y="2457" 
d="M61 -195v281h56q153 0 153 190v238q0 87 34 137.5t110 81.5v4q-76 31 -110 82t-34 139v226q0 198 -153 198h-56v281h56q104 0 177.5 -9t138 -34.5t103 -70.5t60.5 -117.5t22 -174.5v-249q0 -76 28 -103.5t112 -27.5v-283q-84 1 -112 -26.5t-28 -106.5v-258
q0 -102 -22 -173.5t-60 -115t-103.5 -68t-138 -33t-177.5 -8.5h-56z" />
    <glyph glyph-name="guillemetleft.case" horiz-adv-x="1036" vert-adv-y="2457" 
d="M915 256l-385 315v322l385 317v-315l-229 -162v-4l229 -166v-307zM100 571v322l385 317v-315l-229 -162v-4l229 -166v-307z" />
    <glyph glyph-name="softhyphen.case" horiz-adv-x="737" vert-adv-y="2457" 
d="M90 594v280h557v-280h-557z" />
    <glyph glyph-name="periodcentered.case" horiz-adv-x="512" vert-adv-y="2457" 
d="M100 578v311h312v-311h-312z" />
    <glyph glyph-name="guillemetright.case" horiz-adv-x="1036" vert-adv-y="2457" 
d="M551 256v315l229 162v4l-229 166v307l385 -315v-322zM121 256v315l229 162v4l-229 166v307l385 -315v-322z" />
    <glyph glyph-name="endash.case" horiz-adv-x="1204" vert-adv-y="2457" 
d="M90 592v280h1024v-280h-1024z" />
    <glyph glyph-name="emdash.case" horiz-adv-x="2228" vert-adv-y="2457" 
d="M90 594v280h2048v-280h-2048z" />
    <glyph glyph-name="bullet.case" horiz-adv-x="856" vert-adv-y="2457" 
d="M141 446v574h574v-574h-574z" />
    <glyph glyph-name="guilsinglleft.case" horiz-adv-x="628" vert-adv-y="2457" 
d="M508 256l-408 315v322l408 315v-319l-227 -154v-6l227 -154v-319z" />
    <glyph glyph-name="guilsinglright.case" horiz-adv-x="628" vert-adv-y="2457" 
d="M121 256v319l227 154v6l-227 154v319l407 -315v-322z" />
    <glyph glyph-name="s_s" horiz-adv-x="2123" vert-adv-y="2457" 
d="M559 -33q-254 0 -384 103t-138 278h307q15 -155 205 -155q139 0 139 90q0 24 -11 43t-25 30t-43 21.5t-50.5 15.5t-62.5 14t-64 15q-78 19 -137 42.5t-117 62t-89.5 97.5t-31.5 136q0 148 113.5 234.5t314.5 86.5q119 0 213 -32.5t169.5 -102.5t134 -160t120.5 -223
q95 -203 206.5 -286.5t264.5 -83.5q82 0 118 21.5t36 68.5q0 20 -5.5 36t-20 28t-27 20t-41 16.5t-45 12.5t-57 12.5t-60.5 13.5q-82 19 -145 44.5t-117.5 65t-83.5 96.5t-29 130q0 150 120 236.5t337 86.5q122 0 215 -29t148 -79.5t83.5 -112t32.5 -133.5h-307
q-8 65 -46.5 97t-117.5 32q-129 0 -129 -84q0 -44 34 -60.5t139 -39.5q9 -2 14.5 -3t14.5 -3t17 -4q60 -13 103.5 -25.5t94.5 -32t86.5 -45.5t66 -61t46 -83.5t15.5 -107.5q0 -163 -116.5 -251.5t-326.5 -88.5q-80 0 -144 12.5t-117.5 42.5t-95 66.5t-83.5 97.5t-75.5 121
t-77.5 152q-47 98 -101.5 171t-104.5 115t-106 68t-101 34.5t-95 8.5q-146 0 -146 -82q0 -41 40.5 -60t178.5 -52q72 -17 123.5 -33t110 -45.5t94.5 -65.5t60 -92t24 -127q0 -162 -119.5 -247t-345.5 -85z" />
    <glyph glyph-name="w_w_w" horiz-adv-x="4575" vert-adv-y="2457" 
d="M297 0l-293 1049h328l157 -639h5l176 639h286l177 -639h6l157 639h514l158 -639h4l176 639h287l176 -639h6l158 639h514l158 -639h4l176 639h287l176 -639h6l158 639h317l-293 -1049h-307l-203 664h-4l-203 -664h-307l-227 813l-227 -813h-308l-202 664h-4l-203 -664
h-307l-228 813l-227 -813h-307l-203 664h-4l-203 -664h-307z" />
    <glyph glyph-name="zero.zero" horiz-adv-x="1390" vert-adv-y="2457" 
d="M696 -33q-155 0 -275.5 56t-195.5 156.5t-113 233.5t-38 294q0 128 23.5 239t73.5 204t122.5 159t175 102.5t227.5 36.5q155 0 275 -56t195 -156.5t113 -234t38 -294.5t-38 -294t-113 -233.5t-195 -156.5t-275 -56zM420 707q0 -197 45 -312l303 785q-46 8 -72 8
q-63 0 -111 -24.5t-79 -66.5t-50.5 -104.5t-27.5 -131.5t-8 -154zM639 233q27 -6 57 -6q78 0 133 36t85.5 103.5t43.5 150.5t13 190q0 176 -35 288z" />
    <glyph glyph-name="zero.tf.zero" horiz-adv-x="1638" vert-adv-y="2457" 
d="M819 -33q-155 0 -275.5 56t-195.5 156.5t-113 233.5t-38 294q0 128 23.5 239t73.5 204t122.5 159t175 102.5t227.5 36.5q155 0 275 -56t195 -156.5t113 -234t38 -294.5t-38 -294t-113 -233.5t-195 -156.5t-275 -56zM543 707q0 -197 45 -312l303 785q-46 8 -72 8
q-63 0 -111 -24.5t-79 -66.5t-50.5 -104.5t-27.5 -131.5t-8 -154zM762 233q27 -6 57 -6q78 0 133 36t85.5 103.5t43.5 150.5t13 190q0 176 -35 288z" />
    <glyph glyph-name="a.ss01" horiz-adv-x="1228" vert-adv-y="2457" 
d="M504 -33q-210 0 -333.5 150t-123.5 407t123.5 407t333.5 150q103 0 184 -43t119 -94h4v105h328v-1049h-328v104h-4q-38 -51 -119 -94t-184 -43zM383 524q0 -152 55 -231.5t156 -79.5t156 79.5t55 231.5t-55 232t-156 80t-156 -80t-55 -232z" />
    <glyph glyph-name="agrave.ss01" horiz-adv-x="1228" vert-adv-y="2457" 
d="M504 -33q-210 0 -333.5 150t-123.5 407t123.5 407t333.5 150q103 0 184 -43t119 -94h4v105h328v-1049h-328v104h-4q-38 -51 -119 -94t-184 -43zM264 1489h328l108 -311h-245zM383 524q0 -152 55 -231.5t156 -79.5t156 79.5t55 231.5t-55 232t-156 80t-156 -80t-55 -232z
" />
    <glyph glyph-name="aacute.ss01" horiz-adv-x="1228" vert-adv-y="2457" 
d="M504 -33q-210 0 -333.5 150t-123.5 407t123.5 407t333.5 150q103 0 184 -43t119 -94h4v105h328v-1049h-328v104h-4q-38 -51 -119 -94t-184 -43zM383 524q0 -152 55 -231.5t156 -79.5t156 79.5t55 231.5t-55 232t-156 80t-156 -80t-55 -232zM459 1174l108 311h369
l-231 -311h-246z" />
    <glyph glyph-name="acircumflex.ss01" horiz-adv-x="1228" vert-adv-y="2457" 
d="M504 -33q-210 0 -333.5 150t-123.5 407t123.5 407t333.5 150q103 0 184 -43t119 -94h4v105h328v-1049h-328v104h-4q-38 -51 -119 -94t-184 -43zM203 1174l219 311h319l220 -311h-285l-92 165h-4l-93 -165h-284zM383 524q0 -152 55 -231.5t156 -79.5t156 79.5t55 231.5
t-55 232t-156 80t-156 -80t-55 -232z" />
    <glyph glyph-name="atilde.ss01" horiz-adv-x="1228" vert-adv-y="2457" 
d="M504 -33q-210 0 -333.5 150t-123.5 407t123.5 407t333.5 150q103 0 184 -43t119 -94h4v105h328v-1049h-328v104h-4q-38 -51 -119 -94t-184 -43zM215 1143q0 301 182 301q59 0 150.5 -41t128.5 -41q72 0 72 82h176q0 -301 -183 -301q-59 0 -150.5 40t-127.5 40
q-70 0 -70 -80h-178zM383 524q0 -152 55 -231.5t156 -79.5t156 79.5t55 231.5t-55 232t-156 80t-156 -80t-55 -232z" />
    <glyph glyph-name="adieresis.ss01" horiz-adv-x="1228" vert-adv-y="2457" 
d="M504 -33q-210 0 -333.5 150t-123.5 407t123.5 407t333.5 150q103 0 184 -43t119 -94h4v105h328v-1049h-328v104h-4q-38 -51 -119 -94t-184 -43zM205 1174v290h327v-290h-327zM383 524q0 -152 55 -231.5t156 -79.5t156 79.5t55 231.5t-55 232t-156 80t-156 -80t-55 -232z
M631 1174v290h327v-290h-327z" />
    <glyph glyph-name="aring.ss01" horiz-adv-x="1228" vert-adv-y="2457" 
d="M504 -33q-210 0 -333.5 150t-123.5 407t123.5 407t333.5 150q103 0 184 -43t119 -94h4v105h328v-1049h-328v104h-4q-38 -51 -119 -94t-184 -43zM356 1325q0 98 66 159.5t160 61.5q95 0 160 -61t65 -160q0 -100 -65 -160.5t-160 -60.5q-94 0 -160 60.5t-66 160.5zM383 524
q0 -152 55 -231.5t156 -79.5t156 79.5t55 231.5t-55 232t-156 80t-156 -80t-55 -232zM496 1325q0 -44 24 -69t62 -25q42 0 65 24.5t23 69.5t-23 69.5t-65 24.5q-38 0 -62 -25t-24 -69z" />
    <glyph glyph-name="amacron.ss01" horiz-adv-x="1228" vert-adv-y="2457" 
d="M504 -33q-210 0 -333.5 150t-123.5 407t123.5 407t333.5 150q103 0 184 -43t119 -94h4v105h328v-1049h-328v104h-4q-38 -51 -119 -94t-184 -43zM289 1174v204h585v-204h-585zM383 524q0 -152 55 -231.5t156 -79.5t156 79.5t55 231.5t-55 232t-156 80t-156 -80t-55 -232z
" />
    <glyph glyph-name="abreve.ss01" horiz-adv-x="1228" vert-adv-y="2457" 
d="M504 -33q-210 0 -333.5 150t-123.5 407t123.5 407t333.5 150q103 0 184 -43t119 -94h4v105h328v-1049h-328v104h-4q-38 -51 -119 -94t-184 -43zM254 1468h188q5 -52 40 -81t100 -29q129 0 139 110h188q-6 -139 -95.5 -225t-231.5 -86q-141 0 -232.5 85t-95.5 226z
M383 524q0 -152 55 -231.5t156 -79.5t156 79.5t55 231.5t-55 232t-156 80t-156 -80t-55 -232z" />
    <glyph glyph-name="aogonek.ss01" horiz-adv-x="1228" vert-adv-y="2457" 
d="M504 -33q-210 0 -333.5 150t-123.5 407t123.5 407t333.5 150q103 0 184 -43t119 -94h4v105h328v-1049h-88q-37 -32 -51 -44.5t-30 -35.5t-16 -43q0 -45 64 -45q33 0 84 14v-184q-86 -22 -166 -22q-115 0 -174.5 44t-59.5 128q0 65 41 113t99 75h-31v104h-4
q-38 -51 -119 -94t-184 -43zM383 524q0 -152 55 -231.5t156 -79.5t156 79.5t55 231.5t-55 232t-156 80t-156 -80t-55 -232z" />
    <glyph glyph-name="exclam.ss02" horiz-adv-x="516" vert-adv-y="2457" 
d="M176 479l-92 666v319h348v-319l-92 -666h-164zM94 156q0 69 45.5 117.5t122.5 48.5q75 0 120.5 -48.5t45.5 -117.5q0 -70 -45 -118t-121 -48q-79 0 -123.5 47.5t-44.5 118.5z" />
    <glyph glyph-name="comma.ss02" horiz-adv-x="448" vert-adv-y="2457" 
d="M74 -162q80 13 127 52.5t47 105.5q-83 -19 -138 22.5t-55 126.5q0 77 45.5 124.5t118.5 47.5q83 0 128.5 -63t45.5 -172q0 -145 -81.5 -250t-237.5 -123v129z" />
    <glyph glyph-name="period.ss02" horiz-adv-x="436" vert-adv-y="2457" 
d="M219 -10q-79 0 -123.5 47.5t-44.5 118.5q0 69 45.5 117.5t122.5 48.5q75 0 120.5 -48.5t45.5 -117.5q0 -70 -45 -118t-121 -48z" />
    <glyph glyph-name="colon.ss02" horiz-adv-x="497" vert-adv-y="2457" 
d="M250 625q-79 0 -123.5 47.5t-44.5 118.5q0 69 45.5 117t122.5 48q75 0 120.5 -48t45.5 -117q0 -70 -45 -118t-121 -48zM82 156q0 69 45.5 117.5t122.5 48.5q75 0 120.5 -48.5t45.5 -117.5q0 -70 -45 -118t-121 -48q-79 0 -123.5 47.5t-44.5 118.5z" />
    <glyph glyph-name="semicolon.ss02" horiz-adv-x="497" vert-adv-y="2457" 
d="M250 625q-79 0 -123.5 47.5t-44.5 118.5q0 69 45.5 117t122.5 48q75 0 120.5 -48t45.5 -117q0 -70 -45 -118t-121 -48zM80 145q0 77 45.5 124.5t118.5 47.5q83 0 128.5 -63t45.5 -172q0 -145 -82 -250t-238 -123v129q80 13 127 52.5t47 105.5q-83 -19 -137.5 22.5
t-54.5 126.5z" />
    <glyph glyph-name="question.ss02" horiz-adv-x="1101" vert-adv-y="2457" 
d="M377 479q0 69 1.5 110t10 81t18.5 62t35 50.5t51.5 49.5t75.5 57q62 45 90.5 71.5t44 57.5t15.5 74q0 54 -36 89.5t-116 35.5q-192 0 -192 -238h-348q0 109 35 202t101.5 164t173 111.5t241.5 40.5q215 0 352 -110t137 -287q0 -119 -55.5 -200t-167.5 -144
q-115 -64 -156 -117t-41 -160h-270zM348 156q0 69 45.5 117.5t122.5 48.5q75 0 120.5 -48.5t45.5 -117.5q0 -70 -45 -118t-121 -48q-79 0 -123.5 47.5t-44.5 118.5z" />
    <glyph glyph-name="f_f_i.ss02" horiz-adv-x="1843" vert-adv-y="2457" 
d="M182 0v803h-141v246h141v73q0 191 77 276t247 85q81 0 186 -21v-231q-59 6 -82 6q-51 0 -75.5 -23t-24.5 -100v-65h297v73q0 191 76.5 276t246.5 85q82 0 187 -21v-231q-58 6 -82 6q-51 0 -75.5 -23t-24.5 -100v-65h182v-246h-182v-803h-328v803h-297v-803h-328z
M1417 1311q0 72 46.5 122t125.5 50q80 0 127 -50t47 -122q0 -73 -46.5 -122.5t-127.5 -49.5q-80 0 -126 49t-46 123zM1425 0v1049h328v-1049h-328z" />
    <glyph glyph-name="f_i.ss02" horiz-adv-x="1220" vert-adv-y="2457" 
d="M182 1122q0 191 77 276t247 85q81 0 186 -21v-231q-59 6 -82 6q-51 0 -75.5 -23t-24.5 -100v-65h182v-246h-182v-803h-328v803h-141v246h141v73zM795 1311q0 72 46.5 122t125.5 50q80 0 127 -50t47 -122q0 -73 -46.5 -122.5t-127.5 -49.5q-80 0 -126 49t-46 123zM803 0
v1049h327v-1049h-327z" />
    <glyph glyph-name="i.ss02" horiz-adv-x="507" vert-adv-y="2457" 
d="M90 0v1049h328v-1049h-328zM82 1311q0 72 46.5 122t125.5 50q80 0 127 -50t47 -122q0 -73 -46.5 -122.5t-127.5 -49.5q-80 0 -126 49t-46 123z" />
    <glyph glyph-name="j.ss02" horiz-adv-x="507" vert-adv-y="2457" 
d="M90 -375q-83 0 -182 21v250q58 -7 76 -7q55 0 80.5 23.5t25.5 101.5v1035h328v-1018q0 -200 -77 -303t-251 -103zM90 1311q0 69 44.5 116.5t119.5 47.5t119.5 -47.5t44.5 -116.5t-44.5 -115.5t-119.5 -46.5q-77 0 -120.5 46.5t-43.5 115.5z" />
    <glyph glyph-name="exclamdown.ss02" horiz-adv-x="514" vert-adv-y="2457" 
d="M82 -266v319l92 666h164l92 -666v-319h-348zM90 1040q0 69 45.5 117.5t122.5 48.5q75 0 120.5 -48.5t45.5 -117.5q0 -70 -45 -118t-121 -48q-79 0 -123.5 47.5t-44.5 118.5z" />
    <glyph glyph-name="periodcentered.ss02" horiz-adv-x="456" vert-adv-y="2457" 
d="M229 346q-79 0 -123.5 47.5t-44.5 118.5q0 69 45.5 117.5t122.5 48.5q75 0 120.5 -48.5t45.5 -117.5q0 -70 -45 -118t-121 -48z" />
    <glyph glyph-name="questiondown.ss02" horiz-adv-x="1103" vert-adv-y="2457" 
d="M524 -295q-215 0 -352 110t-137 287q0 119 55.5 200t167.5 144q115 64 156 117t41 160h270q0 -69 -1.5 -110t-10.5 -81t-19 -62t-35 -50.5t-51.5 -49.5t-75.5 -57q-90 -65 -119.5 -102.5t-29.5 -99.5q0 -54 36 -89.5t116 -35.5q192 0 192 237h348q0 -109 -35 -202
t-101.5 -164t-173 -111.5t-241.5 -40.5zM422 1040q0 69 45.5 117.5t122.5 48.5q75 0 120.5 -48.5t45.5 -117.5q0 -70 -45 -118t-121 -48q-79 0 -123.5 47.5t-44.5 118.5z" />
    <glyph glyph-name="Adieresis.ss02" horiz-adv-x="1466" vert-adv-y="2457" 
d="M-10 0l557 1464h371l561 -1464h-404l-94 305h-502l-94 -305h-395zM375 1735q0 66 42.5 110.5t114.5 44.5t114 -44.5t42 -110.5t-42 -111t-114 -45q-74 0 -115.5 45t-41.5 111zM563 586h336l-166 540h-4zM774 1735q0 66 42.5 110.5t115.5 44.5q72 0 113.5 -44.5
t41.5 -110.5t-41.5 -111t-113.5 -45q-74 0 -116 45t-42 111z" />
    <glyph glyph-name="Edieresis.ss02" horiz-adv-x="1314" vert-adv-y="2457" 
d="M123 0v1464h1110v-301h-741v-260h638v-301h-638v-301h753v-301h-1122zM328 1735q0 66 42.5 110.5t114.5 44.5t114 -44.5t42 -110.5t-42 -111t-114 -45q-74 0 -115.5 45t-41.5 111zM727 1735q0 66 42.5 110.5t115.5 44.5q72 0 113.5 -44.5t41.5 -110.5t-41.5 -111
t-113.5 -45q-74 0 -116 45t-42 111z" />
    <glyph glyph-name="Idieresis.ss02" horiz-adv-x="614" vert-adv-y="2457" 
d="M123 0v1464h369v-1464h-369zM-49 1735q0 66 42.5 110.5t115.5 44.5q72 0 113.5 -44.5t41.5 -110.5t-41.5 -111t-113.5 -45q-74 0 -116 45t-42 111zM350 1735q0 66 42.5 110.5t115.5 44.5q72 0 114 -44.5t42 -110.5t-42 -111t-114 -45q-74 0 -116 45t-42 111z" />
    <glyph glyph-name="Odieresis.ss02" horiz-adv-x="1572" vert-adv-y="2457" 
d="M786 -33q-171 0 -309 57.5t-228.5 160t-139 242.5t-48.5 306q0 222 83 393t249 271t393 100q225 0 391 -99.5t250 -271.5t84 -393q0 -166 -49 -306.5t-140 -242.5t-228.5 -159.5t-307.5 -57.5zM430 1735q0 66 42.5 110.5t115.5 44.5q72 0 113.5 -44.5t41.5 -110.5
t-41.5 -111t-113.5 -45q-74 0 -116 45t-42 111zM438 733q0 -465 348 -465q97 0 166.5 36t108.5 101.5t56.5 146t17.5 181.5q0 100 -17.5 180t-56.5 145.5t-108.5 101.5t-166.5 36q-348 0 -348 -463zM829 1735q0 66 42.5 110.5t115.5 44.5q72 0 114 -44.5t42 -110.5t-42 -111
t-114 -45q-74 0 -116 45t-42 111z" />
    <glyph glyph-name="Udieresis.ss02" horiz-adv-x="1445" vert-adv-y="2457" 
d="M723 -33q-323 0 -467.5 139.5t-144.5 421.5v936h368v-936q0 -139 59.5 -199.5t184.5 -60.5t184.5 60.5t59.5 199.5v936h368v-936q0 -282 -144.5 -421.5t-467.5 -139.5zM367 1735q0 66 42.5 110.5t114.5 44.5t114 -44.5t42 -110.5t-42 -111t-114 -45q-74 0 -115.5 45
t-41.5 111zM766 1735q0 66 42.5 110.5t115.5 44.5q72 0 113.5 -44.5t41.5 -110.5t-41.5 -111t-113.5 -45q-74 0 -116 45t-42 111z" />
    <glyph glyph-name="adieresis.ss02" horiz-adv-x="1155" vert-adv-y="2457" 
d="M381 -33q-153 0 -243.5 83.5t-90.5 223.5q0 79 30.5 139t88 100t125 65.5t158.5 44.5q15 3 50.5 10t55 11.5t50.5 13t48.5 18t36 22.5t27 30.5t8.5 39.5q0 44 -35 69t-104 25q-90 0 -134.5 -37t-52.5 -114h-311q4 78 35 143.5t91 117.5t158.5 81.5t227.5 29.5
q222 0 332 -101t110 -335v-405q0 -44 7.5 -62t31.5 -18q15 0 27 2v-156q-99 -18 -180 -18q-94 0 -139 34t-58 103h-4q-59 -73 -148 -116.5t-198 -43.5zM227 1319q0 66 43 111t115 45t114 -45t42 -111t-42 -111t-114 -45q-74 0 -116 45t-42 111zM383 309q0 -116 135 -116
q94 0 150.5 68t56.5 163v88q-55 -20 -178 -49q-88 -21 -126 -58.5t-38 -95.5zM627 1319q0 66 42.5 111t114.5 45t114 -45t42 -111t-42 -111t-114 -45q-74 0 -115.5 45t-41.5 111z" />
    <glyph glyph-name="edieresis.ss02" horiz-adv-x="1173" vert-adv-y="2457" 
d="M590 -35q-251 0 -398 154.5t-147 404.5q0 116 36 217t103.5 177.5t172 120.5t233.5 44q265 0 400.5 -153t135.5 -445v-49h-753q0 -105 64.5 -165t160.5 -60q146 0 186 106h334q-46 -165 -179.5 -258.5t-348.5 -93.5zM229 1319q0 66 43 111t115 45t114 -45t42 -111
t-42 -111t-114 -45q-74 0 -116 45t-42 111zM375 639h422q0 100 -55 153.5t-152 53.5q-95 0 -152 -53.5t-63 -153.5zM629 1319q0 66 42.5 111t114.5 45t114 -45t42 -111t-42 -111t-114 -45q-74 0 -115.5 45t-41.5 111z" />
    </font>
</defs>
</svg>
