<svg width="28" height="22" fill="none" xmlns="http://www.w3.org/2000/svg">
<path d="M2.14844 9.92305V11.4964L11.4848 15.0409H11.9084V13.2249L5.04252 10.7476V10.6719L11.9084 8.19463V6.37891H11.4848L2.14844 9.92305Z" fill="white"/>
<path d="M21.8956 10.3682L19.1712 9.66016V11.7144L20.5432 12.0632C22.1037 12.4657 23.7681 12.8044 23.7681 14.4984C23.7681 16.0439 22.5198 17.2299 20.1272 17.2299C17.5264 17.2286 16.2784 15.7679 16.0699 13.6495H13.9883C14.0924 16.5504 15.7775 18.7099 19.169 19.0064V20.6366H21.0415V19.0071C24.0586 18.6893 25.8478 16.932 25.8478 14.3912C25.8488 11.6386 23.893 10.8763 21.8956 10.3682Z" fill="white"/>
<path d="M20.1271 4.96984C22.3116 4.96984 23.4558 6.13432 23.5599 7.82838H25.6415C25.5374 5.0334 23.6441 3.46643 21.0434 3.21255V1.58203H19.1699V3.23373C16.7773 3.55117 14.7175 4.92748 14.7175 7.51062H16.7991C16.7981 5.92248 18.0465 4.96984 20.1271 4.96984Z" fill="white"/>
</svg>
