<svg viewBox="0 0 142 16" fill="none" xmlns="http://www.w3.org/2000/svg">
<path d="M3.25358 4.11778C3.25358 2.37599 3.40054 1.66158 4.09317 0.359323V0.317139H0V0.359323C0.672215 1.66158 0.839589 2.37463 0.839589 4.11778V11.8851C0.839589 13.6065 0.672215 14.3413 0 15.6422V15.6844H10.203L11.1473 11.402L10.8738 11.2972C9.71855 13.0608 8.25029 14.9713 6.54934 15.0339L3.25358 15.1809V4.11778Z" fill="current"/>
<path d="M19.9299 0.00268555C15.9837 0.00268555 12.0361 3.57064 12.0361 8.02173C12.0361 12.4728 15.9837 16 19.9299 16C23.8761 16 27.8659 12.4728 27.8659 8.02173C27.8659 3.57064 23.8775 0.00268555 19.9299 0.00268555ZM19.9299 15.3481C16.528 15.3481 14.744 12.1775 14.744 8.02173C14.744 3.86593 16.5294 0.653136 19.9299 0.653136C23.3304 0.653136 25.1566 3.86456 25.1566 8.02173C25.1566 12.1789 23.3509 15.3481 19.9299 15.3481Z" fill="current"/>
<path d="M35.6586 16.0001C39.6688 16.0001 40.9697 13.4173 40.9697 10.4154V4.49472C40.9697 2.60596 41.2636 1.82896 42.4815 0.359323L42.3767 0.317139H38.7448V0.359323C39.9831 1.82896 40.2566 2.60596 40.2566 4.49472V10.4359C40.2566 12.9547 39.2075 15.2435 36.1635 15.2435C33.9168 15.2435 32.3424 14.0474 32.3424 10.625V4.11778C32.3424 2.37599 32.616 1.43025 33.182 0.359323V0.317139H29.0889V0.359323C29.7815 1.66158 29.9285 2.37463 29.9285 4.11778V10.689C29.9285 14.4678 32.552 16.0001 35.66 16.0001H35.6586Z" fill="current"/>
<path d="M55.6997 15.7483L56.5611 15.6857V4.49472C56.5611 2.60596 56.8346 1.82896 57.8416 0.359323V0.317139H54.588V0.359323C55.5963 1.82896 55.8481 2.60596 55.8685 4.49472L55.9311 11.9681L47.2603 0.317139H43.7754V0.359323C44.9511 1.28329 45.3294 1.91333 45.4124 3.27682V11.5068C45.4124 13.3955 45.1811 14.1725 44.1319 15.6422V15.6844H47.595V15.6422C46.4193 14.1725 46.1472 13.3955 46.1472 11.5068L46.0628 2.66856L55.6984 15.747L55.6997 15.7483Z" fill="current"/>
<path d="M73.1928 13.7738V12.5137C73.1928 10.7719 73.3398 10.0575 74.0324 8.75522V8.71304H69.9175V8.75522C70.6727 9.99353 70.8836 10.7283 70.8836 12.2402C70.8836 14.2977 69.3092 15.3468 67.0204 15.3468C63.1368 15.3468 61.5624 12.1354 61.5624 8.02041C61.5624 3.90542 63.3464 0.651811 67.1891 0.651811C69.3936 0.651811 70.9258 1.80711 72.8989 4.64024L73.1928 4.53546L72.7519 1.00833C71.5967 0.630039 69.7923 0 67.3783 0C62.0877 0 58.8545 3.52713 58.8545 7.99863C58.8545 12.4701 62.0455 15.9973 67.0204 15.9973C70.4005 15.9973 72.2063 14.465 73.1928 13.7724V13.7738Z" fill="current"/>
<path d="M75.8955 15.6842H86.6441L87.5681 11.4019L87.2742 11.2971C86.1189 12.9137 84.671 14.929 82.9919 14.9916L79.1504 15.1386V8.25304H80.9562C81.9223 8.25304 82.8245 9.6383 83.4328 10.3731H83.7471V5.39813H83.4328C82.8245 6.19555 81.921 7.60259 80.9766 7.60259H79.1504V0.86403L82.8027 1.01099C83.6845 1.05318 85.0493 3.06848 86.1203 4.1816L86.4142 4.05505L85.595 0.318359H75.8969V0.360543C76.4425 1.64103 76.716 2.43845 76.716 3.8659V12.1367C76.716 13.5437 76.4425 14.3616 75.8969 15.642V15.6842H75.8955Z" fill="current"/>
<path d="M93.7982 15.642C93.1056 14.3411 92.9587 13.6267 92.9587 11.8849V8.06389H95.1835C96.2122 8.06389 97.1566 9.44916 97.7866 10.184H97.9758V5.20898H97.7866C97.1362 6.0064 96.1905 7.41344 95.1835 7.41344H92.9587V0.842258L97.241 0.989221C98.1432 1.00963 99.4876 3.15149 100.559 4.26461L100.852 4.15983L100.033 0.318359H89.7051V0.360543C90.3773 1.6628 90.5447 2.37585 90.5447 4.119V11.8863C90.5447 13.6077 90.3773 14.3425 89.7051 15.6434V15.6856H93.7982V15.6434V15.642Z" fill="current"/>
<path d="M111.104 12.2633L106.57 0.149658H105.898L101.425 12.0319C100.817 13.6485 100.439 14.5943 99.4316 15.6434V15.6856H102.496V15.6434C102.055 14.9508 101.53 13.5438 102.454 11.0658L102.853 9.99486H107.765L108.583 12.1571C109.15 13.7098 109.171 15.0338 108.814 15.6421V15.6843H113.012V15.6421C112.277 14.8855 111.774 14.0894 111.102 12.2619L111.104 12.2633ZM103.106 9.34577L105.332 3.44682L107.536 9.34577H103.106Z" fill="current"/>
<path d="M127.558 10.4154L127.284 10.331C125.835 13.2703 124.282 15.3482 121.343 15.3482C117.669 15.3482 116.074 12.2198 116.074 7.99999C116.074 3.78023 117.606 0.651811 121.47 0.651811C123.841 0.651811 125.186 1.84793 127.201 4.78721L127.495 4.68243L127.034 1.00833C125.921 0.567443 123.969 0 121.743 0C116.851 0 113.366 3.52713 113.366 7.99863C113.366 12.4701 116.495 15.9973 121.343 15.9973C124.22 15.9973 126.759 14.759 127.117 14.4854L127.558 10.4126V10.4154Z" fill="current"/>
<path d="M130.028 15.6842H140.776L141.7 11.4019L141.406 11.2971C140.252 12.9137 138.803 14.929 137.124 14.9916L133.283 15.1386V8.25304H135.087C136.053 8.25304 136.955 9.6383 137.564 10.3731H137.879V5.39813H137.564C136.955 6.19555 136.052 7.60259 135.107 7.60259H133.281V0.86403L136.934 1.01099C137.817 1.05318 139.182 3.06848 140.251 4.1816L140.544 4.05505L139.726 0.318359H130.026V0.360543C130.572 1.64103 130.846 2.43845 130.846 3.8659V12.1367C130.846 13.5437 130.572 14.3616 130.026 15.642V15.6842H130.028Z" fill="current"/>
</svg>
