<svg viewBox="0 0 107 25" fill="none" xmlns="http://www.w3.org/2000/svg">
<g clip-path="url(#clip0_11266_32015)">
<path d="M46.3109 7.50684H45.0791V9.97282H42.6157V11.2058H45.0791V13.6718H46.3109V11.2058H48.7758V9.97282H46.3109V7.50684Z" fill="white"/>
<path d="M7.82903 14.9051H2.67123V5.19531H1.13159V16.2922H7.82903V14.9051Z" fill="white"/>
<path d="M12.3926 16.5227C14.7483 16.5227 16.5497 14.9815 16.5497 12.2843C16.5497 9.58714 14.7483 8.0459 12.3926 8.0459C10.037 8.0459 8.2356 9.58714 8.2356 12.2843C8.2356 14.9815 10.037 16.5227 12.3926 16.5227ZM12.3926 9.27889C14.0554 9.27889 15.164 10.3886 15.164 12.2843C15.164 14.18 14.0554 15.2897 12.3926 15.2897C10.7298 15.2897 9.62127 14.18 9.62127 12.2843C9.62127 10.3886 10.7298 9.27889 12.3926 9.27889Z" fill="white"/>
<path d="M21.672 16.2918L24.351 8.58559V8.27734H22.9345L20.6404 15.0434C20.5942 15.1205 20.5789 15.1359 20.5019 15.1359C20.4249 15.1359 20.4095 15.1205 20.3633 15.0434L18.0692 8.27734H16.6528V8.58559L19.3317 16.2918H21.672Z" fill="white"/>
<path d="M28.662 16.5227C29.8167 16.5227 30.7097 16.2607 31.3256 15.7213C31.926 15.1818 32.3263 14.5345 32.5111 13.7485H31.0484C30.7867 14.7811 30.0015 15.2897 28.662 15.2897C27.0146 15.2897 25.9984 14.2725 25.8906 12.6696H32.2801V11.7449C32.2801 9.75668 30.9714 8.0459 28.508 8.0459C26.0446 8.0459 24.428 9.69503 24.428 12.2843C24.428 14.8736 26.1216 16.5227 28.662 16.5227ZM28.508 9.27889C30.0477 9.27889 30.7405 10.1112 30.7405 11.5137H25.906C26.1062 10.0803 27.0762 9.27889 28.508 9.27889Z" fill="white"/>
<path d="M71.435 16.2922H69.8953V6.95233C69.8953 6.89068 69.8646 6.85985 69.7876 6.85985C69.7414 6.85985 69.6952 6.89068 69.649 6.96774L66.6621 16.2922H64.1063L61.1194 6.96774C61.0886 6.89068 61.0424 6.85985 60.9808 6.85985C60.9039 6.85985 60.8731 6.89068 60.8731 6.95233V16.2922H59.3334V5.19531H62.151L65.261 14.8897C65.2764 14.9514 65.3072 14.9822 65.3842 14.9822C65.4612 14.9822 65.492 14.9514 65.5074 14.8897L68.6175 5.19531H71.435V16.2922Z" fill="white"/>
<path d="M80.8821 12.2853C80.8821 14.9825 79.0807 16.5237 76.7251 16.5237C74.3694 16.5237 72.5681 14.9825 72.5681 12.2853C72.5681 9.58812 74.3694 8.04688 76.7251 8.04688C79.0807 8.04688 80.8821 9.58812 80.8821 12.2853ZM73.9537 12.2853C73.9537 14.181 75.0623 15.2907 76.7251 15.2907C78.3879 15.2907 79.4964 14.181 79.4964 12.2853C79.4964 10.3896 78.3879 9.27987 76.7251 9.27987C75.0623 9.27987 73.9537 10.3896 73.9537 12.2853Z" fill="white"/>
<path d="M89.3549 11.2835V16.2925H87.9692V11.5147C87.9692 10.0505 87.2148 9.27987 85.8138 9.27987C84.2279 9.27987 83.3503 10.2354 83.3503 12.1312V16.2925H81.9647V8.27806H83.3503V9.17198C83.3503 9.24904 83.3811 9.27987 83.4581 9.27987C83.5351 9.27987 83.6121 9.15657 83.6275 9.14116C84.1663 8.41677 84.9977 8.04688 86.1217 8.04688C88.1386 8.04688 89.3549 9.23363 89.3549 11.2835Z" fill="white"/>
<path d="M98.5188 13.7495C98.334 14.5355 97.9337 15.1828 97.3333 15.7223C96.7174 16.2617 95.8244 16.5237 94.6697 16.5237C92.1293 16.5237 90.4357 14.8746 90.4357 12.2853C90.4357 9.696 92.0523 8.04688 94.5157 8.04688C96.9791 8.04688 98.2878 9.75765 98.2878 11.7459V12.6706H91.8983C92.0061 14.2735 93.0223 15.2907 94.6697 15.2907C96.0092 15.2907 96.7944 14.7821 97.0561 13.7495H98.5188ZM91.9137 11.5147H96.7482C96.7482 10.1121 96.0554 9.27987 94.5157 9.27987C93.0838 9.27987 92.1139 10.0813 91.9137 11.5147Z" fill="white"/>
<path d="M106.5 8.27832V8.58657L103.498 17.2175C102.99 18.6817 102.189 19.2211 100.511 19.2211H99.0331V17.9881H101.512C101.697 17.9881 101.774 17.9573 101.82 17.834L102.297 16.524C102.328 16.4469 102.328 16.3852 102.282 16.339C102.251 16.3082 102.174 16.2928 102.035 16.2928H101.481L98.8022 8.58657V8.27832H100.219L102.513 15.0444C102.559 15.1214 102.574 15.1368 102.651 15.1368C102.728 15.1368 102.744 15.1214 102.79 15.0444L105.084 8.27832H106.5Z" fill="white"/>
</g>
<defs>
<clipPath id="clip0_11266_32015">
<rect width="106.5" height="14.0268" fill="white" transform="translate(0 5.19531)"/>
</clipPath>
</defs>
</svg>
