<svg viewBox="0 0 130 14" fill="none" xmlns="http://www.w3.org/2000/svg">
<path d="M2.98493 3.60291C2.98493 2.07884 3.11976 1.45373 3.7552 0.314255V0.277344H0V0.314255C0.616711 1.45373 0.770265 2.07765 0.770265 3.60291V10.3993C0.770265 11.9055 0.616711 12.5485 0 13.6868V13.7237H9.36053L10.2269 9.97661L9.97599 9.88492C8.9161 11.428 7.56907 13.0998 6.00857 13.1545L2.98493 13.2831V3.60291Z" fill="current"/>
<path d="M18.285 0.00195312C14.6646 0.00195312 11.043 3.12391 11.043 7.01862C11.043 10.9133 14.6646 13.9996 18.285 13.9996C21.9053 13.9996 25.5656 10.9133 25.5656 7.01862C25.5656 3.12391 21.9066 0.00195312 18.285 0.00195312ZM18.285 13.4292C15.1639 13.4292 13.5273 10.6549 13.5273 7.01862C13.5273 3.38229 15.1652 0.571097 18.285 0.571097C21.4047 0.571097 23.0801 3.3811 23.0801 7.01862C23.0801 10.6561 21.4234 13.4292 18.285 13.4292Z" fill="current"/>
<path d="M32.7148 13.9999C36.3938 13.9999 37.5873 11.74 37.5873 9.11336V3.93272C37.5873 2.28006 37.857 1.60019 38.9743 0.314255L38.8782 0.277344H35.5462V0.314255C36.6822 1.60019 36.9331 2.28006 36.9331 3.93272V9.13122C36.9331 11.3352 35.9706 13.3379 33.1779 13.3379C31.1168 13.3379 29.6724 12.2913 29.6724 9.29673V3.60291C29.6724 2.07884 29.9234 1.25132 30.4427 0.314255V0.277344H26.6875V0.314255C27.3229 1.45373 27.4578 2.07765 27.4578 3.60291V9.35269C27.4578 12.6592 29.8647 13.9999 32.716 13.9999H32.7148Z" fill="current"/>
<path d="M51.0999 13.7796L51.8902 13.7249V3.93272C51.8902 2.28006 52.1411 1.60019 53.0649 0.314255V0.277344H50.08V0.314255C51.005 1.60019 51.236 2.28006 51.2547 3.93272L51.3121 10.4719L43.3573 0.277344H40.1602V0.314255C41.2388 1.12273 41.5858 1.67401 41.662 2.86707V10.0683C41.662 11.7209 41.4498 12.4008 40.4872 13.6868V13.7237H43.6644V13.6868C42.5858 12.4008 42.3361 11.7209 42.3361 10.0683L42.2587 2.33484L51.0987 13.7784L51.0999 13.7796Z" fill="current"/>
<path d="M67.1505 12.052V10.9495C67.1505 9.42541 67.2853 8.8003 67.9208 7.66082V7.62391H64.1456V7.66082C64.8385 8.74434 65.032 9.3873 65.032 10.7101C65.032 12.5105 63.5876 13.4285 61.4878 13.4285C57.9248 13.4285 56.4804 10.6185 56.4804 7.01786C56.4804 3.41725 58.1171 0.570335 61.6426 0.570335C63.665 0.570335 65.0707 1.58122 66.8809 4.06021L67.1505 3.96853L66.746 0.882292C65.6861 0.551284 64.0308 0 61.8161 0C56.9623 0 53.9961 3.08624 53.9961 6.9988C53.9961 10.9114 56.9236 13.9976 61.4878 13.9976C64.5888 13.9976 66.2454 12.6569 67.1505 12.0509V12.052Z" fill="current"/>
<path d="M69.6289 13.7244H79.49L80.3377 9.97737L80.0681 9.88569C79.0082 11.3002 77.6799 13.0636 76.1393 13.1184L72.6151 13.247V7.22214H74.2717C75.1581 7.22214 75.9858 8.43425 76.5438 9.07722H76.8322V4.7241H76.5438C75.9858 5.42183 75.1568 6.653 74.2904 6.653H72.6151V0.756759L75.9658 0.885352C76.7748 0.922263 78.0269 2.68566 79.0094 3.65963L79.2791 3.5489L78.5275 0.279297H69.6302V0.316208C70.1308 1.43664 70.3817 2.13437 70.3817 3.38339V10.6203C70.3817 11.8515 70.1308 12.5671 69.6302 13.6875V13.7244H69.6289Z" fill="current"/>
<path d="M86.0521 13.6875C85.4166 12.5492 85.2818 11.9241 85.2818 10.4001V7.05664H87.3229C88.2667 7.05664 89.1331 8.26875 89.7111 8.91171H89.8847V4.55859H89.7111C89.1144 5.25633 88.2468 6.48749 87.3229 6.48749H85.2818V0.737708L89.2105 0.866301C90.0382 0.884161 91.2717 2.75829 92.2541 3.73226L92.5238 3.64058L91.7723 0.279297H82.2969V0.316208C82.9136 1.45569 83.0671 2.0796 83.0671 3.60486V10.4012C83.0671 11.9075 82.9136 12.5504 82.2969 13.6887V13.7256H86.0521V13.6887V13.6875Z" fill="current"/>
<path d="M101.931 10.7303L97.7718 0.130859H97.1551L93.0516 10.5279C92.4935 11.9424 92.1465 12.7699 91.2227 13.6879V13.7248H94.0341V13.6879C93.6296 13.0819 93.1477 11.8507 93.9954 9.68248L94.3611 8.74541H98.8679L99.6182 10.6374C100.139 11.996 100.157 13.1545 99.8304 13.6867V13.7236H103.682V13.6867C103.008 13.0247 102.546 12.3282 101.929 10.7291L101.931 10.7303ZM94.5933 8.17746L96.6357 3.01587L98.6581 8.17746H94.5933Z" fill="current"/>
<path d="M117.024 9.11345L116.773 9.03963C115.443 11.6115 114.019 13.4297 111.322 13.4297C107.951 13.4297 106.488 10.6923 106.488 7C106.488 3.3077 107.894 0.570335 111.438 0.570335C113.614 0.570335 114.848 1.61694 116.696 4.1888L116.966 4.09712L116.543 0.882292C115.522 0.496513 113.731 0 111.689 0C107.201 0 104.004 3.08624 104.004 6.9988C104.004 10.9114 106.874 13.9976 111.322 13.9976C113.961 13.9976 116.291 12.9141 116.619 12.6748L117.024 9.11107V9.11345Z" fill="current"/>
<path d="M119.29 13.7244H129.151L129.999 9.97737L129.729 9.88569C128.671 11.3002 127.341 13.0636 125.801 13.1184L122.276 13.247V7.22214H123.932C124.818 7.22214 125.646 8.43425 126.204 9.07722H126.494V4.7241H126.204C125.646 5.42183 124.817 6.653 123.951 6.653H122.275V0.756759L125.626 0.885352C126.436 0.922263 127.688 2.68566 128.67 3.65963L128.938 3.5489L128.188 0.279297H119.289V0.316208C119.79 1.43664 120.041 2.13437 120.041 3.38339V10.6203C120.041 11.8515 119.79 12.5671 119.289 13.6875V13.7244H119.29Z" fill="current"/>
</svg>
