<svg width="1028" height="578" fill="none" xmlns="http://www.w3.org/2000/svg">
<rect width="1028" height="578" fill="black"/>
<path d="M430.63 280.612V291.739L496.318 316.803H499.298V303.961L450.991 286.443V285.908L499.298 268.39V255.55H496.318L430.63 280.612Z" fill="white"/>
<path d="M569.564 283.763L550.395 278.756V293.282L560.048 295.75C571.028 298.596 582.738 300.99 582.738 312.97C582.738 323.898 573.955 332.285 557.121 332.285C538.823 332.276 530.042 321.947 528.576 306.966H513.93C514.662 327.48 526.519 342.751 550.38 344.848V356.376H563.554V344.852C584.782 342.605 597.37 330.179 597.37 312.212C597.377 292.747 583.617 287.356 569.564 283.763Z" fill="white"/>
<path d="M557.13 245.582C572.499 245.582 580.55 253.816 581.282 265.796H595.928C595.196 246.031 581.875 234.95 563.577 233.155V221.625H550.396V233.305C533.562 235.55 519.069 245.282 519.069 263.549H533.715C533.708 252.318 542.491 245.582 557.13 245.582Z" fill="white"/>
</svg>
