<svg width="1028" height="578" fill="none" xmlns="http://www.w3.org/2000/svg">
<rect width="1028" height="578" fill="black"/>
<g clip-path="url(#clip0_11234_39609)">
<path d="M485.266 270.607H480.166V280.819H469.965V285.924H480.166V296.136H485.266V285.924H495.473V280.819H485.266V270.607Z" fill="white"/>
<path d="M325.919 301.241H304.561V261.034H298.186V306.985H325.919V301.241Z" fill="white"/>
<path d="M344.816 307.942C354.57 307.942 362.029 301.56 362.029 290.391C362.029 279.223 354.57 272.841 344.816 272.841C335.061 272.841 327.602 279.223 327.602 290.391C327.602 301.56 335.061 307.942 344.816 307.942ZM344.816 277.946C351.701 277.946 356.292 282.542 356.292 290.391C356.292 298.241 351.701 302.836 344.816 302.836C337.93 302.836 333.34 298.241 333.34 290.391C333.34 282.542 337.93 277.946 344.816 277.946Z" fill="white"/>
<path d="M383.24 306.985L394.333 275.075V273.799H388.468L378.969 301.816C378.777 302.135 378.714 302.199 378.395 302.199C378.076 302.199 378.012 302.135 377.821 301.816L368.322 273.799H362.456V275.075L373.55 306.985H383.24Z" fill="white"/>
<path d="M412.185 307.942C416.966 307.942 420.664 306.857 423.214 304.623C425.7 302.39 427.358 299.709 428.123 296.454H422.066C420.983 300.73 417.731 302.836 412.185 302.836C405.363 302.836 401.155 298.624 400.709 291.987H427.167V288.158C427.167 279.925 421.748 272.841 411.547 272.841C401.346 272.841 394.652 279.67 394.652 290.391C394.652 301.113 401.665 307.942 412.185 307.942ZM411.547 277.946C417.922 277.946 420.791 281.393 420.791 287.2H400.773C401.601 281.265 405.618 277.946 411.547 277.946Z" fill="white"/>
<path d="M589.3 306.985H582.925V268.31C582.925 268.054 582.797 267.927 582.478 267.927C582.287 267.927 582.096 268.054 581.905 268.374L569.536 306.985H558.953L546.585 268.374C546.457 268.054 546.266 267.927 546.011 267.927C545.692 267.927 545.565 268.054 545.565 268.31V306.985H539.189V261.034H550.856L563.735 301.177C563.798 301.432 563.926 301.56 564.245 301.56C564.563 301.56 564.691 301.432 564.755 301.177L577.633 261.034H589.3V306.985Z" fill="white"/>
<path d="M628.42 290.391C628.42 301.56 620.96 307.942 611.206 307.942C601.452 307.942 593.992 301.56 593.992 290.391C593.992 279.223 601.452 272.841 611.206 272.841C620.96 272.841 628.42 279.223 628.42 290.391ZM599.73 290.391C599.73 298.241 604.321 302.836 611.206 302.836C618.091 302.836 622.682 298.241 622.682 290.391C622.682 282.542 618.091 277.946 611.206 277.946C604.321 277.946 599.73 282.542 599.73 290.391Z" fill="white"/>
<path d="M663.503 286.243V306.985H657.766V287.2C657.766 281.137 654.642 277.946 648.84 277.946C642.273 277.946 638.639 281.903 638.639 289.753V306.985H632.901V273.798H638.639V277.5C638.639 277.819 638.767 277.946 639.086 277.946C639.404 277.946 639.723 277.436 639.787 277.372C642.018 274.373 645.461 272.841 650.115 272.841C658.467 272.841 663.503 277.755 663.503 286.243Z" fill="white"/>
<path d="M701.45 296.454C700.685 299.709 699.027 302.39 696.541 304.623C693.991 306.857 690.293 307.942 685.511 307.942C674.992 307.942 667.979 301.113 667.979 290.391C667.979 279.67 674.673 272.841 684.874 272.841C695.074 272.841 700.494 279.925 700.494 288.158V291.987H674.036C674.482 298.624 678.69 302.836 685.511 302.836C691.058 302.836 694.309 300.73 695.393 296.454H701.45ZM674.099 287.2H694.118C694.118 281.393 691.249 277.946 684.874 277.946C678.945 277.946 674.928 281.265 674.099 287.2Z" fill="white"/>
<path d="M734.5 273.799V275.075L722.068 310.815C719.964 316.878 716.649 319.111 709.7 319.111H703.579V314.006H713.844C714.609 314.006 714.928 313.878 715.119 313.367L717.095 307.943C717.223 307.624 717.223 307.368 717.031 307.177C716.904 307.049 716.585 306.985 716.011 306.985H713.716L702.623 275.075V273.799H708.488L717.988 301.816C718.179 302.135 718.243 302.199 718.561 302.199C718.88 302.199 718.944 302.135 719.135 301.816L728.635 273.799H734.5Z" fill="white"/>
</g>
<defs>
<clipPath id="clip0_11234_39609">
<rect width="441" height="58.0829" fill="white" transform="translate(293.5 261.034)"/>
</clipPath>
</defs>
</svg>
