<svg viewBox="0 0 52 52" fill="none" xmlns="http://www.w3.org/2000/svg">
<path fill-rule="evenodd" clip-rule="evenodd" d="M26.4674 0.0775911C26.3436 0.0758324 26.2196 0.0749501 26.0954 0.07495C25.4699 0.07495 24.8496 0.0973241 24.2352 0.141316L24.2352 8.6317C24.2352 17.8777 16.7398 25.3732 7.49377 25.3732L0.42779 25.3732C0.426032 25.497 0.425151 25.621 0.425151 25.7452C0.425151 26.3707 0.447531 26.991 0.491519 27.6053L7.49377 27.6053C16.7398 27.6053 24.2352 35.1008 24.2352 44.3468L24.2352 51.3491C24.8495 51.393 25.4699 51.4154 26.0954 51.4154C26.2196 51.4154 26.3436 51.4145 26.4674 51.4128L26.4674 44.3468C26.4674 35.1008 33.9628 27.6053 43.2089 27.6053L51.6993 27.6053C51.7432 26.991 51.7656 26.3707 51.7656 25.7452C51.7656 25.621 51.7647 25.497 51.763 25.3732L43.2089 25.3732C33.9628 25.3732 26.4674 17.8777 26.4674 8.63169L26.4674 0.0775911Z" fill="current"/>
</svg>
