<svg viewBox="0 0 45 45" fill="none" xmlns="http://www.w3.org/2000/svg">
<path fill-rule="evenodd" clip-rule="evenodd" d="M13.083 6.03861C9.03292 6.03861 5.74967 9.32186 5.74967 13.3719V31.7053C5.74967 35.7554 9.03292 39.0386 13.083 39.0386H31.4163C35.4664 39.0386 38.7497 35.7554 38.7497 31.7053V13.3719C38.7497 9.32186 35.4664 6.03861 31.4163 6.03861H13.083ZM2.08301 13.3719C2.08301 7.29682 7.00788 2.37195 13.083 2.37195H31.4163C37.4915 2.37195 42.4163 7.29682 42.4163 13.3719V31.7053C42.4163 37.7804 37.4915 42.7053 31.4163 42.7053H13.083C7.00787 42.7053 2.08301 37.7804 2.08301 31.7053V13.3719ZM30.4997 12.4553C30.4997 11.4428 31.3205 10.6219 32.333 10.6219H32.3513C33.3639 10.6219 34.1847 11.4428 34.1847 12.4553C34.1847 13.4678 33.3639 14.2886 32.3513 14.2886H32.333C31.3205 14.2886 30.4997 13.4678 30.4997 12.4553ZM23.1358 17.0188C21.9914 16.8491 20.8227 17.0446 19.7959 17.5774C18.769 18.1102 17.9363 18.9532 17.4162 19.9865C16.8961 21.0199 16.7151 22.1909 16.8988 23.3331C17.0826 24.4752 17.6219 25.5304 18.4399 26.3484C19.2579 27.1664 20.3131 27.7057 21.4552 27.8894C22.5974 28.0732 23.7684 27.8922 24.8017 27.3721C25.8351 26.852 26.6781 26.0193 27.2109 24.9924C27.7437 23.9656 27.9392 22.7969 27.7695 21.6525C27.5964 20.4853 27.0525 19.4046 26.2181 18.5702C25.3837 17.7358 24.303 17.1919 23.1358 17.0188ZM18.1071 14.3227C19.8185 13.4347 21.7664 13.109 23.6736 13.3918C25.619 13.6803 27.4201 14.5868 28.8108 15.9775C30.2015 17.3682 31.108 19.1692 31.3965 21.1147C31.6793 23.0219 31.3536 24.9698 30.4655 26.6812C29.5775 28.3926 28.1725 29.7804 26.4502 30.6473C24.728 31.5141 22.7763 31.8159 20.8727 31.5095C18.9691 31.2032 17.2105 30.3045 15.8472 28.9411C14.4838 27.5777 13.5851 25.8192 13.2787 23.9156C12.9724 22.012 13.2742 20.0603 14.141 18.3381C15.0079 16.6158 16.3957 15.2108 18.1071 14.3227Z" fill="current"/>
</svg>
