<svg viewBox="0 0 53 53" fill="none" xmlns="http://www.w3.org/2000/svg">
<g clip-path="url(#clip0_7699_19171)">
<rect x="3.70667" y="2.68622" width="46.9438" height="46.9438" rx="10" fill="#43462C"/>
<path fill-rule="evenodd" clip-rule="evenodd" d="M14.4984 4.8328C9.16024 4.8328 4.8328 9.16024 4.8328 14.4984V38.6624C4.8328 44.0006 9.16024 48.328 14.4984 48.328H38.6624C44.0006 48.328 48.328 44.0006 48.328 38.6624V14.4984C48.328 9.16024 44.0006 4.8328 38.6624 4.8328H14.4984ZM0 14.4984C0 6.49115 6.49115 0 14.4984 0H38.6624C46.6696 0 53.1608 6.49115 53.1608 14.4984V38.6624C53.1608 46.6696 46.6696 53.1608 38.6624 53.1608H14.4984C6.49115 53.1608 0 46.6696 0 38.6624V14.4984ZM37.4542 13.2902C37.4542 11.9557 38.5361 10.8738 39.8706 10.8738H39.8948C41.2293 10.8738 42.3112 11.9557 42.3112 13.2902C42.3112 14.6247 41.2293 15.7066 39.8948 15.7066H39.8706C38.5361 15.7066 37.4542 14.6247 37.4542 13.2902ZM27.7483 19.3051C26.24 19.0814 24.6996 19.339 23.3462 20.0413C21.9928 20.7436 20.8952 21.8547 20.2097 23.2167C19.5242 24.5787 19.2856 26.1221 19.5278 27.6275C19.7701 29.1329 20.4808 30.5236 21.559 31.6018C22.6372 32.68 24.0279 33.3907 25.5333 33.633C27.0387 33.8752 28.5821 33.6366 29.9441 32.9511C31.3061 32.2656 32.4172 31.168 33.1195 29.8146C33.8218 28.4612 34.0794 26.9208 33.8557 25.4125C33.6276 23.874 32.9107 22.4497 31.8109 21.3499C30.7111 20.2501 29.2868 19.5332 27.7483 19.3051ZM21.1203 15.7516C23.376 14.5811 25.9434 14.1518 28.4572 14.5245C31.0213 14.9048 33.3952 16.0996 35.2282 17.9326C37.0612 19.7656 38.256 22.1395 38.6363 24.7036C39.009 27.2174 38.5797 29.7848 37.4092 32.0405C36.2388 34.2962 34.3869 36.1254 32.1169 37.2679C29.8469 38.4105 27.2745 38.8081 24.7655 38.4044C22.2565 38.0007 19.9386 36.8161 18.1417 35.0191C16.3447 33.2222 15.1601 30.9043 14.7564 28.3953C14.3527 25.8863 14.7503 23.3139 15.8929 21.0439C17.0354 18.7739 18.8646 16.922 21.1203 15.7516Z" fill="#CEFF43"/>
</g>
<defs>
</defs>
</svg>
