<svg viewBox="0 0 103 24" fill="none" xmlns="http://www.w3.org/2000/svg">
<path d="M6.45615 5.05956L4.54752 10.631C4.1257 11.8615 5.0408 13.1412 6.34231 13.1412H27.1658C27.3391 13.1412 27.4612 13.3119 27.4049 13.4762L27.1424 14.2428C27.0552 14.4981 26.8142 14.67 26.5442 14.67H5.87496C4.25281 14.67 2.81027 15.7001 2.28474 17.2333L1.06924 20.7812C0.647416 22.0116 1.56252 23.2914 2.86403 23.2914L22.9546 23.2926C24.5767 23.2926 26.0193 22.2625 26.5448 20.7294L29.4122 12.3608C29.9744 10.7202 28.7545 9.01382 27.0191 9.01382H15.279L16.6551 4.99763C17.0769 3.76591 16.1593 2.4849 14.8565 2.48743L10.0381 2.49628C8.41916 2.49944 6.97979 3.52892 6.45551 5.05956H6.45615Z" fill="current" stroke="current" stroke-width="0.290163" stroke-miterlimit="10"/>
<path d="M44.0515 5.01093L42.1442 10.5774C41.6186 12.1105 40.1761 13.1406 38.5539 13.1406H32.9438C32.7819 13.1406 32.6371 13.2437 32.5846 13.3972L32.3177 14.1758C32.2336 14.4217 32.4164 14.6776 32.6769 14.6776H53.2601C54.5616 14.6776 55.4767 15.9573 55.0549 17.1878L53.8413 20.7306C53.3158 22.2638 51.8732 23.2939 50.2511 23.2939H30.2307C28.9292 23.2939 28.0141 22.0142 28.4359 20.7837L33.8216 5.06402C34.3471 3.53085 35.7897 2.50073 37.4118 2.50073H42.2567C43.5582 2.50073 44.4733 3.78048 44.0515 5.01093Z" fill="current" stroke="current" stroke-width="0.290163" stroke-miterlimit="10"/>
<path d="M56.6683 17.24L55.4547 20.7823C55.0329 22.0127 55.9486 23.2925 57.2501 23.2925L66.5618 23.2899C68.1833 23.2899 69.6252 22.2592 70.1507 20.7266L71.3637 17.187C71.7855 15.9565 70.8704 14.6768 69.5689 14.6768H60.2585C58.6364 14.6768 57.1938 15.7069 56.6683 17.24Z" fill="current" stroke="current" stroke-width="0.290163" stroke-miterlimit="10"/>
<path d="M77.1541 5.06402L75.2467 10.6304C74.8249 11.8609 75.74 13.1406 77.0415 13.1406H97.9707C98.1439 13.1406 98.266 13.3113 98.2097 13.4756L97.9441 14.2504C97.8568 14.5057 97.6159 14.6776 97.3458 14.6776H76.571C74.9489 14.6776 73.5063 15.7077 72.9808 17.2409L71.7685 20.7799C71.3466 22.0104 72.2617 23.2901 73.5632 23.2901H78.6068C80.2289 23.2901 81.6714 22.26 82.197 20.7269L82.8111 18.9352H95.25C96.8722 18.9352 98.3147 17.9051 98.8402 16.3719L102.733 5.01093C103.155 3.78048 102.239 2.50073 100.938 2.50073H80.7443C79.1222 2.50073 77.6796 3.53085 77.1541 5.06402Z" fill="current" stroke="current" stroke-width="0.290163" stroke-miterlimit="10"/>
<path d="M64.2842 13.3255C64.4164 12.8749 64.6984 11.4795 64.7579 10.979C64.8274 10.3957 64.8534 9.41043 64.8078 9.08181C64.7459 8.63879 64.4739 8.19641 63.9965 7.76414C63.3577 7.18462 62.6374 7.01399 60.4644 6.92615L59.4816 6.88633C59.2736 6.87812 59.1566 6.71191 59.2167 6.50967C59.2767 6.30871 59.4937 6.14376 59.7049 6.13871L61.2587 6.10142C63.2622 6.05339 63.8017 5.97692 64.6788 5.6167C65.5301 5.26721 66.3933 4.41405 66.9492 3.37256C67.273 2.7646 67.8131 1.48106 67.9857 0.905331C68.061 0.656333 68.3323 0.454102 68.5922 0.454102H68.6833C68.9432 0.454102 69.095 0.655701 69.021 0.905331C68.8509 1.48043 68.6257 2.7646 68.5878 3.37256C68.5233 4.41405 68.8781 5.26721 69.5206 5.6167C70.1827 5.97692 70.6767 6.05339 72.6517 6.10142L74.1834 6.13871C74.3921 6.14376 74.511 6.30807 74.4509 6.50967C74.3908 6.71191 74.1745 6.87812 73.9614 6.88633L72.9552 6.92615C70.7304 7.01399 69.9083 7.18525 68.9236 7.76414C68.1887 8.19641 67.6537 8.63816 67.3274 9.08181C67.0858 9.41043 66.5242 10.3963 66.246 10.979C66.0075 11.4795 65.458 12.8749 65.3214 13.3255C65.2455 13.5777 64.971 13.7818 64.7073 13.7818H64.627C64.3639 13.7818 64.2108 13.5777 64.2848 13.3255H64.2842Z" fill="current" stroke="current" stroke-width="0.290163" stroke-miterlimit="10"/>
</svg>
