<svg viewBox="0 0 108 29" fill="none" xmlns="http://www.w3.org/2000/svg">
<g clip-path="url(#clip0_7569_23240)">
<path d="M107.224 3.79101C106.443 2.6977 105.173 2.04487 103.828 2.04487H82.2976C79.8533 2.04487 77.6639 3.50789 76.7153 5.72801C76.5654 5.70336 76.4123 5.68756 76.2574 5.68377L74.7263 5.64649C74.2311 5.63448 73.8353 5.61931 73.5406 5.60162C73.6088 5.12005 73.7341 4.45205 73.8144 4.18157C74.1123 3.17484 73.9295 2.12386 73.3122 1.29851C72.695 0.472516 71.7382 -0.00146484 70.6871 -0.00146484H70.596C69.0466 -0.00146484 67.6515 1.03434 67.2031 2.52137C67.0943 2.88476 66.6365 3.98566 66.386 4.45521C66.092 5.0063 65.7056 5.32039 65.5772 5.37853C65.1819 5.54095 65.0339 5.60161 63.1936 5.64585L61.6398 5.68314C60.1713 5.71853 58.8527 6.724 58.4322 8.13267C58.1457 9.0958 58.312 10.1095 58.8875 10.914C59.4624 11.7172 60.3661 12.2013 61.3678 12.2418L62.3506 12.2816C63.1905 12.3157 63.6591 12.3599 63.9196 12.3979C63.9114 12.6355 63.8962 12.8959 63.8735 13.0861C63.8501 13.282 63.7571 13.7787 63.6654 14.2211H62.2665C60.8644 14.2211 59.5395 14.6578 58.4417 15.42C57.5727 14.6572 56.4451 14.2211 55.2663 14.2211H46.8109C46.8432 14.1383 46.8735 14.0543 46.9026 13.9696L49.0965 7.56642C49.5322 6.29552 49.3254 4.88369 48.5437 3.79038C47.7621 2.69706 46.4922 2.04423 45.1477 2.04423H38.9658C36.371 2.04423 34.0627 3.69242 33.2222 6.14574L32.0636 9.52744C31.1637 8.90431 30.0835 8.55609 28.9629 8.55609H21.2942L21.6389 7.54999C22.0753 6.2772 21.8672 4.8641 21.0836 3.77079C20.3013 2.67937 19.0334 2.0278 17.6901 2.0278H17.6819L11.526 2.03981C8.93622 2.04487 6.63234 3.69305 5.79376 6.14132L3.73904 12.1394C3.35833 13.2504 3.40386 14.4537 3.84086 15.5198C2.76828 16.3104 1.9297 17.4202 1.47689 18.7416L0.261391 22.2895C-0.240114 23.7532 -0.002326 25.3786 0.898233 26.6375C1.79816 27.8964 3.2603 28.6478 4.80845 28.6478L24.899 28.6491C26.3814 28.6491 27.779 28.1606 28.911 27.315C29.7977 28.1631 30.9892 28.6516 32.2369 28.6516H52.2579C53.66 28.6516 54.9855 28.2149 56.0834 27.4527C56.9523 28.2155 58.0799 28.651 59.2581 28.651H59.2594L68.5717 28.6484C69.9731 28.6484 71.2986 28.2111 72.3959 27.449C73.2648 28.2124 74.393 28.6478 75.5712 28.6478H80.6147C83.4182 28.6478 85.9188 26.9055 86.8946 24.2929H97.2574C100.123 24.2929 102.671 22.4728 103.6 19.7635L107.779 7.56579C108.215 6.29426 108.008 4.88306 107.226 3.78975L107.224 3.79101ZM71.6749 13.2548C71.6983 13.2276 71.8773 13.0298 72.4022 12.7208C72.7266 12.5299 72.9543 12.3966 74.4455 12.3119C74.1591 13.2643 74.1793 14.2748 74.486 15.2026C73.6588 14.575 72.6381 14.2211 71.5763 14.2211H71.1115C71.3233 13.828 71.5718 13.404 71.6749 13.2542V13.2548Z" fill="#201D1D"/>
<path d="M8.45639 6.05932L6.54776 11.6308C6.12594 12.8613 7.04105 14.141 8.34255 14.141H29.1661C29.3394 14.141 29.4614 14.3116 29.4051 14.4759L29.1427 15.2425C29.0554 15.4978 28.8145 15.6697 28.5444 15.6697H7.8752C6.25306 15.6697 4.81052 16.6999 4.28498 18.233L3.06948 21.7809C2.64766 23.0114 3.56276 24.2911 4.86427 24.2911L24.9548 24.2924C26.577 24.2924 28.0195 23.2623 28.545 21.7291L31.4124 13.3605C31.9746 11.7199 30.7547 10.0136 29.0194 10.0136H17.2792L18.6553 5.99739C19.0772 4.76567 18.1595 3.48466 16.8568 3.48719L12.0384 3.49603C10.4194 3.49919 8.98003 4.52868 8.45576 6.05932H8.45639Z" fill="#CEFF43" stroke="white" stroke-width="0.290163" stroke-miterlimit="10"/>
<path d="M46.0515 6.01069L44.1442 11.5771C43.6186 13.1103 42.1761 14.1404 40.5539 14.1404H34.9438C34.7819 14.1404 34.6371 14.2434 34.5846 14.397L34.3177 15.1756C34.2336 15.4214 34.4164 15.6774 34.6769 15.6774H55.2601C56.5616 15.6774 57.4767 16.9571 57.0549 18.1876L55.8413 21.7304C55.3158 23.2636 53.8732 24.2937 52.2511 24.2937H32.2307C30.9292 24.2937 30.0141 23.0139 30.4359 21.7835L35.8216 6.06377C36.3471 4.53061 37.7897 3.50049 39.4118 3.50049H44.2567C45.5582 3.50049 46.4733 4.78023 46.0515 6.01069Z" fill="#CEFF43" stroke="white" stroke-width="0.290163" stroke-miterlimit="10"/>
<path d="M58.6685 18.2398L57.4549 21.782C57.0331 23.0125 57.9488 24.2922 59.2504 24.2922L68.562 24.2897C70.1835 24.2897 71.6254 23.2589 72.151 21.7264L73.364 18.1867C73.7858 16.9563 72.8707 15.6765 71.5692 15.6765H62.2588C60.6366 15.6765 59.1941 16.7066 58.6685 18.2398Z" fill="#CEFF43" stroke="white" stroke-width="0.290163" stroke-miterlimit="10"/>
<path d="M79.1543 6.06377L77.247 11.6302C76.8252 12.8607 77.7403 14.1404 79.0418 14.1404H99.9709C100.144 14.1404 100.266 14.311 100.21 14.4753L99.9443 15.2501C99.8571 15.5055 99.6161 15.6774 99.3461 15.6774H78.5713C76.9491 15.6774 75.5066 16.7075 74.981 18.2406L73.7687 21.7797C73.3469 23.0101 74.262 24.2899 75.5635 24.2899H80.607C82.2291 24.2899 83.6717 23.2598 84.1972 21.7266L84.8113 19.935H97.2503C98.8724 19.935 100.315 18.9048 100.84 17.3717L104.733 6.01069C105.155 4.78023 104.24 3.50049 102.938 3.50049H82.7446C81.1224 3.50049 79.6799 4.53061 79.1543 6.06377Z" fill="#CEFF43" stroke="white" stroke-width="0.290163" stroke-miterlimit="10"/>
<path d="M66.2844 14.3253C66.4166 13.8747 66.6987 12.4793 66.7581 11.9787C66.8277 11.3954 66.8536 10.4102 66.8081 10.0816C66.7461 9.63855 66.4742 9.19617 65.9967 8.7639C65.358 8.18438 64.6376 8.01375 62.4647 7.9259L61.4819 7.88609C61.2738 7.87787 61.1568 7.71166 61.2169 7.50943C61.277 7.30846 61.4939 7.14352 61.7051 7.13846L63.259 7.10118C65.2625 7.05315 65.8019 6.97668 66.6791 6.61645C67.5303 6.26697 68.3936 5.41381 68.9494 4.37231C69.2732 3.76435 69.8133 2.48081 69.986 1.90509C70.0612 1.65609 70.3325 1.45386 70.5925 1.45386H70.6835C70.9434 1.45386 71.0952 1.65546 71.0212 1.90509C70.8511 2.48018 70.626 3.76435 70.588 4.37231C70.5235 5.41381 70.8783 6.26697 71.5208 6.61645C72.183 6.97668 72.6769 7.05315 74.6519 7.10118L76.1836 7.13846C76.3923 7.14352 76.5112 7.30783 76.4512 7.50943C76.3911 7.71166 76.1748 7.87787 75.9617 7.88609L74.9555 7.9259C72.7307 8.01375 71.9085 8.18501 70.9238 8.7639C70.189 9.19617 69.654 9.63792 69.3276 10.0816C69.086 10.4102 68.5245 11.3961 68.2462 11.9787C68.0078 12.4793 67.4582 13.8747 67.3216 14.3253C67.2457 14.5774 66.9712 14.7816 66.7075 14.7816H66.6272C66.3641 14.7816 66.2111 14.5774 66.2851 14.3253H66.2844Z" fill="#CEFF43" stroke="white" stroke-width="0.290163" stroke-miterlimit="10"/>
</g>
<defs>
<clipPath id="clip0_7569_23240">
<rect width="108" height="28.6531" fill="white"/>
</clipPath>
</defs>
</svg>
