<svg viewBox="0 0 45 45" fill="none" xmlns="http://www.w3.org/2000/svg">
<g clip-path="url(#clip0_7661_34328)">
<path fill-rule="evenodd" clip-rule="evenodd" d="M27.5472 4.84783C29.4701 4.11394 31.5719 3.98827 33.5684 4.48784C35.1561 4.8851 36.6163 5.6625 37.827 6.74517C39.3159 6.19789 40.7282 5.4572 42.0271 4.54101L43.0838 6.03915L44.8651 6.47295C44.2371 9.05158 42.9783 11.4284 41.2081 13.3926C41.2354 13.6885 41.2495 13.9856 41.2505 14.2831L41.2505 14.2891C41.2505 25.4724 35.8663 33.6767 28.1327 37.7929C20.4439 41.8854 10.6171 41.8401 1.86017 36.9751C1.11802 36.5628 0.756032 35.6949 0.985287 34.8774C1.21454 34.06 1.97506 33.5069 2.82338 33.5406C5.91587 33.6636 8.97719 33.0487 11.7609 31.7663C9.00509 30.0658 7.02112 28.0469 5.64178 25.869C3.80179 22.9638 3.1072 19.8861 2.98157 17.1224C2.85631 14.3667 3.29406 11.8855 3.75422 10.1062C3.98541 9.21224 4.22528 8.4839 4.41019 7.97245C4.50275 7.71644 4.58185 7.5139 4.63966 7.37121C4.66857 7.29984 4.69219 7.24336 4.70954 7.20256L4.73075 7.1532L4.73617 7.14082C4.74908 7.11116 4.76282 7.08174 4.7774 7.05259L6.41718 7.87248L7.9175 6.81884C9.59599 9.20892 11.8395 11.1468 14.4483 12.4599C16.5233 13.5043 18.7782 14.1277 21.0833 14.3009C21.0698 12.2665 21.6742 10.2754 22.8175 8.59125C23.9734 6.88844 25.6244 5.58173 27.5472 4.84783ZM7.15903 11.6191C6.82227 13.0883 6.55334 14.9514 6.64446 16.9559C6.748 19.2338 7.31382 21.6562 8.73945 23.9072C10.1577 26.1465 12.4966 28.3274 16.3284 30.0305C16.9367 30.3008 17.3507 30.8797 17.4099 31.5427C17.4691 32.2058 17.1643 32.8488 16.6135 33.2227C14.5768 34.6052 12.3465 35.6453 10.0107 36.3179C15.8227 37.7986 21.6467 37.0915 26.41 34.5562C32.8841 31.1103 37.5829 24.1907 37.5838 14.2922C37.5823 13.896 37.5442 13.5008 37.4698 13.1117C37.3549 12.5106 37.5475 11.8918 37.9832 11.4621C38.3916 11.0594 38.7698 10.6301 39.1159 10.1779C38.7007 10.3311 38.2804 10.4717 37.8558 10.5996C37.1653 10.8075 36.4171 10.5914 35.9438 10.0472C35.0861 9.06107 33.9463 8.36209 32.6784 8.04485C31.4105 7.72761 30.0758 7.80741 28.8547 8.27346C27.6337 8.73951 26.5852 9.56932 25.8512 10.6507C25.1171 11.732 24.7328 13.0127 24.7503 14.3196L24.7507 14.3441H24.7505V16.1775C24.7505 17.1715 23.9584 17.9844 22.9647 18.0102C19.4406 18.1016 15.9487 17.32 12.7998 15.7351C10.6996 14.678 8.79546 13.2854 7.15903 11.6191Z" fill="current"/>
</g>
<defs>
<clipPath id="clip0_7661_34328">
<rect width="44" height="44" fill="white" transform="translate(0.916992 0.538574)"/>
</clipPath>
</defs>
</svg>
