<svg viewBox="0 0 53 53" fill="none" xmlns="http://www.w3.org/2000/svg">
<g clip-path="url(#clip0_7699_19174)">
<path d="M4.41128 21.9171L6.7429 11.658L16.5357 15.8549L26.3285 19.5855L28.1937 9.32643L36.5876 6.99481L43.1161 9.32643L49.1783 9.79275L46.8467 13.057L43.5824 30.3109L36.5876 41.0364L25.3958 45.6996H13.2714L3.47864 41.969L10.4735 41.0364L16.5357 37.3058L8.14187 30.3109L4.41128 21.9171Z" fill="#43462C"/>
<path fill-rule="evenodd" clip-rule="evenodd" d="M32.0771 5.19069C34.3932 4.30668 36.9249 4.15531 39.3299 4.75706C41.2423 5.23558 43.0012 6.172 44.4595 7.47612C46.253 6.81689 47.9542 5.9247 49.5188 4.82111L50.7916 6.62568L52.9373 7.14821C52.1808 10.2543 50.6646 13.1172 48.5323 15.4832C48.5651 15.8397 48.5821 16.1976 48.5833 16.5559L48.5833 16.5632C48.5833 30.0339 42.0977 39.9164 32.7824 44.8746C23.5208 49.8041 11.684 49.7495 1.13586 43.8894C0.241898 43.3928 -0.194128 42.3474 0.0820205 41.3627C0.35817 40.378 1.27424 39.7118 2.29609 39.7524C6.02114 39.9006 9.70863 39.1599 13.0617 37.6152C9.74223 35.5668 7.35245 33.1351 5.69098 30.5117C3.47463 27.0122 2.63796 23.305 2.48664 19.976C2.33575 16.6566 2.86304 13.6678 3.41733 11.5246C3.6958 10.4478 3.98474 9.5705 4.20747 8.95444C4.31896 8.64605 4.41424 8.40209 4.48387 8.23022C4.5187 8.14425 4.54715 8.07621 4.56805 8.02707L4.5936 7.96761L4.60012 7.95269C4.61568 7.91696 4.63224 7.88153 4.64979 7.84642L6.62498 8.83401L8.43219 7.56486C10.454 10.4438 13.1564 12.7781 16.2988 14.3597C18.7983 15.6178 21.5145 16.3687 24.291 16.5773C24.2747 14.1268 25.0028 11.7284 26.3799 9.69981C27.7723 7.6487 29.761 6.0747 32.0771 5.19069ZM7.51858 13.347C7.11293 15.1167 6.789 17.3609 6.89875 19.7754C7.02347 22.5193 7.70503 25.4371 9.42227 28.1485C11.1306 30.8459 13.9479 33.473 18.5635 35.5243C19.2963 35.85 19.7949 36.5473 19.8662 37.3459C19.9376 38.1446 19.5704 38.9192 18.9069 39.3695C16.4536 41.0348 13.7672 42.2877 10.9535 43.0978C17.9543 44.8814 24.9696 44.0296 30.7072 40.9758C38.5056 36.825 44.1655 28.49 44.1666 16.5669C44.1648 16.0896 44.1188 15.6136 44.0293 15.1449C43.8909 14.4209 44.1228 13.6755 44.6477 13.1579C45.1396 12.6728 45.5952 12.1557 46.0121 11.611C45.5119 11.7955 45.0057 11.9649 44.4942 12.119C43.6625 12.3694 42.7612 12.109 42.1912 11.4536C41.1581 10.2657 39.785 9.42377 38.2578 9.04164C36.7306 8.65951 35.1229 8.75563 33.652 9.31701C32.1812 9.87839 30.9183 10.8779 30.0341 12.1805C29.1499 13.483 28.687 15.0257 28.7081 16.5998L28.7085 16.6294H28.7083V18.8378C28.7083 20.0351 27.7542 21.0143 26.5572 21.0454C22.3123 21.1554 18.1061 20.214 14.3131 18.3048C11.7833 17.0315 9.48973 15.3541 7.51858 13.347Z" fill="current"/>
</g>
<defs>
</defs>
</svg>
